<svg width="105" height="126" viewBox="0 0 105 126" fill="none" xmlns="http://www.w3.org/2000/svg">
<path d="M7.76001 86.7701V113.432C8.04903 116.034 9.95985 120.802 15.3468 120.802C20.5492 120.802 26.9799 120.658 29.4366 120.802H86.4461C86.4461 120.802 92.7323 121.019 95.5503 118.851C98.3682 116.684 98.3682 113.432 98.3682 113.432C98.3682 113.432 99.163 44.7898 99.0185 14.1535C98.8017 10.6853 99.0185 5.26611 91.6485 5.26611C86.1373 5.26611 39.9859 5.7719 17.5145 5.26611C13.3959 5.26617 7.76001 6.56665 7.76001 11.9858C7.76001 19.4426 7.76001 32.0006 7.76001 37.3475" stroke="black" stroke-width="10.2791" stroke-linecap="round"/>
<path d="M6.11523 62.7669C6.11523 62.7669 49.4485 62.7669 77.2145 62.7669M77.2145 62.7669C65.1938 74.7875 46.4337 93.5476 46.4337 93.5476M77.2145 62.7669C65.7338 49.6714 47.6426 29.5244 47.6426 29.5244" stroke="black" stroke-width="10.2791" stroke-linecap="round" stroke-linejoin="round"/>
</svg>
