<svg width="1277" height="257" viewBox="0 0 1277 257" fill="none" xmlns="http://www.w3.org/2000/svg">
<mask id="path-1-outside-1_146_46" maskUnits="userSpaceOnUse" x="321" y="59" width="946" height="167" fill="black">
<rect fill="white" x="321" y="59" width="946" height="167"/>
<path d="M440.979 80.4V220H412.979V160.6H353.179V220H325.179V80.4H353.179V137.8H412.979V80.4H440.979ZM488.738 96C483.805 96 479.672 94.4667 476.338 91.4C473.138 88.2 471.538 84.2667 471.538 79.6C471.538 74.9333 473.138 71.0667 476.338 68C479.672 64.8 483.805 63.2 488.738 63.2C493.672 63.2 497.738 64.8 500.938 68C504.272 71.0667 505.938 74.9333 505.938 79.6C505.938 84.2667 504.272 88.2 500.938 91.4C497.738 94.4667 493.672 96 488.738 96ZM502.538 109.2V220H474.538V109.2H502.538ZM587.002 132.2H567.602V220H539.202V132.2H526.602V109.2H539.202V103.6C539.202 90 543.069 80 550.802 73.6C558.536 67.2 570.202 64.2 585.802 64.6V88.2C579.002 88.0667 574.269 89.2 571.602 91.6C568.936 94 567.602 98.3333 567.602 104.6V109.2H587.002V132.2ZM636.748 197H686.148V220H604.948V197.4L653.348 132.2H605.148V109.2H685.548V131.8L636.748 197ZM810.827 80.4V103H773.627V220H745.627V103H708.427V80.4H810.827ZM943.857 109.2V220H915.657V206C912.057 210.8 907.324 214.6 901.457 217.4C895.724 220.067 889.457 221.4 882.657 221.4C873.99 221.4 866.324 219.6 859.657 216C852.99 212.267 847.724 206.867 843.857 199.8C840.124 192.6 838.257 184.067 838.257 174.2V109.2H866.257V170.2C866.257 179 868.457 185.8 872.857 190.6C877.257 195.267 883.257 197.6 890.857 197.6C898.59 197.6 904.657 195.267 909.057 190.6C913.457 185.8 915.657 179 915.657 170.2V109.2H943.857ZM1012.08 132.2V185.8C1012.08 189.533 1012.95 192.267 1014.68 194C1016.55 195.6 1019.62 196.4 1023.88 196.4H1036.88V220H1019.28C995.684 220 983.884 208.533 983.884 185.6V132.2H970.684V109.2H983.884V81.8H1012.08V109.2H1036.88V132.2H1012.08ZM1114.22 221.8C1103.56 221.8 1093.96 219.467 1085.42 214.8C1076.89 210 1070.16 203.267 1065.22 194.6C1060.42 185.933 1058.02 175.933 1058.02 164.6C1058.02 153.267 1060.49 143.267 1065.42 134.6C1070.49 125.933 1077.36 119.267 1086.02 114.6C1094.69 109.8 1104.36 107.4 1115.02 107.4C1125.69 107.4 1135.36 109.8 1144.02 114.6C1152.69 119.267 1159.49 125.933 1164.42 134.6C1169.49 143.267 1172.02 153.267 1172.02 164.6C1172.02 175.933 1169.42 185.933 1164.22 194.6C1159.16 203.267 1152.22 210 1143.42 214.8C1134.76 219.467 1125.02 221.8 1114.22 221.8ZM1114.22 197.4C1119.29 197.4 1124.02 196.2 1128.42 193.8C1132.96 191.267 1136.56 187.533 1139.22 182.6C1141.89 177.667 1143.22 171.667 1143.22 164.6C1143.22 154.067 1140.42 146 1134.82 140.4C1129.36 134.667 1122.62 131.8 1114.62 131.8C1106.62 131.8 1099.89 134.667 1094.42 140.4C1089.09 146 1086.42 154.067 1086.42 164.6C1086.42 175.133 1089.02 183.267 1094.22 189C1099.56 194.6 1106.22 197.4 1114.22 197.4ZM1228.56 126.4C1232.16 120.533 1236.83 115.933 1242.56 112.6C1248.43 109.267 1255.1 107.6 1262.56 107.6V137H1255.16C1246.36 137 1239.7 139.067 1235.16 143.2C1230.76 147.333 1228.56 154.533 1228.56 164.8V220H1200.56V109.2H1228.56V126.4Z"/>
</mask>
<path d="M440.979 80.4V220H412.979V160.6H353.179V220H325.179V80.4H353.179V137.8H412.979V80.4H440.979ZM488.738 96C483.805 96 479.672 94.4667 476.338 91.4C473.138 88.2 471.538 84.2667 471.538 79.6C471.538 74.9333 473.138 71.0667 476.338 68C479.672 64.8 483.805 63.2 488.738 63.2C493.672 63.2 497.738 64.8 500.938 68C504.272 71.0667 505.938 74.9333 505.938 79.6C505.938 84.2667 504.272 88.2 500.938 91.4C497.738 94.4667 493.672 96 488.738 96ZM502.538 109.2V220H474.538V109.2H502.538ZM587.002 132.2H567.602V220H539.202V132.2H526.602V109.2H539.202V103.6C539.202 90 543.069 80 550.802 73.6C558.536 67.2 570.202 64.2 585.802 64.6V88.2C579.002 88.0667 574.269 89.2 571.602 91.6C568.936 94 567.602 98.3333 567.602 104.6V109.2H587.002V132.2ZM636.748 197H686.148V220H604.948V197.4L653.348 132.2H605.148V109.2H685.548V131.8L636.748 197ZM810.827 80.4V103H773.627V220H745.627V103H708.427V80.4H810.827ZM943.857 109.2V220H915.657V206C912.057 210.8 907.324 214.6 901.457 217.4C895.724 220.067 889.457 221.4 882.657 221.4C873.99 221.4 866.324 219.6 859.657 216C852.99 212.267 847.724 206.867 843.857 199.8C840.124 192.6 838.257 184.067 838.257 174.2V109.2H866.257V170.2C866.257 179 868.457 185.8 872.857 190.6C877.257 195.267 883.257 197.6 890.857 197.6C898.59 197.6 904.657 195.267 909.057 190.6C913.457 185.8 915.657 179 915.657 170.2V109.2H943.857ZM1012.08 132.2V185.8C1012.08 189.533 1012.95 192.267 1014.68 194C1016.55 195.6 1019.62 196.4 1023.88 196.4H1036.88V220H1019.28C995.684 220 983.884 208.533 983.884 185.6V132.2H970.684V109.2H983.884V81.8H1012.08V109.2H1036.88V132.2H1012.08ZM1114.22 221.8C1103.56 221.8 1093.96 219.467 1085.42 214.8C1076.89 210 1070.16 203.267 1065.22 194.6C1060.42 185.933 1058.02 175.933 1058.02 164.6C1058.02 153.267 1060.49 143.267 1065.42 134.6C1070.49 125.933 1077.36 119.267 1086.02 114.6C1094.69 109.8 1104.36 107.4 1115.02 107.4C1125.69 107.4 1135.36 109.8 1144.02 114.6C1152.69 119.267 1159.49 125.933 1164.42 134.6C1169.49 143.267 1172.02 153.267 1172.02 164.6C1172.02 175.933 1169.42 185.933 1164.22 194.6C1159.16 203.267 1152.22 210 1143.42 214.8C1134.76 219.467 1125.02 221.8 1114.22 221.8ZM1114.22 197.4C1119.29 197.4 1124.02 196.2 1128.42 193.8C1132.96 191.267 1136.56 187.533 1139.22 182.6C1141.89 177.667 1143.22 171.667 1143.22 164.6C1143.22 154.067 1140.42 146 1134.82 140.4C1129.36 134.667 1122.62 131.8 1114.62 131.8C1106.62 131.8 1099.89 134.667 1094.42 140.4C1089.09 146 1086.42 154.067 1086.42 164.6C1086.42 175.133 1089.02 183.267 1094.22 189C1099.56 194.6 1106.22 197.4 1114.22 197.4ZM1228.56 126.4C1232.16 120.533 1236.83 115.933 1242.56 112.6C1248.43 109.267 1255.1 107.6 1262.56 107.6V137H1255.16C1246.36 137 1239.7 139.067 1235.16 143.2C1230.76 147.333 1228.56 154.533 1228.56 164.8V220H1200.56V109.2H1228.56V126.4Z" fill="black"/>
<path d="M440.979 80.4H444.979V76.4H440.979V80.4ZM440.979 220V224H444.979V220H440.979ZM412.979 220H408.979V224H412.979V220ZM412.979 160.6H416.979V156.6H412.979V160.6ZM353.179 160.6V156.6H349.179V160.6H353.179ZM353.179 220V224H357.179V220H353.179ZM325.179 220H321.179V224H325.179V220ZM325.179 80.4V76.4H321.179V80.4H325.179ZM353.179 80.4H357.179V76.4H353.179V80.4ZM353.179 137.8H349.179V141.8H353.179V137.8ZM412.979 137.8V141.8H416.979V137.8H412.979ZM412.979 80.4V76.4H408.979V80.4H412.979ZM440.979 80.4H436.979V220H440.979H444.979V80.4H440.979ZM440.979 220V216H412.979V220V224H440.979V220ZM412.979 220H416.979V160.6H412.979H408.979V220H412.979ZM412.979 160.6V156.6H353.179V160.6V164.6H412.979V160.6ZM353.179 160.6H349.179V220H353.179H357.179V160.6H353.179ZM353.179 220V216H325.179V220V224H353.179V220ZM325.179 220H329.179V80.4H325.179H321.179V220H325.179ZM325.179 80.4V84.4H353.179V80.4V76.4H325.179V80.4ZM353.179 80.4H349.179V137.8H353.179H357.179V80.4H353.179ZM353.179 137.8V141.8H412.979V137.8V133.8H353.179V137.8ZM412.979 137.8H416.979V80.4H412.979H408.979V137.8H412.979ZM412.979 80.4V84.4H440.979V80.4V76.4H412.979V80.4ZM476.338 91.4L473.51 94.2284L473.569 94.2873L473.63 94.3437L476.338 91.4ZM476.338 68L479.106 70.8879L479.108 70.8855L476.338 68ZM500.938 68L498.11 70.8284L498.169 70.8873L498.23 70.9437L500.938 68ZM500.938 91.4L503.706 94.288L503.708 94.2855L500.938 91.4ZM502.538 109.2H506.538V105.2H502.538V109.2ZM502.538 220V224H506.538V220H502.538ZM474.538 220H470.538V224H474.538V220ZM474.538 109.2V105.2H470.538V109.2H474.538ZM488.738 96V92C484.711 92 481.573 90.7805 479.047 88.4563L476.338 91.4L473.63 94.3437C477.77 98.1528 482.899 100 488.738 100V96ZM476.338 91.4L479.167 88.5716C476.743 86.1475 475.538 83.2428 475.538 79.6H471.538H467.538C467.538 85.2905 469.534 90.2525 473.51 94.2284L476.338 91.4ZM471.538 79.6H475.538C475.538 75.9591 476.739 73.1566 479.106 70.8879L476.338 68L473.571 65.112C469.538 68.9767 467.538 73.9075 467.538 79.6H471.538ZM476.338 68L479.108 70.8855C481.643 68.4522 484.761 67.2 488.738 67.2V63.2V59.2C482.849 59.2 477.7 61.1478 473.568 65.1144L476.338 68ZM488.738 63.2V67.2C492.716 67.2 495.731 68.4499 498.11 70.8284L500.938 68L503.767 65.1716C499.745 61.1501 494.627 59.2 488.738 59.2V63.2ZM500.938 68L498.23 70.9437C500.712 73.2273 501.938 76.0136 501.938 79.6H505.938H509.938C509.938 73.8531 507.831 68.906 503.647 65.0563L500.938 68ZM505.938 79.6H501.938C501.938 83.1897 500.707 86.0772 498.168 88.5145L500.938 91.4L503.708 94.2855C507.836 90.3228 509.938 85.3436 509.938 79.6H505.938ZM500.938 91.4L498.171 88.512C495.802 90.7819 492.767 92 488.738 92V96V100C494.576 100 499.674 98.1515 503.706 94.2879L500.938 91.4ZM502.538 109.2H498.538V220H502.538H506.538V109.2H502.538ZM502.538 220V216H474.538V220V224H502.538V220ZM474.538 220H478.538V109.2H474.538H470.538V220H474.538ZM474.538 109.2V113.2H502.538V109.2V105.2H474.538V109.2ZM587.002 132.2V136.2H591.002V132.2H587.002ZM567.602 132.2V128.2H563.602V132.2H567.602ZM567.602 220V224H571.602V220H567.602ZM539.202 220H535.202V224H539.202V220ZM539.202 132.2H543.202V128.2H539.202V132.2ZM526.602 132.2H522.602V136.2H526.602V132.2ZM526.602 109.2V105.2H522.602V109.2H526.602ZM539.202 109.2V113.2H543.202V109.2H539.202ZM550.802 73.6L548.252 70.5184L550.802 73.6ZM585.802 64.6H589.802V60.7012L585.905 60.6013L585.802 64.6ZM585.802 88.2L585.724 92.1992L589.802 92.2792V88.2H585.802ZM571.602 91.6L568.926 88.6268L571.602 91.6ZM567.602 109.2H563.602V113.2H567.602V109.2ZM587.002 109.2H591.002V105.2H587.002V109.2ZM587.002 132.2V128.2H567.602V132.2V136.2H587.002V132.2ZM567.602 132.2H563.602V220H567.602H571.602V132.2H567.602ZM567.602 220V216H539.202V220V224H567.602V220ZM539.202 220H543.202V132.2H539.202H535.202V220H539.202ZM539.202 132.2V128.2H526.602V132.2V136.2H539.202V132.2ZM526.602 132.2H530.602V109.2H526.602H522.602V132.2H526.602ZM526.602 109.2V113.2H539.202V109.2V105.2H526.602V109.2ZM539.202 109.2H543.202V103.6H539.202H535.202V109.2H539.202ZM539.202 103.6H543.202C543.202 90.7437 546.834 82.0759 553.353 76.6816L550.802 73.6L548.252 70.5184C539.304 77.924 535.202 89.2563 535.202 103.6H539.202ZM550.802 73.6L553.353 76.6816C560.024 71.1602 570.554 68.2103 585.7 68.5987L585.802 64.6L585.905 60.6013C569.85 60.1897 557.047 63.2398 548.252 70.5184L550.802 73.6ZM585.802 64.6H581.802V88.2H585.802H589.802V64.6H585.802ZM585.802 88.2L585.881 84.2008C578.868 84.0633 572.785 85.1541 568.926 88.6268L571.602 91.6L574.278 94.5732C575.753 93.2459 579.136 92.0701 585.724 92.1992L585.802 88.2ZM571.602 91.6L568.926 88.6268C564.966 92.1913 563.602 97.9962 563.602 104.6H567.602H571.602C571.602 98.6705 572.905 95.8087 574.278 94.5732L571.602 91.6ZM567.602 104.6H563.602V109.2H567.602H571.602V104.6H567.602ZM567.602 109.2V113.2H587.002V109.2V105.2H567.602V109.2ZM587.002 109.2H583.002V132.2H587.002H591.002V109.2H587.002ZM636.748 197L633.545 194.603L628.757 201H636.748V197ZM686.148 197H690.148V193H686.148V197ZM686.148 220V224H690.148V220H686.148ZM604.948 220H600.948V224H604.948V220ZM604.948 197.4L601.736 195.016L600.948 196.078V197.4H604.948ZM653.348 132.2L656.559 134.584L661.299 128.2H653.348V132.2ZM605.148 132.2H601.148V136.2H605.148V132.2ZM605.148 109.2V105.2H601.148V109.2H605.148ZM685.548 109.2H689.548V105.2H685.548V109.2ZM685.548 131.8L688.75 134.197L689.548 133.131V131.8H685.548ZM636.748 197V201H686.148V197V193H636.748V197ZM686.148 197H682.148V220H686.148H690.148V197H686.148ZM686.148 220V216H604.948V220V224H686.148V220ZM604.948 220H608.948V197.4H604.948H600.948V220H604.948ZM604.948 197.4L608.159 199.784L656.559 134.584L653.348 132.2L650.136 129.816L601.736 195.016L604.948 197.4ZM653.348 132.2V128.2H605.148V132.2V136.2H653.348V132.2ZM605.148 132.2H609.148V109.2H605.148H601.148V132.2H605.148ZM605.148 109.2V113.2H685.548V109.2V105.2H605.148V109.2ZM685.548 109.2H681.548V131.8H685.548H689.548V109.2H685.548ZM685.548 131.8L682.345 129.403L633.545 194.603L636.748 197L639.95 199.397L688.75 134.197L685.548 131.8ZM810.827 80.4H814.827V76.4H810.827V80.4ZM810.827 103V107H814.827V103H810.827ZM773.627 103V99H769.627V103H773.627ZM773.627 220V224H777.627V220H773.627ZM745.627 220H741.627V224H745.627V220ZM745.627 103H749.627V99H745.627V103ZM708.427 103H704.427V107H708.427V103ZM708.427 80.4V76.4H704.427V80.4H708.427ZM810.827 80.4H806.827V103H810.827H814.827V80.4H810.827ZM810.827 103V99H773.627V103V107H810.827V103ZM773.627 103H769.627V220H773.627H777.627V103H773.627ZM773.627 220V216H745.627V220V224H773.627V220ZM745.627 220H749.627V103H745.627H741.627V220H745.627ZM745.627 103V99H708.427V103V107H745.627V103ZM708.427 103H712.427V80.4H708.427H704.427V103H708.427ZM708.427 80.4V84.4H810.827V80.4V76.4H708.427V80.4ZM943.857 109.2H947.857V105.2H943.857V109.2ZM943.857 220V224H947.857V220H943.857ZM915.657 220H911.657V224H915.657V220ZM915.657 206H919.657V194L912.457 203.6L915.657 206ZM901.457 217.4L903.144 221.027L903.162 221.018L903.18 221.01L901.457 217.4ZM859.657 216L857.703 219.49L857.729 219.505L857.756 219.52L859.657 216ZM843.857 199.8L840.306 201.641L840.327 201.681L840.348 201.72L843.857 199.8ZM838.257 109.2V105.2H834.257V109.2H838.257ZM866.257 109.2H870.257V105.2H866.257V109.2ZM872.857 190.6L869.908 193.303L869.927 193.324L869.947 193.344L872.857 190.6ZM909.057 190.6L911.967 193.344L911.987 193.324L912.006 193.303L909.057 190.6ZM915.657 109.2V105.2H911.657V109.2H915.657ZM943.857 109.2H939.857V220H943.857H947.857V109.2H943.857ZM943.857 220V216H915.657V220V224H943.857V220ZM915.657 220H919.657V206H915.657H911.657V220H915.657ZM915.657 206L912.457 203.6C909.276 207.841 905.068 211.244 899.734 213.79L901.457 217.4L903.18 221.01C909.58 217.956 914.838 213.759 918.857 208.4L915.657 206ZM901.457 217.4L899.77 213.773C894.604 216.176 888.919 217.4 882.657 217.4V221.4V225.4C889.995 225.4 896.843 223.958 903.144 221.027L901.457 217.4ZM882.657 221.4V217.4C874.557 217.4 867.561 215.722 861.558 212.48L859.657 216L857.756 219.52C865.086 223.478 873.423 225.4 882.657 225.4V221.4ZM859.657 216L861.611 212.51C855.636 209.164 850.893 204.325 847.366 197.88L843.857 199.8L840.348 201.72C844.555 209.408 850.344 215.369 857.703 219.49L859.657 216ZM843.857 199.8L847.408 197.959C844.027 191.438 842.257 183.563 842.257 174.2H838.257H834.257C834.257 184.57 836.22 193.762 840.306 201.641L843.857 199.8ZM838.257 174.2H842.257V109.2H838.257H834.257V174.2H838.257ZM838.257 109.2V113.2H866.257V109.2V105.2H838.257V109.2ZM866.257 109.2H862.257V170.2H866.257H870.257V109.2H866.257ZM866.257 170.2H862.257C862.257 179.644 864.625 187.539 869.908 193.303L872.857 190.6L875.806 187.897C872.29 184.061 870.257 178.356 870.257 170.2H866.257ZM872.857 190.6L869.947 193.344C875.242 198.96 882.376 201.6 890.857 201.6V197.6V193.6C884.138 193.6 879.272 191.573 875.767 187.856L872.857 190.6ZM890.857 197.6V201.6C899.448 201.6 906.659 198.974 911.967 193.344L909.057 190.6L906.147 187.856C902.655 191.559 897.733 193.6 890.857 193.6V197.6ZM909.057 190.6L912.006 193.303C917.29 187.539 919.657 179.644 919.657 170.2H915.657H911.657C911.657 178.356 909.625 184.061 906.108 187.897L909.057 190.6ZM915.657 170.2H919.657V109.2H915.657H911.657V170.2H915.657ZM915.657 109.2V113.2H943.857V109.2V105.2H915.657V109.2ZM1012.08 132.2V128.2H1008.08V132.2H1012.08ZM1014.68 194L1011.86 196.828L1011.96 196.937L1012.08 197.037L1014.68 194ZM1036.88 196.4H1040.88V192.4H1036.88V196.4ZM1036.88 220V224H1040.88V220H1036.88ZM983.884 132.2H987.884V128.2H983.884V132.2ZM970.684 132.2H966.684V136.2H970.684V132.2ZM970.684 109.2V105.2H966.684V109.2H970.684ZM983.884 109.2V113.2H987.884V109.2H983.884ZM983.884 81.8V77.8H979.884V81.8H983.884ZM1012.08 81.8H1016.08V77.8H1012.08V81.8ZM1012.08 109.2H1008.08V113.2H1012.08V109.2ZM1036.88 109.2H1040.88V105.2H1036.88V109.2ZM1036.88 132.2V136.2H1040.88V132.2H1036.88ZM1012.08 132.2H1008.08V185.8H1012.08H1016.08V132.2H1012.08ZM1012.08 185.8H1008.08C1008.08 190.049 1009.06 194.032 1011.86 196.828L1014.68 194L1017.51 191.172C1016.84 190.501 1016.08 189.017 1016.08 185.8H1012.08ZM1014.68 194L1012.08 197.037C1015.04 199.576 1019.3 200.4 1023.88 200.4V196.4V192.4C1019.93 192.4 1018.06 191.624 1017.29 190.963L1014.68 194ZM1023.88 196.4V200.4H1036.88V196.4V192.4H1023.88V196.4ZM1036.88 196.4H1032.88V220H1036.88H1040.88V196.4H1036.88ZM1036.88 220V216H1019.28V220V224H1036.88V220ZM1019.28 220V216C1008.07 216 1000.4 213.275 995.521 208.531C990.661 203.808 987.884 196.421 987.884 185.6H983.884H979.884C979.884 197.713 983.007 207.525 989.946 214.269C996.864 220.991 1006.9 224 1019.28 224V220ZM983.884 185.6H987.884V132.2H983.884H979.884V185.6H983.884ZM983.884 132.2V128.2H970.684V132.2V136.2H983.884V132.2ZM970.684 132.2H974.684V109.2H970.684H966.684V132.2H970.684ZM970.684 109.2V113.2H983.884V109.2V105.2H970.684V109.2ZM983.884 109.2H987.884V81.8H983.884H979.884V109.2H983.884ZM983.884 81.8V85.8H1012.08V81.8V77.8H983.884V81.8ZM1012.08 81.8H1008.08V109.2H1012.08H1016.08V81.8H1012.08ZM1012.08 109.2V113.2H1036.88V109.2V105.2H1012.08V109.2ZM1036.88 109.2H1032.88V132.2H1036.88H1040.88V109.2H1036.88ZM1036.88 132.2V128.2H1012.08V132.2V136.2H1036.88V132.2ZM1085.42 214.8L1083.46 218.286L1083.48 218.298L1083.5 218.309L1085.42 214.8ZM1065.22 194.6L1061.72 196.538L1061.73 196.558L1061.75 196.579L1065.22 194.6ZM1065.42 134.6L1061.97 132.581L1061.96 132.601L1061.95 132.621L1065.42 134.6ZM1086.02 114.6L1087.92 118.122L1087.94 118.111L1087.96 118.099L1086.02 114.6ZM1144.02 114.6L1142.08 118.099L1142.11 118.111L1142.13 118.122L1144.02 114.6ZM1164.42 134.6L1160.95 136.579L1160.96 136.599L1160.97 136.619L1164.42 134.6ZM1164.22 194.6L1160.79 192.542L1160.78 192.562L1160.77 192.581L1164.22 194.6ZM1143.42 214.8L1145.32 218.322L1145.33 218.317L1145.34 218.312L1143.42 214.8ZM1128.42 193.8L1130.34 197.312L1130.36 197.302L1130.37 197.292L1128.42 193.8ZM1139.22 182.6L1142.74 184.502V184.502L1139.22 182.6ZM1134.82 140.4L1131.93 143.16L1131.96 143.195L1131.99 143.228L1134.82 140.4ZM1094.42 140.4L1091.53 137.64L1091.53 137.641L1094.42 140.4ZM1094.22 189L1091.26 191.687L1091.29 191.723L1091.33 191.759L1094.22 189ZM1114.22 221.8V217.8C1104.16 217.8 1095.23 215.605 1087.34 211.291L1085.42 214.8L1083.5 218.309C1092.68 223.328 1102.95 225.8 1114.22 225.8V221.8ZM1085.42 214.8L1087.38 211.314C1079.5 206.876 1073.28 200.67 1068.7 192.621L1065.22 194.6L1061.75 196.579C1067.03 205.864 1074.28 213.124 1083.46 218.286L1085.42 214.8ZM1065.22 194.6L1068.72 192.662C1064.3 184.669 1062.02 175.354 1062.02 164.6H1058.02H1054.02C1054.02 176.513 1056.55 187.197 1061.72 196.538L1065.22 194.6ZM1058.02 164.6H1062.02C1062.02 153.864 1064.35 144.564 1068.9 136.579L1065.42 134.6L1061.95 132.621C1056.63 141.969 1054.02 152.669 1054.02 164.6H1058.02ZM1065.42 134.6L1068.88 136.619C1073.58 128.573 1079.91 122.433 1087.92 118.122L1086.02 114.6L1084.13 111.078C1074.8 116.1 1067.4 123.293 1061.97 132.581L1065.42 134.6ZM1086.02 114.6L1087.96 118.099C1095.99 113.653 1104.98 111.4 1115.02 111.4V107.4V103.4C1103.73 103.4 1093.39 105.947 1084.08 111.101L1086.02 114.6ZM1115.02 107.4V111.4C1125.06 111.4 1134.06 113.653 1142.08 118.099L1144.02 114.6L1145.96 111.101C1136.66 105.947 1126.31 103.4 1115.02 103.4V107.4ZM1144.02 114.6L1142.13 118.122C1150.12 122.428 1156.38 128.555 1160.95 136.579L1164.42 134.6L1167.9 132.621C1162.6 123.311 1155.26 116.106 1145.92 111.078L1144.02 114.6ZM1164.42 134.6L1160.97 136.619C1165.63 144.597 1168.02 153.883 1168.02 164.6H1172.02H1176.02C1176.02 152.651 1173.34 141.936 1167.88 132.581L1164.42 134.6ZM1172.02 164.6H1168.02C1168.02 175.299 1165.58 184.57 1160.79 192.542L1164.22 194.6L1167.65 196.658C1173.27 187.297 1176.02 176.568 1176.02 164.6H1172.02ZM1164.22 194.6L1160.77 192.581C1156.07 200.621 1149.67 206.837 1141.51 211.288L1143.42 214.8L1145.34 218.312C1154.78 213.163 1162.24 205.913 1167.68 196.619L1164.22 194.6ZM1143.42 214.8L1141.53 211.278C1133.5 215.601 1124.43 217.8 1114.22 217.8V221.8V225.8C1125.62 225.8 1136.01 223.332 1145.32 218.322L1143.42 214.8ZM1114.22 197.4V201.4C1119.95 201.4 1125.34 200.036 1130.34 197.312L1128.42 193.8L1126.51 190.288C1122.7 192.364 1118.63 193.4 1114.22 193.4V197.4ZM1128.42 193.8L1130.37 197.292C1135.62 194.358 1139.74 190.048 1142.74 184.502L1139.22 182.6L1135.7 180.698C1133.37 185.019 1130.29 188.175 1126.47 190.308L1128.42 193.8ZM1139.22 182.6L1142.74 184.502C1145.8 178.852 1147.22 172.161 1147.22 164.6H1143.22H1139.22C1139.22 171.172 1137.98 176.482 1135.7 180.698L1139.22 182.6ZM1143.22 164.6H1147.22C1147.22 153.368 1144.22 144.144 1137.65 137.572L1134.82 140.4L1131.99 143.228C1136.62 147.856 1139.22 154.766 1139.22 164.6H1143.22ZM1134.82 140.4L1137.72 137.64C1131.49 131.106 1123.7 127.8 1114.62 127.8V131.8V135.8C1121.54 135.8 1127.22 138.227 1131.93 143.16L1134.82 140.4ZM1114.62 131.8V127.8C1105.54 127.8 1097.76 131.106 1091.53 137.64L1094.42 140.4L1097.32 143.16C1102.02 138.227 1107.7 135.8 1114.62 135.8V131.8ZM1094.42 140.4L1091.53 137.641C1085.26 144.22 1082.42 153.418 1082.42 164.6H1086.42H1090.42C1090.42 154.715 1092.92 147.78 1097.32 143.159L1094.42 140.4ZM1086.42 164.6H1082.42C1082.42 175.764 1085.18 184.988 1091.26 191.687L1094.22 189L1097.19 186.313C1092.86 181.546 1090.42 174.502 1090.42 164.6H1086.42ZM1094.22 189L1091.33 191.759C1097.44 198.182 1105.17 201.4 1114.22 201.4V197.4V193.4C1107.27 193.4 1101.67 191.018 1097.12 186.241L1094.22 189ZM1228.56 126.4H1224.56V140.566L1231.97 128.492L1228.56 126.4ZM1242.56 112.6L1240.59 109.122L1240.57 109.132L1240.55 109.142L1242.56 112.6ZM1262.56 107.6H1266.56V103.6H1262.56V107.6ZM1262.56 137V141H1266.56V137H1262.56ZM1235.16 143.2L1232.47 140.244L1232.44 140.264L1232.42 140.285L1235.16 143.2ZM1228.56 220V224H1232.56V220H1228.56ZM1200.56 220H1196.56V224H1200.56V220ZM1200.56 109.2V105.2H1196.56V109.2H1200.56ZM1228.56 109.2H1232.56V105.2H1228.56V109.2ZM1228.56 126.4L1231.97 128.492C1235.24 123.167 1239.43 119.046 1244.57 116.058L1242.56 112.6L1240.55 109.142C1234.22 112.821 1229.08 117.899 1225.15 124.308L1228.56 126.4ZM1242.56 112.6L1244.54 116.078C1249.74 113.122 1255.71 111.6 1262.56 111.6V107.6V103.6C1254.48 103.6 1247.12 105.411 1240.59 109.122L1242.56 112.6ZM1262.56 107.6H1258.56V137H1262.56H1266.56V107.6H1262.56ZM1262.56 137V133H1255.16V137V141H1262.56V137ZM1255.16 137V133C1245.79 133 1238 135.197 1232.47 140.244L1235.16 143.2L1237.86 146.156C1241.39 142.936 1246.93 141 1255.16 141V137ZM1235.16 143.2L1232.42 140.285C1226.81 145.56 1224.56 154.161 1224.56 164.8H1228.56H1232.56C1232.56 154.906 1234.72 149.106 1237.9 146.115L1235.16 143.2ZM1228.56 164.8H1224.56V220H1228.56H1232.56V164.8H1228.56ZM1228.56 220V216H1200.56V220V224H1228.56V220ZM1200.56 220H1204.56V109.2H1200.56H1196.56V220H1200.56ZM1200.56 109.2V113.2H1228.56V109.2V105.2H1200.56V109.2ZM1228.56 109.2H1224.56V126.4H1228.56H1232.56V109.2H1228.56Z" fill="#111629" mask="url(#path-1-outside-1_146_46)"/>
<path d="M92.3643 72.1055C117.999 73.6586 133.671 87.2139 135.922 100.562C136.547 104.267 136.92 115.63 137.057 131.35C137.191 146.792 137.102 165.808 136.922 184.32C136.742 202.827 136.472 220.803 136.247 234.154C136.188 237.68 136.131 240.882 136.08 243.687C123.909 233.347 112.794 226.211 99.2373 221.379C83.5148 215.775 64.8917 213.41 38.1758 212.102L37.9199 72.1055H92.3643ZM16.4053 102.86V232.345L22.0244 232.485L50.1211 233.189C66.8172 234.569 79.2034 236.488 88.7568 239.204C70.767 235.913 52.0495 234.532 37.373 234.628H5.76367V102.86H16.4053ZM202.896 71.8467C214.422 70.6347 229.146 70.6247 241.147 70.9365C247.114 71.0916 252.346 71.3238 256.084 71.5176C256.281 71.5278 256.474 71.5388 256.663 71.5488V205.769C234.62 206.195 217.157 208.356 201.06 214.093C186.751 219.192 173.822 227.007 159.84 238.436V101.341C161.28 94.5273 166.158 87.8477 173.824 82.4219C181.628 76.8991 191.899 73.0031 202.896 71.8467Z" fill="#D3F501" stroke="black" stroke-width="11.5283"/>
</svg>
