<svg width="90" height="116" viewBox="0 0 90 116" fill="none" xmlns="http://www.w3.org/2000/svg">
<path d="M5.44873 79.8752V104.299C5.69862 106.682 7.35075 111.05 12.0084 111.05C16.5065 111.05 22.0666 110.918 24.1907 111.05H73.4822C73.4822 111.05 78.9173 111.249 81.3538 109.263C83.7903 107.277 83.7903 104.299 83.7903 104.299C83.7903 104.299 84.4775 41.4196 84.3525 13.3556C84.1651 10.1785 84.3525 5.21436 77.9802 5.21436C73.2152 5.21436 33.3118 5.67768 13.8826 5.21436C10.3216 5.21441 5.44873 6.4057 5.44873 11.3699C5.44873 18.2006 5.44873 29.7041 5.44873 34.6021" stroke="black" stroke-width="9.41601" stroke-linecap="round"/>
<path d="M68.043 56.1691C68.043 56.1691 34.4518 56.1691 10.4449 56.1691M10.4449 56.1691C20.8381 45.1577 30.1827 35.2972 30.1827 35.2972M10.4449 56.1691C20.3713 68.1651 30.1827 78.6167 30.1827 78.6167" stroke="black" stroke-width="9.41601" stroke-linecap="round" stroke-linejoin="round"/>
</svg>
