<svg width="685" height="143" viewBox="0 0 685 143" fill="none" xmlns="http://www.w3.org/2000/svg">
<path d="M114.77 39.4756C121.372 38.7814 129.824 38.7756 136.731 38.9551C140.07 39.0419 143.009 39.1707 145.145 39.2803V115.552C132.668 115.822 122.695 117.079 113.476 120.364C105.463 123.22 98.206 127.538 90.4514 133.765V55.9863C91.2597 52.2503 93.9589 48.5297 98.2795 45.4717C102.694 42.3472 108.522 40.1326 114.77 39.4756Z" fill="#D3F501" stroke="black" stroke-width="7.71135"/>
<path d="M52.9663 39.4756C46.3644 38.7814 37.9123 38.7756 31.0054 38.9551C27.6662 39.0419 24.7275 39.1707 22.5913 39.2803V115.552C35.0678 115.822 45.0412 117.079 54.2603 120.364C62.2734 123.22 69.5301 127.538 77.2847 133.765V55.9863C76.4763 52.2503 73.7772 48.5297 69.4565 45.4717C65.0418 42.3472 59.2146 40.1326 52.9663 39.4756Z" fill="#D3F501" stroke="black" stroke-width="7.71135"/>
<path d="M13.5952 123.938V47.7241H1V133.583L65.7753 137.176C50.4212 124.921 24.591 123.244 13.5952 123.938Z" fill="black" stroke="black" stroke-width="0.385567"/>
<mask id="path-4-outside-1_171_97" maskUnits="userSpaceOnUse" x="174" y="34" width="493" height="90" fill="black">
<rect fill="white" x="174" y="34" width="493" height="90"/>
<path d="M227.884 74.2929V85.8399H186.935V74.2929H227.884ZM190.945 42.1642V120H176.243V42.1642H190.945ZM238.79 42.1642V120H224.089V42.1642H238.79ZM272.037 62.1578V120H257.87V62.1578H272.037ZM256.908 47.029C256.908 44.9263 257.621 43.1799 259.047 41.79C260.508 40.4001 262.468 39.7051 264.927 39.7051C267.386 39.7051 269.328 40.4001 270.754 41.79C272.215 43.1799 272.946 44.9263 272.946 47.029C272.946 49.096 272.215 50.8245 270.754 52.2145C269.328 53.6044 267.386 54.2993 264.927 54.2993C262.468 54.2993 260.508 53.6044 259.047 52.2145C257.621 50.8245 256.908 49.096 256.908 47.029ZM308.385 120H294.165V56.8119C294.165 52.4639 295.002 48.8109 296.677 45.8529C298.352 42.8592 300.74 40.5961 303.841 39.0636C306.941 37.5312 310.594 36.7649 314.8 36.7649C316.19 36.7649 317.508 36.854 318.756 37.0322C320.039 37.2104 321.304 37.4599 322.551 37.7806L322.284 48.5258C321.607 48.3476 320.858 48.2229 320.039 48.1516C319.255 48.0803 318.381 48.0447 317.419 48.0447C315.495 48.0447 313.855 48.3833 312.501 49.0604C311.147 49.7375 310.113 50.7354 309.4 52.0541C308.723 53.3371 308.385 54.923 308.385 56.8119V120ZM320.092 62.1578V72.3149H285.451V62.1578H320.092ZM378.518 108.881V120H335.003V108.881H378.518ZM377.502 70.6042L340.295 120H330.993V111.286L367.987 62.1578H377.502V70.6042ZM372.317 62.1578V73.3306H331.742V62.1578H372.317ZM427.428 42.1642V120H412.781V42.1642H427.428ZM451.592 42.1642V53.7648H388.885V42.1642H451.592ZM494.835 106.261V62.1578H509.055V120H495.691L494.835 106.261ZM496.653 94.2864L501.037 94.1795C501.037 98.0641 500.609 101.646 499.754 104.925C498.898 108.203 497.562 111.055 495.744 113.478C493.962 115.866 491.699 117.737 488.955 119.091C486.211 120.41 482.968 121.069 479.226 121.069C476.374 121.069 473.773 120.677 471.421 119.893C469.068 119.073 467.037 117.808 465.326 116.098C463.651 114.351 462.35 112.124 461.424 109.415C460.497 106.671 460.034 103.374 460.034 99.5253V62.1578H474.147V99.6323C474.147 101.557 474.361 103.161 474.788 104.444C475.252 105.727 475.875 106.778 476.66 107.598C477.479 108.382 478.424 108.952 479.493 109.308C480.598 109.629 481.774 109.789 483.021 109.789C486.442 109.789 489.133 109.112 491.093 107.758C493.089 106.368 494.515 104.515 495.37 102.198C496.225 99.8461 496.653 97.2088 496.653 94.2864ZM553.315 62.1578V72.3149H520.171V62.1578H553.315ZM529.045 47.9378H543.211V103.321C543.211 105.032 543.443 106.35 543.906 107.277C544.37 108.203 545.064 108.827 545.991 109.148C546.918 109.469 548.023 109.629 549.306 109.629C550.232 109.629 551.087 109.576 551.872 109.469C552.656 109.362 553.315 109.255 553.85 109.148L553.903 119.733C552.727 120.125 551.39 120.445 549.894 120.695C548.432 120.944 546.775 121.069 544.922 121.069C541.75 121.069 538.97 120.535 536.582 119.465C534.195 118.361 532.341 116.596 531.023 114.173C529.704 111.714 529.045 108.471 529.045 104.444V47.9378ZM563.2 91.6669V90.5443C563.2 86.3032 563.806 82.4008 565.018 78.8369C566.23 75.2373 567.994 72.1189 570.31 69.4816C572.627 66.8443 575.46 64.7951 578.81 63.3339C582.16 61.837 585.974 61.0886 590.251 61.0886C594.599 61.0886 598.448 61.837 601.798 63.3339C605.183 64.7951 608.034 66.8443 610.351 69.4816C612.668 72.1189 614.432 75.2373 615.643 78.8369C616.855 82.4008 617.461 86.3032 617.461 90.5443V91.6669C617.461 95.8723 616.855 99.7748 615.643 103.374C614.432 106.938 612.668 110.057 610.351 112.73C608.034 115.367 605.201 117.416 601.851 118.877C598.501 120.339 594.67 121.069 590.357 121.069C586.081 121.069 582.25 120.339 578.864 118.877C575.478 117.416 572.627 115.367 570.31 112.73C567.994 110.057 566.23 106.938 565.018 103.374C563.806 99.7748 563.2 95.8723 563.2 91.6669ZM577.314 90.5443V91.6669C577.314 94.1973 577.563 96.5673 578.062 98.7769C578.561 100.987 579.327 102.929 580.361 104.604C581.394 106.279 582.731 107.598 584.37 108.56C586.045 109.486 588.041 109.95 590.357 109.95C592.638 109.95 594.599 109.486 596.238 108.56C597.877 107.598 599.214 106.279 600.247 104.604C601.316 102.929 602.101 100.987 602.6 98.7769C603.098 96.5673 603.348 94.1973 603.348 91.6669V90.5443C603.348 88.0496 603.098 85.7152 602.6 83.5412C602.101 81.3316 601.316 79.3893 600.247 77.7142C599.214 76.0035 597.86 74.6671 596.184 73.7048C594.545 72.7069 592.567 72.208 590.251 72.208C587.97 72.208 586.01 72.7069 584.37 73.7048C582.731 74.6671 581.394 76.0035 580.361 77.7142C579.327 79.3893 578.561 81.3316 578.062 83.5412C577.563 85.7152 577.314 88.0496 577.314 90.5443ZM646.217 73.9721V120H632.104V62.1578H645.469L646.217 73.9721ZM663.805 61.7836L663.592 74.9344C662.807 74.7918 661.917 74.6849 660.919 74.6136C659.956 74.5423 659.048 74.5067 658.192 74.5067C656.018 74.5067 654.112 74.8096 652.472 75.4155C650.833 75.9857 649.461 76.8232 648.356 77.9281C647.287 79.0329 646.467 80.3872 645.897 81.9909C645.327 83.559 645.006 85.341 644.934 87.3368L641.887 86.9626C641.887 83.2917 642.262 79.8882 643.01 76.752C643.758 73.6157 644.845 70.8715 646.271 68.5193C647.697 66.1672 649.478 64.3496 651.617 63.0666C653.791 61.7479 656.286 61.0886 659.101 61.0886C659.885 61.0886 660.723 61.1599 661.614 61.3024C662.54 61.4093 663.271 61.5697 663.805 61.7836Z"/>
</mask>
<path d="M227.884 74.2929V85.8399H186.935V74.2929H227.884ZM190.945 42.1642V120H176.243V42.1642H190.945ZM238.79 42.1642V120H224.089V42.1642H238.79ZM272.037 62.1578V120H257.87V62.1578H272.037ZM256.908 47.029C256.908 44.9263 257.621 43.1799 259.047 41.79C260.508 40.4001 262.468 39.7051 264.927 39.7051C267.386 39.7051 269.328 40.4001 270.754 41.79C272.215 43.1799 272.946 44.9263 272.946 47.029C272.946 49.096 272.215 50.8245 270.754 52.2145C269.328 53.6044 267.386 54.2993 264.927 54.2993C262.468 54.2993 260.508 53.6044 259.047 52.2145C257.621 50.8245 256.908 49.096 256.908 47.029ZM308.385 120H294.165V56.8119C294.165 52.4639 295.002 48.8109 296.677 45.8529C298.352 42.8592 300.74 40.5961 303.841 39.0636C306.941 37.5312 310.594 36.7649 314.8 36.7649C316.19 36.7649 317.508 36.854 318.756 37.0322C320.039 37.2104 321.304 37.4599 322.551 37.7806L322.284 48.5258C321.607 48.3476 320.858 48.2229 320.039 48.1516C319.255 48.0803 318.381 48.0447 317.419 48.0447C315.495 48.0447 313.855 48.3833 312.501 49.0604C311.147 49.7375 310.113 50.7354 309.4 52.0541C308.723 53.3371 308.385 54.923 308.385 56.8119V120ZM320.092 62.1578V72.3149H285.451V62.1578H320.092ZM378.518 108.881V120H335.003V108.881H378.518ZM377.502 70.6042L340.295 120H330.993V111.286L367.987 62.1578H377.502V70.6042ZM372.317 62.1578V73.3306H331.742V62.1578H372.317ZM427.428 42.1642V120H412.781V42.1642H427.428ZM451.592 42.1642V53.7648H388.885V42.1642H451.592ZM494.835 106.261V62.1578H509.055V120H495.691L494.835 106.261ZM496.653 94.2864L501.037 94.1795C501.037 98.0641 500.609 101.646 499.754 104.925C498.898 108.203 497.562 111.055 495.744 113.478C493.962 115.866 491.699 117.737 488.955 119.091C486.211 120.41 482.968 121.069 479.226 121.069C476.374 121.069 473.773 120.677 471.421 119.893C469.068 119.073 467.037 117.808 465.326 116.098C463.651 114.351 462.35 112.124 461.424 109.415C460.497 106.671 460.034 103.374 460.034 99.5253V62.1578H474.147V99.6323C474.147 101.557 474.361 103.161 474.788 104.444C475.252 105.727 475.875 106.778 476.66 107.598C477.479 108.382 478.424 108.952 479.493 109.308C480.598 109.629 481.774 109.789 483.021 109.789C486.442 109.789 489.133 109.112 491.093 107.758C493.089 106.368 494.515 104.515 495.37 102.198C496.225 99.8461 496.653 97.2088 496.653 94.2864ZM553.315 62.1578V72.3149H520.171V62.1578H553.315ZM529.045 47.9378H543.211V103.321C543.211 105.032 543.443 106.35 543.906 107.277C544.37 108.203 545.064 108.827 545.991 109.148C546.918 109.469 548.023 109.629 549.306 109.629C550.232 109.629 551.087 109.576 551.872 109.469C552.656 109.362 553.315 109.255 553.85 109.148L553.903 119.733C552.727 120.125 551.39 120.445 549.894 120.695C548.432 120.944 546.775 121.069 544.922 121.069C541.75 121.069 538.97 120.535 536.582 119.465C534.195 118.361 532.341 116.596 531.023 114.173C529.704 111.714 529.045 108.471 529.045 104.444V47.9378ZM563.2 91.6669V90.5443C563.2 86.3032 563.806 82.4008 565.018 78.8369C566.23 75.2373 567.994 72.1189 570.31 69.4816C572.627 66.8443 575.46 64.7951 578.81 63.3339C582.16 61.837 585.974 61.0886 590.251 61.0886C594.599 61.0886 598.448 61.837 601.798 63.3339C605.183 64.7951 608.034 66.8443 610.351 69.4816C612.668 72.1189 614.432 75.2373 615.643 78.8369C616.855 82.4008 617.461 86.3032 617.461 90.5443V91.6669C617.461 95.8723 616.855 99.7748 615.643 103.374C614.432 106.938 612.668 110.057 610.351 112.73C608.034 115.367 605.201 117.416 601.851 118.877C598.501 120.339 594.67 121.069 590.357 121.069C586.081 121.069 582.25 120.339 578.864 118.877C575.478 117.416 572.627 115.367 570.31 112.73C567.994 110.057 566.23 106.938 565.018 103.374C563.806 99.7748 563.2 95.8723 563.2 91.6669ZM577.314 90.5443V91.6669C577.314 94.1973 577.563 96.5673 578.062 98.7769C578.561 100.987 579.327 102.929 580.361 104.604C581.394 106.279 582.731 107.598 584.37 108.56C586.045 109.486 588.041 109.95 590.357 109.95C592.638 109.95 594.599 109.486 596.238 108.56C597.877 107.598 599.214 106.279 600.247 104.604C601.316 102.929 602.101 100.987 602.6 98.7769C603.098 96.5673 603.348 94.1973 603.348 91.6669V90.5443C603.348 88.0496 603.098 85.7152 602.6 83.5412C602.101 81.3316 601.316 79.3893 600.247 77.7142C599.214 76.0035 597.86 74.6671 596.184 73.7048C594.545 72.7069 592.567 72.208 590.251 72.208C587.97 72.208 586.01 72.7069 584.37 73.7048C582.731 74.6671 581.394 76.0035 580.361 77.7142C579.327 79.3893 578.561 81.3316 578.062 83.5412C577.563 85.7152 577.314 88.0496 577.314 90.5443ZM646.217 73.9721V120H632.104V62.1578H645.469L646.217 73.9721ZM663.805 61.7836L663.592 74.9344C662.807 74.7918 661.917 74.6849 660.919 74.6136C659.956 74.5423 659.048 74.5067 658.192 74.5067C656.018 74.5067 654.112 74.8096 652.472 75.4155C650.833 75.9857 649.461 76.8232 648.356 77.9281C647.287 79.0329 646.467 80.3872 645.897 81.9909C645.327 83.559 645.006 85.341 644.934 87.3368L641.887 86.9626C641.887 83.2917 642.262 79.8882 643.01 76.752C643.758 73.6157 644.845 70.8715 646.271 68.5193C647.697 66.1672 649.478 64.3496 651.617 63.0666C653.791 61.7479 656.286 61.0886 659.101 61.0886C659.885 61.0886 660.723 61.1599 661.614 61.3024C662.54 61.4093 663.271 61.5697 663.805 61.7836Z" fill="black"/>
<path d="M227.884 74.2929H230.074V72.1032H227.884V74.2929ZM227.884 85.8399V88.0296H230.074V85.8399H227.884ZM186.935 85.8399H184.745V88.0296H186.935V85.8399ZM186.935 74.2929V72.1032H184.745V74.2929H186.935ZM190.945 42.1642H193.134V39.9746H190.945V42.1642ZM190.945 120V122.19H193.134V120H190.945ZM176.243 120H174.054V122.19H176.243V120ZM176.243 42.1642V39.9746H174.054V42.1642H176.243ZM238.79 42.1642H240.98V39.9746H238.79V42.1642ZM238.79 120V122.19H240.98V120H238.79ZM224.089 120H221.899V122.19H224.089V120ZM224.089 42.1642V39.9746H221.899V42.1642H224.089ZM227.884 74.2929H225.695V85.8399H227.884H230.074V74.2929H227.884ZM227.884 85.8399V83.6503H186.935V85.8399V88.0296H227.884V85.8399ZM186.935 85.8399H189.125V74.2929H186.935H184.745V85.8399H186.935ZM186.935 74.2929V76.4825H227.884V74.2929V72.1032H186.935V74.2929ZM190.945 42.1642H188.755V120H190.945H193.134V42.1642H190.945ZM190.945 120V117.81H176.243V120V122.19H190.945V120ZM176.243 120H178.433V42.1642H176.243H174.054V120H176.243ZM176.243 42.1642V44.3539H190.945V42.1642V39.9746H176.243V42.1642ZM238.79 42.1642H236.6V120H238.79H240.98V42.1642H238.79ZM238.79 120V117.81H224.089V120V122.19H238.79V120ZM224.089 120H226.279V42.1642H224.089H221.899V120H224.089ZM224.089 42.1642V44.3539H238.79V42.1642V39.9746H224.089V42.1642ZM272.037 62.1578H274.227V59.9681H272.037V62.1578ZM272.037 120V122.19H274.227V120H272.037ZM257.87 120H255.681V122.19H257.87V120ZM257.87 62.1578V59.9681H255.681V62.1578H257.87ZM259.047 41.79L257.537 40.2035L257.528 40.2128L257.518 40.2222L259.047 41.79ZM270.754 41.79L269.225 43.3578L269.235 43.3673L269.245 43.3766L270.754 41.79ZM270.754 52.2145L269.245 50.6279L269.235 50.6372L269.225 50.6467L270.754 52.2145ZM259.047 52.2145L257.518 53.7823L257.528 53.7917L257.537 53.801L259.047 52.2145ZM272.037 62.1578H269.847V120H272.037H274.227V62.1578H272.037ZM272.037 120V117.81H257.87V120V122.19H272.037V120ZM257.87 120H260.06V62.1578H257.87H255.681V120H257.87ZM257.87 62.1578V64.3474H272.037V62.1578V59.9681H257.87V62.1578ZM256.908 47.029H259.098C259.098 45.4797 259.598 44.3105 260.575 43.3578L259.047 41.79L257.518 40.2222C255.644 42.0494 254.719 44.3729 254.719 47.029H256.908ZM259.047 41.79L260.556 43.3766C261.524 42.4551 262.899 41.8948 264.927 41.8948V39.7051V37.5155C262.036 37.5155 259.491 38.3451 257.537 40.2035L259.047 41.79ZM264.927 39.7051V41.8948C266.957 41.8948 268.3 42.4557 269.225 43.3578L270.754 41.79L272.283 40.2222C270.357 38.3445 267.815 37.5155 264.927 37.5155V39.7051ZM270.754 41.79L269.245 43.3766C270.251 44.3337 270.756 45.4972 270.756 47.029H272.946H275.135C275.135 44.3553 274.179 42.0262 272.263 40.2035L270.754 41.79ZM272.946 47.029H270.756C270.756 48.5132 270.259 49.6628 269.245 50.6279L270.754 52.2145L272.263 53.801C274.171 51.9862 275.135 49.6788 275.135 47.029H272.946ZM270.754 52.2145L269.225 50.6467C268.3 51.5487 266.957 52.1097 264.927 52.1097V54.2993V56.489C267.815 56.489 270.357 55.66 272.283 53.7823L270.754 52.2145ZM264.927 54.2993V52.1097C262.899 52.1097 261.524 51.5493 260.556 50.6279L259.047 52.2145L257.537 53.801C259.491 55.6594 262.036 56.489 264.927 56.489V54.2993ZM259.047 52.2145L260.575 50.6467C259.59 49.6862 259.098 48.531 259.098 47.029H256.908H254.719C254.719 49.6611 255.652 51.9629 257.518 53.7823L259.047 52.2145ZM308.385 120V122.19H310.574V120H308.385ZM294.165 120H291.975V122.19H294.165V120ZM296.677 45.8529L298.583 46.9318L298.588 46.9221L296.677 45.8529ZM318.756 37.0322L318.446 39.1999L318.454 39.2011L318.756 37.0322ZM322.551 37.7806L324.74 37.8351L324.783 36.0937L323.096 35.6599L322.551 37.7806ZM322.284 48.5258L321.727 50.6434L324.404 51.348L324.473 48.5803L322.284 48.5258ZM320.039 48.1516L319.84 50.3323L319.849 50.333L320.039 48.1516ZM309.4 52.0541L307.474 51.0129L307.469 51.0224L307.464 51.032L309.4 52.0541ZM320.092 62.1578H322.282V59.9681H320.092V62.1578ZM320.092 72.3149V74.5046H322.282V72.3149H320.092ZM285.451 72.3149H283.261V74.5046H285.451V72.3149ZM285.451 62.1578V59.9681H283.261V62.1578H285.451ZM308.385 120V117.81H294.165V120V122.19H308.385V120ZM294.165 120H296.354V56.8119H294.165H291.975V120H294.165ZM294.165 56.8119H296.354C296.354 52.7388 297.139 49.4813 298.583 46.9318L296.677 45.8529L294.772 44.7739C292.865 48.1406 291.975 52.1891 291.975 56.8119H294.165ZM296.677 45.8529L298.588 46.9221C300.045 44.3179 302.103 42.3648 304.811 41.0266L303.841 39.0636L302.87 37.1006C299.377 38.8275 296.659 41.4005 294.766 44.7837L296.677 45.8529ZM303.841 39.0636L304.811 41.0266C307.552 39.672 310.859 38.9546 314.8 38.9546V36.7649V34.5752C310.329 34.5752 306.331 35.3903 302.87 37.1006L303.841 39.0636ZM314.8 36.7649V38.9546C316.096 38.9546 317.311 39.0377 318.446 39.1999L318.756 37.0322L319.065 34.8645C317.705 34.6703 316.283 34.5752 314.8 34.5752V36.7649ZM318.756 37.0322L318.454 39.2011C319.656 39.3679 320.839 39.6013 322.006 39.9013L322.551 37.7806L323.096 35.6599C321.768 35.3184 320.422 35.0529 319.057 34.8634L318.756 37.0322ZM322.551 37.7806L320.362 37.7262L320.095 48.4714L322.284 48.5258L324.473 48.5803L324.74 37.8351L322.551 37.7806ZM322.284 48.5258L322.841 46.4082C322.025 46.1934 321.151 46.0504 320.228 45.9702L320.039 48.1516L319.849 50.333C320.565 50.3953 321.189 50.5018 321.727 50.6434L322.284 48.5258ZM320.039 48.1516L320.237 45.9709C319.374 45.8925 318.434 45.855 317.419 45.855V48.0447V50.2343C318.329 50.2343 319.135 50.2681 319.84 50.3323L320.039 48.1516ZM317.419 48.0447V45.855C315.244 45.855 313.251 46.2372 311.522 47.1019L312.501 49.0604L313.48 51.0189C314.459 50.5293 315.745 50.2343 317.419 50.2343V48.0447ZM312.501 49.0604L311.522 47.1019C309.769 47.9781 308.403 49.2942 307.474 51.0129L309.4 52.0541L311.327 53.0953C311.823 52.1767 312.524 51.497 313.48 51.0189L312.501 49.0604ZM309.4 52.0541L307.464 51.032C306.578 52.7108 306.195 54.6709 306.195 56.8119H308.385H310.574C310.574 55.1751 310.869 53.9634 311.337 53.0761L309.4 52.0541ZM308.385 56.8119H306.195V120H308.385H310.574V56.8119H308.385ZM320.092 62.1578H317.902V72.3149H320.092H322.282V62.1578H320.092ZM320.092 72.3149V70.1252H285.451V72.3149V74.5046H320.092V72.3149ZM285.451 72.3149H287.64V62.1578H285.451H283.261V72.3149H285.451ZM285.451 62.1578V64.3474H320.092V62.1578V59.9681H285.451V62.1578ZM378.518 108.881H380.708V106.691H378.518V108.881ZM378.518 120V122.19H380.708V120H378.518ZM335.003 120H332.813V122.19H335.003V120ZM335.003 108.881V106.691H332.813V108.881H335.003ZM377.502 70.6042L379.251 71.9217L379.692 71.3366V70.6042H377.502ZM340.295 120V122.19H341.387L342.044 121.317L340.295 120ZM330.993 120H328.804V122.19H330.993V120ZM330.993 111.286L329.244 109.969L328.804 110.554V111.286H330.993ZM367.987 62.1578V59.9681H366.894L366.237 60.8406L367.987 62.1578ZM377.502 62.1578H379.692V59.9681H377.502V62.1578ZM372.317 62.1578H374.506V59.9681H372.317V62.1578ZM372.317 73.3306V75.5203H374.506V73.3306H372.317ZM331.742 73.3306H329.552V75.5203H331.742V73.3306ZM331.742 62.1578V59.9681H329.552V62.1578H331.742ZM378.518 108.881H376.328V120H378.518H380.708V108.881H378.518ZM378.518 120V117.81H335.003V120V122.19H378.518V120ZM335.003 120H337.192V108.881H335.003H332.813V120H335.003ZM335.003 108.881V111.07H378.518V108.881V106.691H335.003V108.881ZM377.502 70.6042L375.753 69.2868L338.546 118.683L340.295 120L342.044 121.317L379.251 71.9217L377.502 70.6042ZM340.295 120V117.81H330.993V120V122.19H340.295V120ZM330.993 120H333.183V111.286H330.993H328.804V120H330.993ZM330.993 111.286L332.743 112.603L369.736 63.4749L367.987 62.1578L366.237 60.8406L329.244 109.969L330.993 111.286ZM367.987 62.1578V64.3474H377.502V62.1578V59.9681H367.987V62.1578ZM377.502 62.1578H375.313V70.6042H377.502H379.692V62.1578H377.502ZM372.317 62.1578H370.127V73.3306H372.317H374.506V62.1578H372.317ZM372.317 73.3306V71.1409H331.742V73.3306V75.5203H372.317V73.3306ZM331.742 73.3306H333.931V62.1578H331.742H329.552V73.3306H331.742ZM331.742 62.1578V64.3474H372.317V62.1578V59.9681H331.742V62.1578ZM427.428 42.1642H429.618V39.9746H427.428V42.1642ZM427.428 120V122.19H429.618V120H427.428ZM412.781 120H410.591V122.19H412.781V120ZM412.781 42.1642V39.9746H410.591V42.1642H412.781ZM451.592 42.1642H453.781V39.9746H451.592V42.1642ZM451.592 53.7648V55.9544H453.781V53.7648H451.592ZM388.885 53.7648H386.695V55.9544H388.885V53.7648ZM388.885 42.1642V39.9746H386.695V42.1642H388.885ZM427.428 42.1642H425.239V120H427.428H429.618V42.1642H427.428ZM427.428 120V117.81H412.781V120V122.19H427.428V120ZM412.781 120H414.97V42.1642H412.781H410.591V120H412.781ZM412.781 42.1642V44.3539H427.428V42.1642V39.9746H412.781V42.1642ZM451.592 42.1642H449.402V53.7648H451.592H453.781V42.1642H451.592ZM451.592 53.7648V51.5751H388.885V53.7648V55.9544H451.592V53.7648ZM388.885 53.7648H391.074V42.1642H388.885H386.695V53.7648H388.885ZM388.885 42.1642V44.3539H451.592V42.1642V39.9746H388.885V42.1642ZM494.835 106.261H492.646V106.329L492.65 106.397L494.835 106.261ZM494.835 62.1578V59.9681H492.646V62.1578H494.835ZM509.055 62.1578H511.245V59.9681H509.055V62.1578ZM509.055 120V122.19H511.245V120H509.055ZM495.691 120L493.505 120.136L493.633 122.19H495.691V120ZM496.653 94.2864L496.6 92.0974L494.463 92.1495V94.2864H496.653ZM501.037 94.1795H503.226V91.9358L500.983 91.9905L501.037 94.1795ZM495.744 113.478L493.993 112.164L493.989 112.168L495.744 113.478ZM488.955 119.091L489.903 121.065L489.914 121.06L489.924 121.055L488.955 119.091ZM471.421 119.893L470.7 121.961L470.714 121.966L470.728 121.97L471.421 119.893ZM465.326 116.098L463.746 117.613L463.762 117.63L463.778 117.646L465.326 116.098ZM461.424 109.415L459.349 110.116L459.352 110.124L461.424 109.415ZM460.034 62.1578V59.9681H457.844V62.1578H460.034ZM474.147 62.1578H476.337V59.9681H474.147V62.1578ZM474.788 104.444L472.711 105.136L472.72 105.162L472.729 105.187L474.788 104.444ZM476.66 107.598L475.077 109.111L475.111 109.146L475.146 109.18L476.66 107.598ZM479.493 109.308L478.8 111.386L478.841 111.399L478.882 111.411L479.493 109.308ZM491.093 107.758L492.338 109.559L492.345 109.555L491.093 107.758ZM495.37 102.198L497.424 102.957L497.428 102.947L495.37 102.198ZM494.835 106.261H497.025V62.1578H494.835H492.646V106.261H494.835ZM494.835 62.1578V64.3474H509.055V62.1578V59.9681H494.835V62.1578ZM509.055 62.1578H506.866V120H509.055H511.245V62.1578H509.055ZM509.055 120V117.81H495.691V120V122.19H509.055V120ZM495.691 120L497.876 119.864L497.021 106.125L494.835 106.261L492.65 106.397L493.505 120.136L495.691 120ZM496.653 94.2864L496.706 96.4754L501.09 96.3685L501.037 94.1795L500.983 91.9905L496.6 92.0974L496.653 94.2864ZM501.037 94.1795H498.847C498.847 97.9043 498.437 101.298 497.635 104.372L499.754 104.925L501.872 105.477C502.781 101.994 503.226 98.224 503.226 94.1795H501.037ZM499.754 104.925L497.635 104.372C496.843 107.408 495.62 109.994 493.993 112.164L495.744 113.478L497.496 114.792C499.503 112.115 500.954 108.999 501.872 105.477L499.754 104.925ZM495.744 113.478L493.989 112.168C492.42 114.272 490.429 115.922 487.986 117.128L488.955 119.091L489.924 121.055C492.969 119.552 495.505 117.46 497.499 114.788L495.744 113.478ZM488.955 119.091L488.007 117.118C485.618 118.265 482.713 118.88 479.226 118.88V121.069V123.259C483.222 123.259 486.803 122.554 489.903 121.065L488.955 119.091ZM479.226 121.069V118.88C476.575 118.88 474.211 118.515 472.113 117.816L471.421 119.893L470.728 121.97C473.334 122.839 476.174 123.259 479.226 123.259V121.069ZM471.421 119.893L472.141 117.825C470.091 117.111 468.345 116.02 466.875 114.549L465.326 116.098L463.778 117.646C465.729 119.597 468.046 121.036 470.7 121.961L471.421 119.893ZM465.326 116.098L466.907 114.582C465.489 113.104 464.338 111.168 463.496 108.706L461.424 109.415L459.352 110.124C460.363 113.079 461.814 115.599 463.746 117.613L465.326 116.098ZM461.424 109.415L463.498 108.715C462.668 106.257 462.224 103.21 462.224 99.5253H460.034H457.844C457.844 103.539 458.326 107.085 459.349 110.116L461.424 109.415ZM460.034 99.5253H462.224V62.1578H460.034H457.844V99.5253H460.034ZM460.034 62.1578V64.3474H474.147V62.1578V59.9681H460.034V62.1578ZM474.147 62.1578H471.957V99.6323H474.147H476.337V62.1578H474.147ZM474.147 99.6323H471.957C471.957 101.701 472.185 103.557 472.711 105.136L474.788 104.444L476.866 103.751C476.537 102.764 476.337 101.412 476.337 99.6323H474.147ZM474.788 104.444L472.729 105.187C473.275 106.7 474.044 108.031 475.077 109.111L476.66 107.598L478.242 106.084C477.707 105.525 477.228 104.753 476.848 103.7L474.788 104.444ZM476.66 107.598L475.146 109.18C476.198 110.186 477.422 110.926 478.8 111.386L479.493 109.308L480.185 107.231C479.425 106.978 478.761 106.577 478.173 106.015L476.66 107.598ZM479.493 109.308L478.882 111.411C480.201 111.794 481.584 111.979 483.021 111.979V109.789V107.6C481.963 107.6 480.994 107.464 480.103 107.205L479.493 109.308ZM483.021 109.789V111.979C486.701 111.979 489.884 111.255 492.338 109.559L491.093 107.758L489.849 105.956C488.382 106.97 486.183 107.6 483.021 107.6V109.789ZM491.093 107.758L492.345 109.555C494.714 107.905 496.416 105.686 497.424 102.957L495.37 102.198L493.316 101.44C492.613 103.343 491.464 104.831 489.842 105.961L491.093 107.758ZM495.37 102.198L497.428 102.947C498.384 100.318 498.843 97.4221 498.843 94.2864H496.653H494.463C494.463 96.9955 494.067 99.3741 493.312 101.45L495.37 102.198ZM553.315 62.1578H555.505V59.9681H553.315V62.1578ZM553.315 72.3149V74.5046H555.505V72.3149H553.315ZM520.171 72.3149H517.981V74.5046H520.171V72.3149ZM520.171 62.1578V59.9681H517.981V62.1578H520.171ZM529.045 47.9378V45.7481H526.855V47.9378H529.045ZM543.211 47.9378H545.401V45.7481H543.211V47.9378ZM553.85 109.148L556.039 109.137L556.026 106.48L553.42 107.001L553.85 109.148ZM553.903 119.733L554.595 121.81L556.101 121.308L556.093 119.722L553.903 119.733ZM549.894 120.695L549.534 118.535L549.525 118.537L549.894 120.695ZM536.582 119.465L535.663 121.453L535.675 121.458L535.688 121.464L536.582 119.465ZM531.023 114.173L529.093 115.208L529.099 115.22L531.023 114.173ZM553.315 62.1578H551.125V72.3149H553.315H555.505V62.1578H553.315ZM553.315 72.3149V70.1252H520.171V72.3149V74.5046H553.315V72.3149ZM520.171 72.3149H522.36V62.1578H520.171H517.981V72.3149H520.171ZM520.171 62.1578V64.3474H553.315V62.1578V59.9681H520.171V62.1578ZM529.045 47.9378V50.1274H543.211V47.9378V45.7481H529.045V47.9378ZM543.211 47.9378H541.022V103.321H543.211H545.401V47.9378H543.211ZM543.211 103.321H541.022C541.022 105.177 541.264 106.889 541.948 108.256L543.906 107.277L545.865 106.298C545.622 105.811 545.401 104.887 545.401 103.321H543.211ZM543.906 107.277L541.948 108.256C542.651 109.662 543.775 110.698 545.275 111.217L545.991 109.148L546.707 107.079C546.354 106.956 546.088 106.745 545.865 106.298L543.906 107.277ZM545.991 109.148L545.275 111.217C546.49 111.638 547.85 111.819 549.306 111.819V109.629V107.439C548.195 107.439 547.345 107.299 546.707 107.079L545.991 109.148ZM549.306 109.629V111.819C550.315 111.819 551.27 111.761 552.167 111.638L551.872 109.469L551.576 107.299C550.905 107.391 550.149 107.439 549.306 107.439V109.629ZM551.872 109.469L552.167 111.638C552.978 111.528 553.685 111.414 554.279 111.295L553.85 109.148L553.42 107.001C552.945 107.096 552.333 107.196 551.576 107.299L551.872 109.469ZM553.85 109.148L551.66 109.159L551.713 119.744L553.903 119.733L556.093 119.722L556.039 109.137L553.85 109.148ZM553.903 119.733L553.211 117.655C552.164 118.004 550.942 118.3 549.534 118.535L549.894 120.695L550.254 122.855C551.839 122.591 553.29 122.245 554.595 121.81L553.903 119.733ZM549.894 120.695L549.525 118.537C548.211 118.761 546.681 118.88 544.922 118.88V121.069V123.259C546.869 123.259 548.653 123.128 550.262 122.853L549.894 120.695ZM544.922 121.069V118.88C541.994 118.88 539.53 118.386 537.477 117.467L536.582 119.465L535.688 121.464C538.41 122.683 541.506 123.259 544.922 123.259V121.069ZM536.582 119.465L537.502 117.478C535.563 116.581 534.051 115.158 532.946 113.126L531.023 114.173L529.099 115.22C530.631 118.035 532.826 120.14 535.663 121.453L536.582 119.465ZM531.023 114.173L532.952 113.138C531.863 111.107 531.234 108.259 531.234 104.444H529.045H526.855C526.855 108.682 527.545 112.321 529.093 115.208L531.023 114.173ZM529.045 104.444H531.234V47.9378H529.045H526.855V104.444H529.045ZM565.018 78.8369L567.091 79.5417L567.093 79.5354L565.018 78.8369ZM578.81 63.3339L579.686 65.3409L579.695 65.337L579.704 65.333L578.81 63.3339ZM601.798 63.3339L600.904 65.333L600.917 65.3387L600.93 65.3443L601.798 63.3339ZM615.643 78.8369L613.568 79.5355L613.57 79.5417L615.643 78.8369ZM615.643 103.374L617.717 104.079L617.719 104.073L615.643 103.374ZM610.351 112.73L611.996 114.175L612.001 114.169L612.006 114.164L610.351 112.73ZM570.31 112.73L568.656 114.164L568.661 114.169L568.665 114.175L570.31 112.73ZM565.018 103.374L562.943 104.073L562.945 104.079L565.018 103.374ZM584.37 108.56L583.262 110.448L583.286 110.462L583.31 110.476L584.37 108.56ZM596.238 108.56L597.315 110.466L597.331 110.457L597.346 110.448L596.238 108.56ZM600.247 104.604L598.402 103.426L598.393 103.44L598.384 103.454L600.247 104.604ZM602.6 83.5412L600.464 84.0235L600.465 84.031L602.6 83.5412ZM600.247 77.7142L598.373 78.8465L598.387 78.8696L598.402 78.8923L600.247 77.7142ZM596.184 73.7048L595.046 75.5752L595.07 75.5897L595.094 75.6035L596.184 73.7048ZM584.37 73.7048L585.479 75.5932L585.494 75.5844L585.509 75.5752L584.37 73.7048ZM580.361 77.7142L582.224 78.864L582.23 78.8553L582.235 78.8465L580.361 77.7142ZM578.062 83.5412L580.196 84.031L580.198 84.0235L578.062 83.5412ZM563.2 91.6669H565.39V90.5443H563.2H561.011V91.6669H563.2ZM563.2 90.5443H565.39C565.39 86.513 565.966 82.8519 567.091 79.5417L565.018 78.8369L562.945 78.132C561.647 81.9497 561.011 86.0935 561.011 90.5443H563.2ZM565.018 78.8369L567.093 79.5354C568.22 76.188 569.846 73.3287 571.956 70.9266L570.31 69.4816L568.665 68.0365C566.142 70.909 564.239 74.2866 562.943 78.1383L565.018 78.8369ZM570.31 69.4816L571.956 70.9266C574.051 68.5409 576.618 66.679 579.686 65.3409L578.81 63.3339L577.935 61.3268C574.303 62.9111 571.203 65.1477 568.665 68.0365L570.31 69.4816ZM578.81 63.3339L579.704 65.333C582.73 63.9809 586.231 63.2783 590.251 63.2783V61.0886V58.8989C585.717 58.8989 581.591 59.6932 577.917 61.3347L578.81 63.3339ZM590.251 61.0886V63.2783C594.347 63.2783 597.882 63.9828 600.904 65.333L601.798 63.3339L602.691 61.3347C599.013 59.6912 594.85 58.8989 590.251 58.8989V61.0886ZM601.798 63.3339L600.93 65.3443C604.033 66.6836 606.614 68.5454 608.706 70.9266L610.351 69.4816L611.996 68.0365C609.455 65.1432 606.333 62.9065 602.665 61.3234L601.798 63.3339ZM610.351 69.4816L608.706 70.9266C610.816 73.3287 612.441 76.188 613.568 79.5354L615.643 78.8369L617.719 78.1383C616.422 74.2866 614.519 70.909 611.996 68.0365L610.351 69.4816ZM615.643 78.8369L613.57 79.5417C614.696 82.8519 615.271 86.513 615.271 90.5443H617.461H619.651C619.651 86.0935 619.015 81.9497 617.717 78.132L615.643 78.8369ZM617.461 90.5443H615.271V91.6669H617.461H619.651V90.5443H617.461ZM617.461 91.6669H615.271C615.271 95.6601 614.696 99.3241 613.568 102.676L615.643 103.374L617.719 104.073C619.014 100.226 619.651 96.0846 619.651 91.6669H617.461ZM615.643 103.374L613.57 102.67C612.444 105.983 610.816 108.85 608.696 111.296L610.351 112.73L612.006 114.164C614.519 111.264 616.42 107.894 617.717 104.079L615.643 103.374ZM610.351 112.73L608.706 111.285C606.61 113.67 604.043 115.532 600.976 116.87L601.851 118.877L602.727 120.884C606.359 119.3 609.459 117.064 611.996 114.175L610.351 112.73ZM601.851 118.877L600.976 116.87C597.947 118.191 594.422 118.88 590.357 118.88V121.069V123.259C594.918 123.259 599.055 122.486 602.727 120.884L601.851 118.877ZM590.357 121.069V118.88C586.332 118.88 582.803 118.193 579.732 116.867L578.864 118.877L577.996 120.888C581.696 122.485 585.83 123.259 590.357 123.259V121.069ZM578.864 118.877L579.732 116.867C576.628 115.528 574.047 113.666 571.956 111.285L570.31 112.73L568.665 114.175C571.207 117.068 574.328 119.305 577.996 120.888L578.864 118.877ZM570.31 112.73L571.965 111.296C569.846 108.85 568.218 105.983 567.091 102.67L565.018 103.374L562.945 104.079C564.242 107.894 566.142 111.264 568.656 114.164L570.31 112.73ZM565.018 103.374L567.093 102.676C565.965 99.3241 565.39 95.6601 565.39 91.6669H563.2H561.011C561.011 96.0846 561.648 100.226 562.943 104.073L565.018 103.374ZM577.314 90.5443H575.124V91.6669H577.314H579.503V90.5443H577.314ZM577.314 91.6669H575.124C575.124 94.341 575.388 96.8741 575.926 99.2592L578.062 98.7769L580.198 98.2946C579.739 96.2605 579.503 94.0536 579.503 91.6669H577.314ZM578.062 98.7769L575.926 99.2592C576.47 101.67 577.319 103.844 578.497 105.754L580.361 104.604L582.224 103.454C581.335 102.013 580.651 100.303 580.198 98.2946L578.062 98.7769ZM580.361 104.604L578.497 105.754C579.712 107.722 581.303 109.299 583.262 110.448L584.37 108.56L585.479 106.671C584.158 105.897 583.077 104.836 582.224 103.454L580.361 104.604ZM584.37 108.56L583.31 110.476C585.371 111.616 587.748 112.139 590.357 112.139V109.95V107.76C588.334 107.76 586.719 107.357 585.43 106.644L584.37 108.56ZM590.357 109.95V112.139C592.937 112.139 595.284 111.614 597.315 110.466L596.238 108.56L595.16 106.654C593.913 107.359 592.34 107.76 590.357 107.76V109.95ZM596.238 108.56L597.346 110.448C599.305 109.299 600.897 107.722 602.111 105.754L600.247 104.604L598.384 103.454C597.531 104.836 596.45 105.897 595.13 106.671L596.238 108.56ZM600.247 104.604L602.093 105.782C603.316 103.866 604.188 101.682 604.735 99.2592L602.6 98.7769L600.464 98.2946C600.013 100.291 599.317 101.992 598.402 103.426L600.247 104.604ZM602.6 98.7769L604.735 99.2592C605.274 96.8741 605.538 94.341 605.538 91.6669H603.348H601.158C601.158 94.0536 600.923 96.2605 600.464 98.2946L602.6 98.7769ZM603.348 91.6669H605.538V90.5443H603.348H601.158V91.6669H603.348ZM603.348 90.5443H605.538C605.538 87.9039 605.274 85.4037 604.734 83.0514L602.6 83.5412L600.465 84.031C600.923 86.0267 601.158 88.1953 601.158 90.5443H603.348ZM602.6 83.5412L604.735 83.0589C604.188 80.6364 603.316 78.4522 602.093 76.5361L600.247 77.7142L598.402 78.8923C599.317 80.3263 600.013 82.0267 600.464 84.0235L602.6 83.5412ZM600.247 77.7142L602.121 76.5819C600.903 74.565 599.284 72.9599 597.275 71.8062L596.184 73.7048L595.094 75.6035C596.435 76.3743 597.525 77.4421 598.373 78.8465L600.247 77.7142ZM596.184 73.7048L597.323 71.8344C595.276 70.5882 592.885 70.0183 590.251 70.0183V72.208V74.3976C592.249 74.3976 593.815 74.8257 595.046 75.5752L596.184 73.7048ZM590.251 72.208V70.0183C587.644 70.0183 585.274 70.5913 583.232 71.8344L584.37 73.7048L585.509 75.5752C586.745 74.8226 588.295 74.3976 590.251 74.3976V72.208ZM584.37 73.7048L583.262 71.8164C581.292 72.9726 579.698 74.576 578.487 76.5819L580.361 77.7142L582.235 78.8465C583.09 77.4311 584.17 76.3615 585.479 75.5932L584.37 73.7048ZM580.361 77.7142L578.497 76.5644C577.319 78.4738 576.47 80.6483 575.926 83.0589L578.062 83.5412L580.198 84.0235C580.651 82.0149 581.335 80.3047 582.224 78.864L580.361 77.7142ZM578.062 83.5412L575.928 83.0514C575.388 85.4037 575.124 87.9039 575.124 90.5443H577.314H579.503C579.503 88.1953 579.738 86.0267 580.196 84.031L578.062 83.5412ZM646.217 73.9721H648.407V73.9028L648.403 73.8337L646.217 73.9721ZM646.217 120V122.19H648.407V120H646.217ZM632.104 120H629.915V122.19H632.104V120ZM632.104 62.1578V59.9681H629.915V62.1578H632.104ZM645.469 62.1578L647.654 62.0193L647.524 59.9681H645.469V62.1578ZM663.805 61.7836L665.995 61.8192L666.019 60.3108L664.619 59.7505L663.805 61.7836ZM663.592 74.9344L663.2 77.0887L665.739 77.5504L665.781 74.97L663.592 74.9344ZM660.919 74.6136L660.757 76.7973L660.763 76.7977L660.919 74.6136ZM652.472 75.4155L653.191 77.4836L653.211 77.4767L653.231 77.4694L652.472 75.4155ZM648.356 77.9281L646.808 76.3797L646.795 76.3924L646.782 76.4053L648.356 77.9281ZM645.897 81.9909L647.955 82.7392L647.957 82.7319L647.96 82.7245L645.897 81.9909ZM644.934 87.3368L644.668 89.5101L647.038 89.8012L647.123 87.4149L644.934 87.3368ZM641.887 86.9626H639.698V88.8998L641.62 89.1359L641.887 86.9626ZM651.617 63.0666L652.743 64.9442L652.752 64.9387L651.617 63.0666ZM661.614 61.3024L661.268 63.4646L661.315 63.4722L661.363 63.4777L661.614 61.3024ZM646.217 73.9721H644.028V120H646.217H648.407V73.9721H646.217ZM646.217 120V117.81H632.104V120V122.19H646.217V120ZM632.104 120H634.294V62.1578H632.104H629.915V120H632.104ZM632.104 62.1578V64.3474H645.469V62.1578V59.9681H632.104V62.1578ZM645.469 62.1578L643.284 62.2962L644.032 74.1106L646.217 73.9721L648.403 73.8337L647.654 62.0193L645.469 62.1578ZM663.805 61.7836L661.616 61.748L661.402 74.8988L663.592 74.9344L665.781 74.97L665.995 61.8192L663.805 61.7836ZM663.592 74.9344L663.983 72.78C663.105 72.6203 662.133 72.5051 661.075 72.4295L660.919 74.6136L660.763 76.7977C661.7 76.8647 662.51 76.9634 663.2 77.0887L663.592 74.9344ZM660.919 74.6136L661.08 72.4299C660.071 72.3552 659.108 72.317 658.192 72.317V74.5067V76.6964C658.987 76.6964 659.842 76.7295 660.757 76.7973L660.919 74.6136ZM658.192 74.5067V72.317C655.82 72.317 653.647 72.647 651.713 73.3616L652.472 75.4155L653.231 77.4694C654.576 76.9722 656.217 76.6964 658.192 76.6964V74.5067ZM652.472 75.4155L651.753 73.3474C649.836 74.014 648.171 75.0165 646.808 76.3797L648.356 77.9281L649.904 79.4764C650.751 78.63 651.829 77.9575 653.191 77.4836L652.472 75.4155ZM648.356 77.9281L646.782 76.4053C645.473 77.7582 644.497 79.3904 643.834 81.2574L645.897 81.9909L647.96 82.7245C648.437 81.3839 649.1 80.3075 649.929 79.4508L648.356 77.9281ZM645.897 81.9909L643.839 81.2426C643.177 83.0634 642.824 85.0776 642.746 87.2586L644.934 87.3368L647.123 87.4149C647.187 85.6043 647.476 84.0546 647.955 82.7392L645.897 81.9909ZM644.934 87.3368L645.201 85.1634L642.154 84.7892L641.887 86.9626L641.62 89.1359L644.668 89.5101L644.934 87.3368ZM641.887 86.9626H644.077C644.077 83.4398 644.436 80.2089 645.14 77.2602L643.01 76.752L640.88 76.2437C640.087 79.5675 639.698 83.1437 639.698 86.9626H641.887ZM643.01 76.752L645.14 77.2602C645.844 74.3078 646.854 71.782 648.144 69.6542L646.271 68.5193L644.398 67.3844C642.837 69.961 641.672 72.9236 640.88 76.2437L643.01 76.752ZM646.271 68.5193L648.144 69.6542C649.404 67.5747 650.941 66.0257 652.743 64.9442L651.617 63.0666L650.49 61.1889C648.016 62.6735 645.989 64.7596 644.398 67.3844L646.271 68.5193ZM651.617 63.0666L652.752 64.9387C654.548 63.8496 656.642 63.2783 659.101 63.2783V61.0886V58.8989C655.929 58.8989 653.034 59.6462 650.481 61.1944L651.617 63.0666ZM659.101 61.0886V63.2783C659.753 63.2783 660.474 63.3377 661.268 63.4646L661.614 61.3024L661.96 59.1403C660.971 58.9821 660.017 58.8989 659.101 58.8989V61.0886ZM661.614 61.3024L661.363 63.4777C662.2 63.5742 662.714 63.7054 662.992 63.8166L663.805 61.7836L664.619 59.7505C663.828 59.4341 662.881 59.2444 661.865 59.1272L661.614 61.3024Z" fill="black" mask="url(#path-4-outside-1_171_97)"/>
</svg>
