<svg width="271" height="201" viewBox="0 0 271 201" fill="none" xmlns="http://www.w3.org/2000/svg">
<path d="M146.152 197.132C113.486 166.774 95.0222 160.002 34.2344 157.433L33.9504 2.3752H95.8743C123.712 4.00984 143.199 18.9598 146.152 36.4693C149.105 53.9787 146.152 197.132 146.152 197.132Z" fill="white"/>
<path d="M122.039 199C97.6054 188.404 64.8572 180.619 39.3474 180.785H1V33.9005H23.7244V166.774L52.6997 167.5C96.4516 171.1 109.468 181.9 122.039 199Z" fill="white"/>
<path d="M270 151.128C219.681 151.446 194.884 159.344 158.935 191.646V37.6628C162.343 19.4482 183.931 4.71045 208.36 2.14168C232.789 -0.427097 270 2.14168 270 2.14168V151.128Z" fill="white"/>
<path d="M146.152 197.132C113.486 166.774 95.0222 160.002 34.2344 157.433L33.9504 2.3752H95.8743C123.712 4.00984 143.199 18.9598 146.152 36.4693C149.105 53.9787 146.152 197.132 146.152 197.132Z" stroke="black"/>
<path d="M122.039 199C97.6054 188.404 64.8572 180.619 39.3474 180.785H1V33.9005H23.7244V166.774L52.6997 167.5C96.4516 171.1 109.468 181.9 122.039 199Z" stroke="black"/>
<path d="M270 151.128C219.681 151.446 194.884 159.344 158.935 191.646V37.6628C162.343 19.4482 183.931 4.71045 208.36 2.14168C232.789 -0.427097 270 2.14168 270 2.14168V151.128Z" stroke="black"/>
</svg>
