<svg width="385" height="283" viewBox="0 0 385 283" fill="none" xmlns="http://www.w3.org/2000/svg">
<path d="M135.562 8.49023C173.657 10.7958 197.803 31.1571 201.326 52.1963C202.277 57.8716 202.82 74.8615 203.021 98.0049C203.218 120.837 203.086 148.947 202.822 176.301C202.558 203.648 202.162 230.21 201.832 249.938C201.714 257.004 201.603 263.193 201.511 268.226C182.517 251.571 165.69 240.371 144.947 232.926C121.797 224.617 94.2179 221.154 54.0625 219.241L53.6797 8.49023H135.562ZM26.0156 53.9268V245.271L32.3594 245.432L73.626 246.472C104.674 249.052 125.775 252.919 141.18 258.918C145.413 260.567 149.225 262.38 152.701 264.385C120.361 255.91 82.7015 252.432 54.8838 252.61H6.50879V53.9268H26.0156ZM297.465 8.11816C314.503 6.31401 336.206 6.30249 353.83 6.76367C362.604 6.99328 370.297 7.33702 375.793 7.62402C376.763 7.67468 377.665 7.72539 378.491 7.77148V209.939C345.338 210.479 319.41 213.62 295.609 222.161C273.811 229.984 254.175 242.2 232.549 260.435V53.4688C234.743 42.6814 242.32 32.3436 253.905 24.0869C265.642 15.7219 281.029 9.85862 297.465 8.11816Z" fill="#D3F501" stroke="black" stroke-width="13.017"/>
</svg>
