<svg width="973" height="210" viewBox="0 0 973 210" fill="none" xmlns="http://www.w3.org/2000/svg">
<mask id="path-1-outside-1_160_52" maskUnits="userSpaceOnUse" x="353" y="41" width="597" height="108" fill="black">
<rect fill="white" x="353" y="41" width="597" height="108"/>
<path d="M418.583 89.6177V103.609H368.965V89.6177H418.583ZM373.823 50.6881V145H356.01V50.6881H373.823ZM431.797 50.6881V145H413.984V50.6881H431.797ZM472.081 74.9138V145H454.916V74.9138H472.081ZM453.75 56.5826C453.75 54.0348 454.614 51.9188 456.341 50.2346C458.112 48.5505 460.487 47.7084 463.466 47.7084C466.446 47.7084 468.8 48.5505 470.527 50.2346C472.297 51.9188 473.183 54.0348 473.183 56.5826C473.183 59.0872 472.297 61.1816 470.527 62.8657C468.8 64.5498 466.446 65.3919 463.466 65.3919C460.487 65.3919 458.112 64.5498 456.341 62.8657C454.614 61.1816 453.75 59.0872 453.75 56.5826ZM516.123 145H498.893V68.4363C498.893 63.168 499.908 58.7417 501.937 55.1575C503.967 51.5301 506.86 48.788 510.617 46.9311C514.374 45.0743 518.8 44.1458 523.896 44.1458C525.58 44.1458 527.178 44.2538 528.689 44.4697C530.244 44.6856 531.777 44.9879 533.288 45.3765L532.964 58.3963C532.144 58.1803 531.237 58.0292 530.244 57.9428C529.294 57.8565 528.236 57.8133 527.07 57.8133C524.738 57.8133 522.752 58.2235 521.111 59.044C519.47 59.8645 518.217 61.0736 517.354 62.6714C516.533 64.226 516.123 66.1476 516.123 68.4363V145ZM530.309 74.9138V87.221H488.335V74.9138H530.309ZM601.102 131.527V145H548.376V131.527H601.102ZM599.872 85.1482L554.788 145H543.518V134.442L588.342 74.9138H599.872V85.1482ZM593.588 74.9138V88.4517H544.424V74.9138H593.588ZM660.366 50.6881V145H642.618V50.6881H660.366ZM689.644 50.6881V64.7442H613.663V50.6881H689.644ZM742.042 128.353V74.9138H759.272V145H743.078L742.042 128.353ZM744.244 113.843L749.556 113.714C749.556 118.421 749.037 122.761 748.001 126.734C746.965 130.706 745.345 134.161 743.143 137.098C740.984 139.991 738.242 142.258 734.916 143.899C731.591 145.497 727.662 146.296 723.127 146.296C719.673 146.296 716.52 145.82 713.67 144.87C710.82 143.877 708.359 142.344 706.286 140.271C704.256 138.155 702.68 135.457 701.557 132.175C700.435 128.85 699.873 124.855 699.873 120.191V74.9138H716.974V120.321C716.974 122.653 717.233 124.596 717.751 126.151C718.313 127.705 719.068 128.979 720.018 129.972C721.011 130.922 722.156 131.613 723.451 132.045C724.79 132.434 726.215 132.628 727.726 132.628C731.872 132.628 735.132 131.808 737.507 130.167C739.926 128.482 741.653 126.237 742.689 123.43C743.726 120.58 744.244 117.384 744.244 113.843ZM812.9 74.9138V87.221H772.74V74.9138H812.9ZM783.492 57.6837H800.658V124.79C800.658 126.863 800.938 128.461 801.5 129.584C802.061 130.706 802.903 131.462 804.026 131.851C805.149 132.239 806.487 132.434 808.042 132.434C809.165 132.434 810.201 132.369 811.151 132.239C812.101 132.11 812.9 131.98 813.548 131.851L813.613 144.676C812.187 145.151 810.568 145.54 808.754 145.842C806.984 146.144 804.976 146.296 802.73 146.296C798.887 146.296 795.519 145.648 792.626 144.352C789.732 143.014 787.487 140.876 785.889 137.94C784.291 134.96 783.492 131.03 783.492 126.151V57.6837ZM824.878 110.669V109.309C824.878 104.17 825.612 99.4418 827.08 95.1235C828.549 90.762 830.686 86.9835 833.493 83.7879C836.3 80.5924 839.733 78.1093 843.792 76.3388C847.852 74.5252 852.472 73.6183 857.654 73.6183C862.922 73.6183 867.586 74.5252 871.645 76.3388C875.748 78.1093 879.203 80.5924 882.009 83.7879C884.816 86.9835 886.954 90.762 888.422 95.1235C889.89 99.4418 890.624 104.17 890.624 109.309V110.669C890.624 115.765 889.89 120.494 888.422 124.855C886.954 129.173 884.816 132.952 882.009 136.191C879.203 139.386 875.769 141.869 871.71 143.64C867.651 145.41 863.009 146.296 857.784 146.296C852.602 146.296 847.96 145.41 843.857 143.64C839.755 141.869 836.3 139.386 833.493 136.191C830.686 132.952 828.549 129.173 827.08 124.855C825.612 120.494 824.878 115.765 824.878 110.669ZM841.979 109.309V110.669C841.979 113.735 842.281 116.607 842.885 119.284C843.49 121.962 844.418 124.315 845.671 126.345C846.923 128.375 848.542 129.972 850.529 131.138C852.559 132.261 854.977 132.822 857.784 132.822C860.547 132.822 862.922 132.261 864.909 131.138C866.895 129.972 868.515 128.375 869.767 126.345C871.062 124.315 872.013 121.962 872.617 119.284C873.222 116.607 873.524 113.735 873.524 110.669V109.309C873.524 106.286 873.222 103.458 872.617 100.824C872.013 98.1463 871.062 95.7928 869.767 93.7632C868.515 91.6904 866.874 90.0711 864.844 88.9051C862.858 87.696 860.461 87.0914 857.654 87.0914C854.89 87.0914 852.515 87.696 850.529 88.9051C848.542 90.0711 846.923 91.6904 845.671 93.7632C844.418 95.7928 843.49 98.1463 842.885 100.824C842.281 103.458 841.979 106.286 841.979 109.309ZM925.468 89.229V145H908.367V74.9138H924.561L925.468 89.229ZM946.779 74.4604L946.52 90.3949C945.57 90.2222 944.49 90.0927 943.281 90.0063C942.115 89.9199 941.014 89.8768 939.978 89.8768C937.343 89.8768 935.033 90.2438 933.047 90.9779C931.06 91.6689 929.398 92.6837 928.059 94.0223C926.764 95.361 925.77 97.002 925.079 98.9452C924.388 100.845 924 103.004 923.913 105.423L920.221 104.969C920.221 100.521 920.675 96.3974 921.582 92.5973C922.488 88.7972 923.805 85.4721 925.533 82.622C927.26 79.7719 929.419 77.5696 932.01 76.015C934.644 74.4172 937.667 73.6183 941.079 73.6183C942.029 73.6183 943.044 73.7047 944.123 73.8774C945.246 74.007 946.131 74.2013 946.779 74.4604Z"/>
</mask>
<path d="M418.583 89.6177V103.609H368.965V89.6177H418.583ZM373.823 50.6881V145H356.01V50.6881H373.823ZM431.797 50.6881V145H413.984V50.6881H431.797ZM472.081 74.9138V145H454.916V74.9138H472.081ZM453.75 56.5826C453.75 54.0348 454.614 51.9188 456.341 50.2346C458.112 48.5505 460.487 47.7084 463.466 47.7084C466.446 47.7084 468.8 48.5505 470.527 50.2346C472.297 51.9188 473.183 54.0348 473.183 56.5826C473.183 59.0872 472.297 61.1816 470.527 62.8657C468.8 64.5498 466.446 65.3919 463.466 65.3919C460.487 65.3919 458.112 64.5498 456.341 62.8657C454.614 61.1816 453.75 59.0872 453.75 56.5826ZM516.123 145H498.893V68.4363C498.893 63.168 499.908 58.7417 501.937 55.1575C503.967 51.5301 506.86 48.788 510.617 46.9311C514.374 45.0743 518.8 44.1458 523.896 44.1458C525.58 44.1458 527.178 44.2538 528.689 44.4697C530.244 44.6856 531.777 44.9879 533.288 45.3765L532.964 58.3963C532.144 58.1803 531.237 58.0292 530.244 57.9428C529.294 57.8565 528.236 57.8133 527.07 57.8133C524.738 57.8133 522.752 58.2235 521.111 59.044C519.47 59.8645 518.217 61.0736 517.354 62.6714C516.533 64.226 516.123 66.1476 516.123 68.4363V145ZM530.309 74.9138V87.221H488.335V74.9138H530.309ZM601.102 131.527V145H548.376V131.527H601.102ZM599.872 85.1482L554.788 145H543.518V134.442L588.342 74.9138H599.872V85.1482ZM593.588 74.9138V88.4517H544.424V74.9138H593.588ZM660.366 50.6881V145H642.618V50.6881H660.366ZM689.644 50.6881V64.7442H613.663V50.6881H689.644ZM742.042 128.353V74.9138H759.272V145H743.078L742.042 128.353ZM744.244 113.843L749.556 113.714C749.556 118.421 749.037 122.761 748.001 126.734C746.965 130.706 745.345 134.161 743.143 137.098C740.984 139.991 738.242 142.258 734.916 143.899C731.591 145.497 727.662 146.296 723.127 146.296C719.673 146.296 716.52 145.82 713.67 144.87C710.82 143.877 708.359 142.344 706.286 140.271C704.256 138.155 702.68 135.457 701.557 132.175C700.435 128.85 699.873 124.855 699.873 120.191V74.9138H716.974V120.321C716.974 122.653 717.233 124.596 717.751 126.151C718.313 127.705 719.068 128.979 720.018 129.972C721.011 130.922 722.156 131.613 723.451 132.045C724.79 132.434 726.215 132.628 727.726 132.628C731.872 132.628 735.132 131.808 737.507 130.167C739.926 128.482 741.653 126.237 742.689 123.43C743.726 120.58 744.244 117.384 744.244 113.843ZM812.9 74.9138V87.221H772.74V74.9138H812.9ZM783.492 57.6837H800.658V124.79C800.658 126.863 800.938 128.461 801.5 129.584C802.061 130.706 802.903 131.462 804.026 131.851C805.149 132.239 806.487 132.434 808.042 132.434C809.165 132.434 810.201 132.369 811.151 132.239C812.101 132.11 812.9 131.98 813.548 131.851L813.613 144.676C812.187 145.151 810.568 145.54 808.754 145.842C806.984 146.144 804.976 146.296 802.73 146.296C798.887 146.296 795.519 145.648 792.626 144.352C789.732 143.014 787.487 140.876 785.889 137.94C784.291 134.96 783.492 131.03 783.492 126.151V57.6837ZM824.878 110.669V109.309C824.878 104.17 825.612 99.4418 827.08 95.1235C828.549 90.762 830.686 86.9835 833.493 83.7879C836.3 80.5924 839.733 78.1093 843.792 76.3388C847.852 74.5252 852.472 73.6183 857.654 73.6183C862.922 73.6183 867.586 74.5252 871.645 76.3388C875.748 78.1093 879.203 80.5924 882.009 83.7879C884.816 86.9835 886.954 90.762 888.422 95.1235C889.89 99.4418 890.624 104.17 890.624 109.309V110.669C890.624 115.765 889.89 120.494 888.422 124.855C886.954 129.173 884.816 132.952 882.009 136.191C879.203 139.386 875.769 141.869 871.71 143.64C867.651 145.41 863.009 146.296 857.784 146.296C852.602 146.296 847.96 145.41 843.857 143.64C839.755 141.869 836.3 139.386 833.493 136.191C830.686 132.952 828.549 129.173 827.08 124.855C825.612 120.494 824.878 115.765 824.878 110.669ZM841.979 109.309V110.669C841.979 113.735 842.281 116.607 842.885 119.284C843.49 121.962 844.418 124.315 845.671 126.345C846.923 128.375 848.542 129.972 850.529 131.138C852.559 132.261 854.977 132.822 857.784 132.822C860.547 132.822 862.922 132.261 864.909 131.138C866.895 129.972 868.515 128.375 869.767 126.345C871.062 124.315 872.013 121.962 872.617 119.284C873.222 116.607 873.524 113.735 873.524 110.669V109.309C873.524 106.286 873.222 103.458 872.617 100.824C872.013 98.1463 871.062 95.7928 869.767 93.7632C868.515 91.6904 866.874 90.0711 864.844 88.9051C862.858 87.696 860.461 87.0914 857.654 87.0914C854.89 87.0914 852.515 87.696 850.529 88.9051C848.542 90.0711 846.923 91.6904 845.671 93.7632C844.418 95.7928 843.49 98.1463 842.885 100.824C842.281 103.458 841.979 106.286 841.979 109.309ZM925.468 89.229V145H908.367V74.9138H924.561L925.468 89.229ZM946.779 74.4604L946.52 90.3949C945.57 90.2222 944.49 90.0927 943.281 90.0063C942.115 89.9199 941.014 89.8768 939.978 89.8768C937.343 89.8768 935.033 90.2438 933.047 90.9779C931.06 91.6689 929.398 92.6837 928.059 94.0223C926.764 95.361 925.77 97.002 925.079 98.9452C924.388 100.845 924 103.004 923.913 105.423L920.221 104.969C920.221 100.521 920.675 96.3974 921.582 92.5973C922.488 88.7972 923.805 85.4721 925.533 82.622C927.26 79.7719 929.419 77.5696 932.01 76.015C934.644 74.4172 937.667 73.6183 941.079 73.6183C942.029 73.6183 943.044 73.7047 944.123 73.8774C945.246 74.007 946.131 74.2013 946.779 74.4604Z" fill="black"/>
<path d="M418.583 89.6177H421.236V86.9645H418.583V89.6177ZM418.583 103.609V106.262H421.236V103.609H418.583ZM368.965 103.609H366.312V106.262H368.965V103.609ZM368.965 89.6177V86.9645H366.312V89.6177H368.965ZM373.823 50.6881H376.477V48.0349H373.823V50.6881ZM373.823 145V147.653H376.477V145H373.823ZM356.01 145H353.357V147.653H356.01V145ZM356.01 50.6881V48.0349H353.357V50.6881H356.01ZM431.797 50.6881H434.45V48.0349H431.797V50.6881ZM431.797 145V147.653H434.45V145H431.797ZM413.984 145H411.331V147.653H413.984V145ZM413.984 50.6881V48.0349H411.331V50.6881H413.984ZM418.583 89.6177H415.93V103.609H418.583H421.236V89.6177H418.583ZM418.583 103.609V100.956H368.965V103.609V106.262H418.583V103.609ZM368.965 103.609H371.619V89.6177H368.965H366.312V103.609H368.965ZM368.965 89.6177V92.2708H418.583V89.6177V86.9645H368.965V89.6177ZM373.823 50.6881H371.17V145H373.823H376.477V50.6881H373.823ZM373.823 145V142.347H356.01V145V147.653H373.823V145ZM356.01 145H358.664V50.6881H356.01H353.357V145H356.01ZM356.01 50.6881V53.3412H373.823V50.6881V48.0349H356.01V50.6881ZM431.797 50.6881H429.144V145H431.797H434.45V50.6881H431.797ZM431.797 145V142.347H413.984V145V147.653H431.797V145ZM413.984 145H416.637V50.6881H413.984H411.331V145H413.984ZM413.984 50.6881V53.3412H431.797V50.6881V48.0349H413.984V50.6881ZM472.081 74.9138H474.735V72.2606H472.081V74.9138ZM472.081 145V147.653H474.735V145H472.081ZM454.916 145H452.263V147.653H454.916V145ZM454.916 74.9138V72.2606H452.263V74.9138H454.916ZM456.341 50.2346L454.513 48.3123L454.501 48.3235L454.489 48.335L456.341 50.2346ZM470.527 50.2346L468.675 52.1343L468.686 52.1457L468.698 52.157L470.527 50.2346ZM470.527 62.8657L468.698 60.9433L468.686 60.9546L468.675 60.966L470.527 62.8657ZM456.341 62.8657L454.489 64.7654L454.501 64.7768L454.513 64.7881L456.341 62.8657ZM472.081 74.9138H469.428V145H472.081H474.735V74.9138H472.081ZM472.081 145V142.347H454.916V145V147.653H472.081V145ZM454.916 145H457.569V74.9138H454.916H452.263V145H454.916ZM454.916 74.9138V77.567H472.081V74.9138V72.2606H454.916V74.9138ZM453.75 56.5826H456.403C456.403 54.7053 457.009 53.2887 458.193 52.1343L456.341 50.2346L454.489 48.335C452.218 50.5489 451.097 53.3642 451.097 56.5826H453.75ZM456.341 50.2346L458.17 52.157C459.344 51.0406 461.01 50.3616 463.466 50.3616V47.7084V45.0553C459.964 45.0553 456.88 46.0604 454.513 48.3123L456.341 50.2346ZM463.466 47.7084V50.3616C465.926 50.3616 467.554 51.0413 468.675 52.1343L470.527 50.2346L472.379 48.335C470.045 46.0597 466.966 45.0553 463.466 45.0553V47.7084ZM470.527 50.2346L468.698 52.157C469.918 53.3168 470.529 54.7266 470.529 56.5826H473.183H475.836C475.836 53.3429 474.677 50.5208 472.355 48.3123L470.527 50.2346ZM473.183 56.5826H470.529C470.529 58.381 469.928 59.774 468.698 60.9433L470.527 62.8657L472.355 64.7881C474.667 62.5892 475.836 59.7934 475.836 56.5826H473.183ZM470.527 62.8657L468.675 60.966C467.554 62.0591 465.926 62.7387 463.466 62.7387V65.3919V68.0451C466.966 68.0451 470.045 67.0406 472.379 64.7654L470.527 62.8657ZM463.466 65.3919V62.7387C461.01 62.7387 459.344 62.0598 458.17 60.9433L456.341 62.8657L454.513 64.7881C456.88 67.0399 459.964 68.0451 463.466 68.0451V65.3919ZM456.341 62.8657L458.193 60.966C457 59.8022 456.403 58.4025 456.403 56.5826H453.75H451.097C451.097 59.7719 452.228 62.5609 454.489 64.7654L456.341 62.8657ZM516.123 145V147.653H518.776V145H516.123ZM498.893 145H496.24V147.653H498.893V145ZM501.937 55.1575L504.246 56.4649L504.253 56.453L501.937 55.1575ZM528.689 44.4697L528.314 47.0962L528.324 47.0976L528.689 44.4697ZM533.288 45.3765L535.941 45.4425L535.993 43.3326L533.949 42.807L533.288 45.3765ZM532.964 58.3963L532.289 60.9621L535.533 61.8158L535.617 58.4622L532.964 58.3963ZM530.244 57.9428L530.004 60.5851L530.014 60.586L530.244 57.9428ZM517.354 62.6714L515.02 61.4098L515.014 61.4213L515.007 61.433L517.354 62.6714ZM530.309 74.9138H532.962V72.2606H530.309V74.9138ZM530.309 87.221V89.8742H532.962V87.221H530.309ZM488.335 87.221H485.682V89.8742H488.335V87.221ZM488.335 74.9138V72.2606H485.682V74.9138H488.335ZM516.123 145V142.347H498.893V145V147.653H516.123V145ZM498.893 145H501.546V68.4363H498.893H496.24V145H498.893ZM498.893 68.4363H501.546C501.546 63.501 502.497 59.554 504.246 56.4649L501.937 55.1575L499.629 53.8502C497.319 57.9295 496.24 62.8349 496.24 68.4363H498.893ZM501.937 55.1575L504.253 56.453C506.018 53.2976 508.512 50.9311 511.793 49.3096L510.617 46.9311L509.442 44.5526C505.208 46.645 501.916 49.7627 499.622 53.862L501.937 55.1575ZM510.617 46.9311L511.793 49.3096C515.114 47.6683 519.121 46.799 523.896 46.799V44.1458V41.4926C518.479 41.4926 513.635 42.4802 509.442 44.5526L510.617 46.9311ZM523.896 44.1458V46.799C525.467 46.799 526.939 46.8997 528.314 47.0962L528.689 44.4697L529.065 41.8432C527.417 41.6078 525.693 41.4926 523.896 41.4926V44.1458ZM528.689 44.4697L528.324 47.0976C529.78 47.2998 531.214 47.5827 532.628 47.9461L533.288 45.3765L533.949 42.807C532.34 42.3931 530.708 42.0714 529.054 41.8417L528.689 44.4697ZM533.288 45.3765L530.636 45.3106L530.312 58.3303L532.964 58.3963L535.617 58.4622L535.941 45.4425L533.288 45.3765ZM532.964 58.3963L533.64 55.8304C532.651 55.5701 531.592 55.3969 530.474 55.2996L530.244 57.9428L530.014 60.586C530.882 60.6615 531.637 60.7905 532.289 60.9621L532.964 58.3963ZM530.244 57.9428L530.484 55.3006C529.439 55.2055 528.299 55.1601 527.07 55.1601V57.8133V60.4665C528.173 60.4665 529.149 60.5074 530.004 60.5851L530.244 57.9428ZM527.07 57.8133V55.1601C524.435 55.1601 522.02 55.6232 519.924 56.6709L521.111 59.044L522.297 61.4171C523.484 60.8238 525.042 60.4665 527.07 60.4665V57.8133ZM521.111 59.044L519.924 56.6709C517.801 57.7326 516.145 59.3272 515.02 61.4098L517.354 62.6714L519.688 63.933C520.289 62.82 521.139 61.9964 522.297 61.4171L521.111 59.044ZM517.354 62.6714L515.007 61.433C513.934 63.4671 513.47 65.8422 513.47 68.4363H516.123H518.776C518.776 66.4531 519.133 64.9848 519.7 63.9098L517.354 62.6714ZM516.123 68.4363H513.47V145H516.123H518.776V68.4363H516.123ZM530.309 74.9138H527.656V87.221H530.309H532.962V74.9138H530.309ZM530.309 87.221V84.5678H488.335V87.221V89.8742H530.309V87.221ZM488.335 87.221H490.988V74.9138H488.335H485.682V87.221H488.335ZM488.335 74.9138V77.567H530.309V74.9138V72.2606H488.335V74.9138ZM601.102 131.527H603.755V128.874H601.102V131.527ZM601.102 145V147.653H603.755V145H601.102ZM548.376 145H545.723V147.653H548.376V145ZM548.376 131.527V128.874H545.723V131.527H548.376ZM599.872 85.1482L601.991 86.7445L602.525 86.0356V85.1482H599.872ZM554.788 145V147.653H556.112L556.908 146.596L554.788 145ZM543.518 145H540.864V147.653H543.518V145ZM543.518 134.442L541.398 132.846L540.864 133.555V134.442H543.518ZM588.342 74.9138V72.2606H587.018L586.222 73.3178L588.342 74.9138ZM599.872 74.9138H602.525V72.2606H599.872V74.9138ZM593.588 74.9138H596.242V72.2606H593.588V74.9138ZM593.588 88.4517V91.1049H596.242V88.4517H593.588ZM544.424 88.4517H541.771V91.1049H544.424V88.4517ZM544.424 74.9138V72.2606H541.771V74.9138H544.424ZM601.102 131.527H598.449V145H601.102H603.755V131.527H601.102ZM601.102 145V142.347H548.376V145V147.653H601.102V145ZM548.376 145H551.029V131.527H548.376H545.723V145H548.376ZM548.376 131.527V134.18H601.102V131.527V128.874H548.376V131.527ZM599.872 85.1482L597.752 83.5519L552.669 143.404L554.788 145L556.908 146.596L601.991 86.7445L599.872 85.1482ZM554.788 145V142.347H543.518V145V147.653H554.788V145ZM543.518 145H546.171V134.442H543.518H540.864V145H543.518ZM543.518 134.442L545.637 136.038L590.461 76.5098L588.342 74.9138L586.222 73.3178L541.398 132.846L543.518 134.442ZM588.342 74.9138V77.567H599.872V74.9138V72.2606H588.342V74.9138ZM599.872 74.9138H597.218V85.1482H599.872H602.525V74.9138H599.872ZM593.588 74.9138H590.935V88.4517H593.588H596.242V74.9138H593.588ZM593.588 88.4517V85.7985H544.424V88.4517V91.1049H593.588V88.4517ZM544.424 88.4517H547.078V74.9138H544.424H541.771V88.4517H544.424ZM544.424 74.9138V77.567H593.588V74.9138V72.2606H544.424V74.9138ZM660.366 50.6881H663.019V48.0349H660.366V50.6881ZM660.366 145V147.653H663.019V145H660.366ZM642.618 145H639.965V147.653H642.618V145ZM642.618 50.6881V48.0349H639.965V50.6881H642.618ZM689.644 50.6881H692.297V48.0349H689.644V50.6881ZM689.644 64.7442V67.3973H692.297V64.7442H689.644ZM613.663 64.7442H611.01V67.3973H613.663V64.7442ZM613.663 50.6881V48.0349H611.01V50.6881H613.663ZM660.366 50.6881H657.713V145H660.366H663.019V50.6881H660.366ZM660.366 145V142.347H642.618V145V147.653H660.366V145ZM642.618 145H645.271V50.6881H642.618H639.965V145H642.618ZM642.618 50.6881V53.3412H660.366V50.6881V48.0349H642.618V50.6881ZM689.644 50.6881H686.991V64.7442H689.644H692.297V50.6881H689.644ZM689.644 64.7442V62.091H613.663V64.7442V67.3973H689.644V64.7442ZM613.663 64.7442H616.317V50.6881H613.663H611.01V64.7442H613.663ZM613.663 50.6881V53.3412H689.644V50.6881V48.0349H613.663V50.6881ZM742.042 128.353H739.388V128.435L739.394 128.518L742.042 128.353ZM742.042 74.9138V72.2606H739.388V74.9138H742.042ZM759.272 74.9138H761.925V72.2606H759.272V74.9138ZM759.272 145V147.653H761.925V145H759.272ZM743.078 145L740.43 145.165L740.585 147.653H743.078V145ZM744.244 113.843L744.179 111.191L741.591 111.254V113.843H744.244ZM749.556 113.714H752.209V110.995L749.491 111.061L749.556 113.714ZM743.143 137.098L741.02 135.506L741.016 135.511L743.143 137.098ZM734.916 143.899L736.066 146.29L736.078 146.284L736.091 146.278L734.916 143.899ZM713.67 144.87L712.797 147.376L712.814 147.382L712.831 147.387L713.67 144.87ZM706.286 140.271L704.371 142.108L704.39 142.128L704.41 142.148L706.286 140.271ZM701.557 132.175L699.044 133.023L699.047 133.033L701.557 132.175ZM699.873 74.9138V72.2606H697.22V74.9138H699.873ZM716.974 74.9138H719.627V72.2606H716.974V74.9138ZM717.751 126.151L715.234 126.99L715.245 127.021L715.256 127.052L717.751 126.151ZM720.018 129.972L718.101 131.806L718.142 131.849L718.184 131.89L720.018 129.972ZM723.451 132.045L722.612 134.562L722.662 134.579L722.712 134.593L723.451 132.045ZM737.507 130.167L739.016 132.349L739.024 132.344L737.507 130.167ZM742.689 123.43L745.178 124.349L745.183 124.337L742.689 123.43ZM742.042 128.353H744.695V74.9138H742.042H739.388V128.353H742.042ZM742.042 74.9138V77.567H759.272V74.9138V72.2606H742.042V74.9138ZM759.272 74.9138H756.619V145H759.272H761.925V74.9138H759.272ZM759.272 145V142.347H743.078V145V147.653H759.272V145ZM743.078 145L745.726 144.835L744.69 128.188L742.042 128.353L739.394 128.518L740.43 145.165L743.078 145ZM744.244 113.843L744.309 116.496L749.62 116.366L749.556 113.714L749.491 111.061L744.179 111.191L744.244 113.843ZM749.556 113.714H746.902C746.902 118.227 746.405 122.339 745.434 126.064L748.001 126.734L750.568 127.403C751.669 123.183 752.209 118.615 752.209 113.714H749.556ZM748.001 126.734L745.434 126.064C744.474 129.743 742.993 132.876 741.02 135.506L743.143 137.098L745.265 138.689C747.698 135.446 749.455 131.67 750.568 127.403L748.001 126.734ZM743.143 137.098L741.016 135.511C739.115 138.059 736.702 140.059 733.742 141.52L734.916 143.899L736.091 146.278C739.781 144.457 742.853 141.922 745.269 138.684L743.143 137.098ZM734.916 143.899L733.767 141.507C730.873 142.898 727.353 143.642 723.127 143.642V146.296V148.949C727.97 148.949 732.309 148.095 736.066 146.29L734.916 143.899ZM723.127 146.296V143.642C719.916 143.642 717.052 143.201 714.509 142.353L713.67 144.87L712.831 147.387C715.989 148.44 719.43 148.949 723.127 148.949V146.296ZM713.67 144.87L714.543 142.365C712.059 141.499 709.944 140.177 708.162 138.395L706.286 140.271L704.41 142.148C706.774 144.511 709.581 146.255 712.797 147.376L713.67 144.87ZM706.286 140.271L708.201 138.435C706.483 136.644 705.088 134.299 704.068 131.316L701.557 132.175L699.047 133.033C700.272 136.615 702.03 139.667 704.371 142.108L706.286 140.271ZM701.557 132.175L704.071 131.326C703.066 128.347 702.526 124.655 702.526 120.191H699.873H697.22C697.22 125.055 697.804 129.352 699.044 133.023L701.557 132.175ZM699.873 120.191H702.526V74.9138H699.873H697.22V120.191H699.873ZM699.873 74.9138V77.567H716.974V74.9138V72.2606H699.873V74.9138ZM716.974 74.9138H714.321V120.321H716.974H719.627V74.9138H716.974ZM716.974 120.321H714.321C714.321 122.828 714.596 125.077 715.234 126.99L717.751 126.151L720.268 125.312C719.869 124.115 719.627 122.478 719.627 120.321H716.974ZM717.751 126.151L715.256 127.052C715.918 128.885 716.849 130.497 718.101 131.806L720.018 129.972L721.936 128.138C721.287 127.461 720.707 126.525 720.247 125.249L717.751 126.151ZM720.018 129.972L718.184 131.89C719.459 133.109 720.942 134.005 722.612 134.562L723.451 132.045L724.29 129.528C723.369 129.221 722.564 128.736 721.852 128.055L720.018 129.972ZM723.451 132.045L722.712 134.593C724.31 135.057 725.986 135.281 727.726 135.281V132.628V129.975C726.444 129.975 725.27 129.81 724.191 129.497L723.451 132.045ZM727.726 132.628V135.281C732.186 135.281 736.042 134.404 739.016 132.349L737.507 130.167L735.999 127.984C734.222 129.212 731.558 129.975 727.726 129.975V132.628ZM737.507 130.167L739.024 132.344C741.894 130.345 743.957 127.657 745.178 124.349L742.689 123.43L740.2 122.511C739.349 124.817 737.957 126.62 735.991 127.989L737.507 130.167ZM742.689 123.43L745.183 124.337C746.341 121.152 746.897 117.643 746.897 113.843H744.244H741.591C741.591 117.126 741.111 120.008 740.196 122.523L742.689 123.43ZM812.9 74.9138H815.553V72.2606H812.9V74.9138ZM812.9 87.221V89.8742H815.553V87.221H812.9ZM772.74 87.221H770.087V89.8742H772.74V87.221ZM772.74 74.9138V72.2606H770.087V74.9138H772.74ZM783.492 57.6837V55.0306H780.839V57.6837H783.492ZM800.658 57.6837H803.311V55.0306H800.658V57.6837ZM801.5 129.584L799.127 130.77L801.5 129.584ZM804.026 131.851L804.894 129.344L804.026 131.851ZM813.548 131.851L816.201 131.837L816.185 128.618L813.027 129.249L813.548 131.851ZM813.613 144.676L814.452 147.193L816.275 146.585L816.266 144.663L813.613 144.676ZM808.754 145.842L808.318 143.225L808.308 143.227L808.754 145.842ZM792.626 144.352L791.511 146.76L791.526 146.767L791.541 146.774L792.626 144.352ZM785.889 137.94L783.551 139.193L783.555 139.201L783.558 139.208L785.889 137.94ZM812.9 74.9138H810.247V87.221H812.9H815.553V74.9138H812.9ZM812.9 87.221V84.5678H772.74V87.221V89.8742H812.9V87.221ZM772.74 87.221H775.393V74.9138H772.74H770.087V87.221H772.74ZM772.74 74.9138V77.567H812.9V74.9138V72.2606H772.74V74.9138ZM783.492 57.6837V60.3369H800.658V57.6837V55.0306H783.492V57.6837ZM800.658 57.6837H798.004V124.79H800.658H803.311V57.6837H800.658ZM800.658 124.79H798.004C798.004 127.039 798.298 129.114 799.127 130.77L801.5 129.584L803.873 128.397C803.578 127.808 803.311 126.687 803.311 124.79H800.658ZM801.5 129.584L799.127 130.77C799.979 132.474 801.34 133.729 803.158 134.358L804.026 131.851L804.894 129.344C804.466 129.195 804.144 128.939 803.873 128.397L801.5 129.584ZM804.026 131.851L803.158 134.358C804.631 134.868 806.278 135.087 808.042 135.087V132.434V129.781C806.697 129.781 805.666 129.611 804.894 129.344L804.026 131.851ZM808.042 132.434V135.087C809.265 135.087 810.423 135.016 811.51 134.868L811.151 132.239L810.793 129.611C809.979 129.721 809.064 129.781 808.042 129.781V132.434ZM811.151 132.239L811.51 134.868C812.492 134.734 813.349 134.596 814.068 134.452L813.548 131.851L813.027 129.249C812.451 129.364 811.71 129.485 810.793 129.611L811.151 132.239ZM813.548 131.851L810.895 131.864L810.959 144.69L813.613 144.676L816.266 144.663L816.201 131.837L813.548 131.851ZM813.613 144.676L812.774 142.159C811.505 142.582 810.024 142.941 808.318 143.225L808.754 145.842L809.191 148.459C811.112 148.139 812.87 147.72 814.452 147.193L813.613 144.676ZM808.754 145.842L808.308 143.227C806.716 143.499 804.862 143.642 802.73 143.642V146.296V148.949C805.09 148.949 807.252 148.79 809.201 148.457L808.754 145.842ZM802.73 146.296V143.642C799.183 143.642 796.198 143.045 793.71 141.931L792.626 144.352L791.541 146.774C794.84 148.251 798.591 148.949 802.73 148.949V146.296ZM792.626 144.352L793.74 141.944C791.39 140.857 789.559 139.133 788.219 136.671L785.889 137.94L783.558 139.208C785.415 142.619 788.074 145.17 791.511 146.76L792.626 144.352ZM785.889 137.94L788.227 136.686C786.908 134.225 786.145 130.774 786.145 126.151H783.492H780.839C780.839 131.287 781.675 135.695 783.551 139.193L785.889 137.94ZM783.492 126.151H786.145V57.6837H783.492H780.839V126.151H783.492ZM827.08 95.1235L829.592 95.9776L829.595 95.97L827.08 95.1235ZM833.493 83.7879L835.487 85.5389L833.493 83.7879ZM843.792 76.3388L844.853 78.7708L844.864 78.766L844.875 78.7612L843.792 76.3388ZM871.645 76.3388L870.563 78.7612L870.579 78.7681L870.594 78.7748L871.645 76.3388ZM882.009 83.7879L880.016 85.5389L882.009 83.7879ZM888.422 95.1235L885.908 95.97L885.91 95.9776L888.422 95.1235ZM888.422 124.855L890.934 125.709L890.937 125.702L888.422 124.855ZM882.009 136.191L884.003 137.942L884.009 137.935L884.014 137.928L882.009 136.191ZM833.493 136.191L831.488 137.928L831.494 137.935L831.5 137.942L833.493 136.191ZM827.08 124.855L824.566 125.702L824.569 125.709L827.08 124.855ZM850.529 131.138L849.186 133.426L849.215 133.443L849.245 133.46L850.529 131.138ZM864.909 131.138L866.214 133.448L866.233 133.437L866.252 133.426L864.909 131.138ZM869.767 126.345L867.531 124.917L867.52 124.934L867.509 124.952L869.767 126.345ZM872.617 100.824L870.029 101.408L870.031 101.417L872.617 100.824ZM869.767 93.7632L867.496 95.1352L867.513 95.1632L867.531 95.1907L869.767 93.7632ZM864.844 88.9051L863.465 91.1715L863.493 91.189L863.523 91.2057L864.844 88.9051ZM850.529 88.9051L851.872 91.1933L851.89 91.1825L851.908 91.1715L850.529 88.9051ZM845.671 93.7632L847.929 95.1564L847.935 95.1459L847.942 95.1352L845.671 93.7632ZM842.885 100.824L845.471 101.417L845.474 101.408L842.885 100.824ZM824.878 110.669H827.531V109.309H824.878H822.225V110.669H824.878ZM824.878 109.309H827.531C827.531 104.425 828.229 99.9884 829.592 95.9776L827.08 95.1235L824.569 94.2694C822.996 98.8952 822.225 103.916 822.225 109.309H824.878ZM827.08 95.1235L829.595 95.97C830.96 91.914 832.93 88.4494 835.487 85.5389L833.493 83.7879L831.5 82.037C828.443 85.5175 826.137 89.6101 824.566 94.277L827.08 95.1235ZM833.493 83.7879L835.487 85.5389C838.026 82.6482 841.136 80.3921 844.853 78.7708L843.792 76.3388L842.732 73.9069C838.33 75.8266 834.574 78.5366 831.5 82.037L833.493 83.7879ZM843.792 76.3388L844.875 78.7612C848.542 77.1228 852.784 76.2715 857.654 76.2715V73.6183V70.9651C852.16 70.9651 847.162 71.9275 842.71 73.9165L843.792 76.3388ZM857.654 73.6183V76.2715C862.618 76.2715 866.902 77.1252 870.563 78.7612L871.645 76.3388L872.728 73.9165C868.271 71.9251 863.227 70.9651 857.654 70.9651V73.6183ZM871.645 76.3388L870.594 78.7748C874.354 80.3977 877.482 82.6535 880.016 85.5389L882.009 83.7879L884.003 82.037C880.923 78.5312 877.141 75.821 872.697 73.9029L871.645 76.3388ZM882.009 83.7879L880.016 85.5389C882.573 88.4494 884.542 91.914 885.908 95.97L888.422 95.1235L890.937 94.277C889.366 89.6101 887.06 85.5175 884.003 82.037L882.009 83.7879ZM888.422 95.1235L885.91 95.9776C887.274 99.9884 887.971 104.425 887.971 109.309H890.624H893.278C893.278 103.916 892.507 98.8952 890.934 94.2694L888.422 95.1235ZM890.624 109.309H887.971V110.669H890.624H893.278V109.309H890.624ZM890.624 110.669H887.971C887.971 115.508 887.275 119.947 885.908 124.009L888.422 124.855L890.937 125.702C892.506 121.04 893.278 116.022 893.278 110.669H890.624ZM888.422 124.855L885.91 124.001C884.545 128.016 882.573 131.49 880.004 134.453L882.009 136.191L884.014 137.928C887.06 134.414 889.363 130.331 890.934 125.709L888.422 124.855ZM882.009 136.191L880.016 134.44C877.477 137.33 874.367 139.587 870.65 141.208L871.71 143.64L872.771 146.072C877.172 144.152 880.928 141.442 884.003 137.942L882.009 136.191ZM871.71 143.64L870.65 141.208C866.98 142.809 862.709 143.642 857.784 143.642V146.296V148.949C863.309 148.949 868.323 148.012 872.771 146.072L871.71 143.64ZM857.784 146.296V143.642C852.906 143.642 848.63 142.81 844.908 141.204L843.857 143.64L842.806 146.076C847.289 148.011 852.297 148.949 857.784 148.949V146.296ZM843.857 143.64L844.908 141.204C841.148 139.581 838.021 137.325 835.487 134.44L833.493 136.191L831.5 137.942C834.579 141.447 838.361 144.158 842.806 146.076L843.857 143.64ZM833.493 136.191L835.498 134.453C832.93 131.49 830.957 128.016 829.592 124.001L827.08 124.855L824.569 125.709C826.14 130.331 828.443 134.414 831.488 137.928L833.493 136.191ZM827.08 124.855L829.595 124.009C828.228 119.947 827.531 115.508 827.531 110.669H824.878H822.225C822.225 116.022 822.997 121.04 824.566 125.702L827.08 124.855ZM841.979 109.309H839.325V110.669H841.979H844.632V109.309H841.979ZM841.979 110.669H839.325C839.325 113.909 839.645 116.979 840.297 119.869L842.885 119.284L845.474 118.7C844.917 116.235 844.632 113.561 844.632 110.669H841.979ZM842.885 119.284L840.297 119.869C840.957 122.79 841.985 125.424 843.413 127.738L845.671 126.345L847.929 124.952C846.852 123.206 846.023 121.134 845.474 118.7L842.885 119.284ZM845.671 126.345L843.413 127.738C844.884 130.123 846.813 132.033 849.186 133.426L850.529 131.138L851.872 128.85C850.272 127.911 848.962 126.626 847.929 124.952L845.671 126.345ZM850.529 131.138L849.245 133.46C851.742 134.841 854.621 135.476 857.784 135.476V132.822V130.169C855.332 130.169 853.375 129.681 851.813 128.817L850.529 131.138ZM857.784 132.822V135.476C860.909 135.476 863.754 134.839 866.214 133.448L864.909 131.138L863.603 128.828C862.091 129.683 860.186 130.169 857.784 130.169V132.822ZM864.909 131.138L866.252 133.426C868.625 132.033 870.554 130.123 872.025 127.738L869.767 126.345L867.509 124.952C866.476 126.626 865.165 127.911 863.566 128.85L864.909 131.138ZM869.767 126.345L872.003 127.772C873.485 125.451 874.542 122.804 875.205 119.869L872.617 119.284L870.029 118.7C869.483 121.12 868.64 123.18 867.531 124.917L869.767 126.345ZM872.617 119.284L875.205 119.869C875.858 116.979 876.177 113.909 876.177 110.669H873.524H870.871C870.871 113.561 870.586 116.235 870.029 118.7L872.617 119.284ZM873.524 110.669H876.177V109.309H873.524H870.871V110.669H873.524ZM873.524 109.309H876.177C876.177 106.11 875.857 103.08 875.203 100.23L872.617 100.824L870.031 101.417C870.586 103.835 870.871 106.463 870.871 109.309H873.524ZM872.617 100.824L875.205 100.239C874.542 97.304 873.485 94.6574 872.003 92.3357L869.767 93.7632L867.531 95.1907C868.64 96.9283 869.483 98.9886 870.029 101.408L872.617 100.824ZM869.767 93.7632L872.038 92.3912C870.561 89.9473 868.599 88.0025 866.166 86.6046L864.844 88.9051L863.523 91.2057C865.148 92.1397 866.468 93.4336 867.496 95.1352L869.767 93.7632ZM864.844 88.9051L866.224 86.6388C863.743 85.1288 860.847 84.4383 857.654 84.4383V87.0914V89.7446C860.076 89.7446 861.972 90.2632 863.465 91.1715L864.844 88.9051ZM857.654 87.0914V84.4383C854.496 84.4383 851.624 85.1325 849.149 86.6388L850.529 88.9051L851.908 91.1715C853.407 90.2595 855.285 89.7446 857.654 89.7446V87.0914ZM850.529 88.9051L849.186 86.617C846.799 88.018 844.868 89.9607 843.4 92.3912L845.671 93.7632L847.942 95.1352C848.978 93.4202 850.286 92.1242 851.872 91.1933L850.529 88.9051ZM845.671 93.7632L843.413 92.37C841.985 94.6836 840.957 97.3183 840.297 100.239L842.885 100.824L845.474 101.408C846.023 98.9743 846.852 96.902 847.929 95.1564L845.671 93.7632ZM842.885 100.824L840.3 100.23C839.645 103.08 839.325 106.11 839.325 109.309H841.979H844.632C844.632 106.463 844.916 103.835 845.471 101.417L842.885 100.824ZM925.468 89.229H928.121V89.1451L928.116 89.0613L925.468 89.229ZM925.468 145V147.653H928.121V145H925.468ZM908.367 145H905.714V147.653H908.367V145ZM908.367 74.9138V72.2606H905.714V74.9138H908.367ZM924.561 74.9138L927.209 74.7461L927.052 72.2606H924.561V74.9138ZM946.779 74.4604L949.432 74.5035L949.461 72.6758L947.764 71.997L946.779 74.4604ZM946.52 90.3949L946.045 93.0053L949.122 93.5647L949.173 90.4381L946.52 90.3949ZM943.281 90.0063L943.085 92.6522L943.092 92.6527L943.281 90.0063ZM933.047 90.9779L933.918 93.4838L933.942 93.4754L933.966 93.4666L933.047 90.9779ZM928.059 94.0223L926.183 92.1463L926.168 92.1616L926.152 92.1773L928.059 94.0223ZM925.079 98.9452L927.573 99.8519L927.576 99.843L927.579 99.834L925.079 98.9452ZM923.913 105.423L923.59 108.056L926.462 108.409L926.565 105.517L923.913 105.423ZM920.221 104.969H917.568V107.317L919.898 107.603L920.221 104.969ZM932.01 76.015L933.375 78.2901L933.386 78.2835L932.01 76.015ZM944.123 73.8774L943.704 76.4973L943.761 76.5064L943.819 76.5131L944.123 73.8774ZM925.468 89.229H922.815V145H925.468H928.121V89.229H925.468ZM925.468 145V142.347H908.367V145V147.653H925.468V145ZM908.367 145H911.021V74.9138H908.367H905.714V145H908.367ZM908.367 74.9138V77.567H924.561V74.9138V72.2606H908.367V74.9138ZM924.561 74.9138L921.913 75.0815L922.82 89.3967L925.468 89.229L928.116 89.0613L927.209 74.7461L924.561 74.9138ZM946.779 74.4604L944.126 74.4172L943.867 90.3518L946.52 90.3949L949.173 90.4381L949.432 74.5035L946.779 74.4604ZM946.52 90.3949L946.994 87.7846C945.93 87.591 944.752 87.4514 943.47 87.3599L943.281 90.0063L943.092 92.6527C944.228 92.7339 945.21 92.8534 946.045 93.0053L946.52 90.3949ZM943.281 90.0063L943.477 87.3604C942.254 87.2698 941.087 87.2236 939.978 87.2236V89.8768V92.5299C940.941 92.5299 941.976 92.5701 943.085 92.6522L943.281 90.0063ZM939.978 89.8768V87.2236C937.103 87.2236 934.47 87.6234 932.127 88.4893L933.047 90.9779L933.966 93.4666C935.596 92.8642 937.584 92.5299 939.978 92.5299V89.8768ZM933.047 90.9779L932.175 88.472C929.853 89.2797 927.835 90.4945 926.183 92.1463L928.059 94.0223L929.935 95.8984C930.961 94.8728 932.268 94.058 933.918 93.4838L933.047 90.9779ZM928.059 94.0223L926.152 92.1773C924.566 93.8166 923.384 95.7942 922.58 98.0564L925.079 98.9452L927.579 99.834C928.157 98.2097 928.961 96.9055 929.966 95.8674L928.059 94.0223ZM925.079 98.9452L922.586 98.0385C921.784 100.245 921.356 102.685 921.262 105.328L923.913 105.423L926.565 105.517C926.643 103.324 926.993 101.446 927.573 99.8519L925.079 98.9452ZM923.913 105.423L924.237 102.789L920.545 102.336L920.221 104.969L919.898 107.603L923.59 108.056L923.913 105.423ZM920.221 104.969H922.874C922.874 100.701 923.31 96.786 924.162 93.2131L921.582 92.5973L919.001 91.9814C918.04 96.0088 917.568 100.342 917.568 104.969H920.221ZM921.582 92.5973L924.162 93.2131C925.016 89.6358 926.239 86.5753 927.802 83.9971L925.533 82.622L923.264 81.2468C921.372 84.3688 919.961 87.9585 919.001 91.9814L921.582 92.5973ZM925.533 82.622L927.802 83.9971C929.329 81.4774 931.191 79.6005 933.375 78.29L932.01 76.015L930.645 73.7399C927.647 75.5387 925.191 78.0664 923.264 81.2468L925.533 82.622ZM932.01 76.015L933.386 78.2835C935.562 76.9637 938.099 76.2715 941.079 76.2715V73.6183V70.9651C937.236 70.9651 933.727 71.8706 930.634 73.7465L932.01 76.015ZM941.079 73.6183V76.2715C941.869 76.2715 942.743 76.3435 943.704 76.4973L944.123 73.8774L944.542 71.2576C943.344 71.0659 942.188 70.9651 941.079 70.9651V73.6183ZM944.123 73.8774L943.819 76.5131C944.833 76.6301 945.457 76.789 945.794 76.9238L946.779 74.4604L947.764 71.997C946.806 71.6136 945.658 71.3838 944.427 71.2417L944.123 73.8774Z" fill="black" mask="url(#path-1-outside-1_160_52)"/>
<path d="M103.732 18.9971C131.901 20.6393 146.817 34.5434 148.788 45.5713C149.044 47.0015 149.335 50.5777 149.561 56.4639C149.776 62.1032 149.914 69.2634 149.989 77.4375C150.14 93.7741 150.04 113.914 149.838 133.543C149.636 153.161 149.333 172.219 149.08 186.377C149.07 186.952 149.058 187.519 149.048 188.078C137.442 179.47 126.138 173.148 112.76 168.648C95.3661 162.798 75.0628 160.233 47.0029 158.804L46.7324 18.9971H103.732ZM228.467 18.7031C241.187 17.4408 257.553 17.4248 271.013 17.7549C276.094 17.8795 280.7 18.0514 284.453 18.2168V151.98C261.347 152.608 242.446 154.998 224.841 160.918C210.495 165.743 197.399 172.781 183.788 182.562V46.125C185.198 40.5913 189.665 34.5482 197.546 29.2842C205.722 23.8232 216.653 19.8755 228.467 18.7031ZM14.3496 51.626V182.508H10.5732V51.626H14.3496Z" fill="#D3F501" stroke="black" stroke-width="21.1465"/>
</svg>
