<svg width="1290" height="258" viewBox="0 0 1290 258" fill="none" xmlns="http://www.w3.org/2000/svg">
<path d="M146.152 254.132C113.486 223.774 95.0222 217.002 34.2344 214.433L33.9504 59.3752H95.8743C123.712 61.0098 143.199 75.9598 146.152 93.4693C149.105 110.979 146.152 254.132 146.152 254.132Z" fill="#111629"/>
<path d="M122.039 256C97.6054 245.404 64.8572 237.619 39.3474 237.785H1V90.9005H23.7244V223.774L52.6997 224.5C96.4516 228.1 109.468 238.9 122.039 256Z" fill="#111629"/>
<path d="M270 208.128C219.681 208.446 194.884 216.344 158.935 248.646V94.6628C162.343 76.4482 183.931 61.7105 208.36 59.1417C232.789 56.5729 270 59.1417 270 59.1417V208.128Z" fill="#111629"/>
<path d="M146.152 254.132C113.486 223.774 95.0222 217.002 34.2344 214.433L33.9504 59.3752H95.8743C123.712 61.0098 143.199 75.9598 146.152 93.4693C149.105 110.979 146.152 254.132 146.152 254.132Z" stroke="#111629"/>
<path d="M122.039 256C97.6054 245.404 64.8572 237.619 39.3474 237.785H1V90.9005H23.7244V223.774L52.6997 224.5C96.4516 228.1 109.468 238.9 122.039 256Z" stroke="#111629"/>
<path d="M270 208.128C219.681 208.446 194.884 216.344 158.935 248.646V94.6628C162.343 76.4482 183.931 61.7105 208.36 59.1417C232.789 56.5729 270 59.1417 270 59.1417V208.128Z" stroke="#111629"/>
<mask id="path-2-outside-1_24_45" maskUnits="userSpaceOnUse" x="334" y="59" width="946" height="167" fill="black">
<rect fill="white" x="334" y="59" width="946" height="167"/>
<path d="M453.979 80.4V220H425.979V160.6H366.179V220H338.179V80.4H366.179V137.8H425.979V80.4H453.979ZM501.738 96C496.805 96 492.672 94.4667 489.338 91.4C486.138 88.2 484.538 84.2667 484.538 79.6C484.538 74.9333 486.138 71.0667 489.338 68C492.672 64.8 496.805 63.2 501.738 63.2C506.672 63.2 510.738 64.8 513.938 68C517.272 71.0667 518.938 74.9333 518.938 79.6C518.938 84.2667 517.272 88.2 513.938 91.4C510.738 94.4667 506.672 96 501.738 96ZM515.538 109.2V220H487.538V109.2H515.538ZM600.002 132.2H580.602V220H552.202V132.2H539.602V109.2H552.202V103.6C552.202 90 556.069 80 563.802 73.6C571.536 67.2 583.202 64.2 598.802 64.6V88.2C592.002 88.0667 587.269 89.2 584.602 91.6C581.936 94 580.602 98.3333 580.602 104.6V109.2H600.002V132.2ZM649.748 197H699.148V220H617.948V197.4L666.348 132.2H618.148V109.2H698.548V131.8L649.748 197ZM823.827 80.4V103H786.627V220H758.627V103H721.427V80.4H823.827ZM956.857 109.2V220H928.657V206C925.057 210.8 920.324 214.6 914.457 217.4C908.724 220.067 902.457 221.4 895.657 221.4C886.99 221.4 879.324 219.6 872.657 216C865.99 212.267 860.724 206.867 856.857 199.8C853.124 192.6 851.257 184.067 851.257 174.2V109.2H879.257V170.2C879.257 179 881.457 185.8 885.857 190.6C890.257 195.267 896.257 197.6 903.857 197.6C911.59 197.6 917.657 195.267 922.057 190.6C926.457 185.8 928.657 179 928.657 170.2V109.2H956.857ZM1025.08 132.2V185.8C1025.08 189.533 1025.95 192.267 1027.68 194C1029.55 195.6 1032.62 196.4 1036.88 196.4H1049.88V220H1032.28C1008.68 220 996.884 208.533 996.884 185.6V132.2H983.684V109.2H996.884V81.8H1025.08V109.2H1049.88V132.2H1025.08ZM1127.22 221.8C1116.56 221.8 1106.96 219.467 1098.42 214.8C1089.89 210 1083.16 203.267 1078.22 194.6C1073.42 185.933 1071.02 175.933 1071.02 164.6C1071.02 153.267 1073.49 143.267 1078.42 134.6C1083.49 125.933 1090.36 119.267 1099.02 114.6C1107.69 109.8 1117.36 107.4 1128.02 107.4C1138.69 107.4 1148.36 109.8 1157.02 114.6C1165.69 119.267 1172.49 125.933 1177.42 134.6C1182.49 143.267 1185.02 153.267 1185.02 164.6C1185.02 175.933 1182.42 185.933 1177.22 194.6C1172.16 203.267 1165.22 210 1156.42 214.8C1147.76 219.467 1138.02 221.8 1127.22 221.8ZM1127.22 197.4C1132.29 197.4 1137.02 196.2 1141.42 193.8C1145.96 191.267 1149.56 187.533 1152.22 182.6C1154.89 177.667 1156.22 171.667 1156.22 164.6C1156.22 154.067 1153.42 146 1147.82 140.4C1142.36 134.667 1135.62 131.8 1127.62 131.8C1119.62 131.8 1112.89 134.667 1107.42 140.4C1102.09 146 1099.42 154.067 1099.42 164.6C1099.42 175.133 1102.02 183.267 1107.22 189C1112.56 194.6 1119.22 197.4 1127.22 197.4ZM1241.56 126.4C1245.16 120.533 1249.83 115.933 1255.56 112.6C1261.43 109.267 1268.1 107.6 1275.56 107.6V137H1268.16C1259.36 137 1252.7 139.067 1248.16 143.2C1243.76 147.333 1241.56 154.533 1241.56 164.8V220H1213.56V109.2H1241.56V126.4Z"/>
</mask>
<path d="M453.979 80.4V220H425.979V160.6H366.179V220H338.179V80.4H366.179V137.8H425.979V80.4H453.979ZM501.738 96C496.805 96 492.672 94.4667 489.338 91.4C486.138 88.2 484.538 84.2667 484.538 79.6C484.538 74.9333 486.138 71.0667 489.338 68C492.672 64.8 496.805 63.2 501.738 63.2C506.672 63.2 510.738 64.8 513.938 68C517.272 71.0667 518.938 74.9333 518.938 79.6C518.938 84.2667 517.272 88.2 513.938 91.4C510.738 94.4667 506.672 96 501.738 96ZM515.538 109.2V220H487.538V109.2H515.538ZM600.002 132.2H580.602V220H552.202V132.2H539.602V109.2H552.202V103.6C552.202 90 556.069 80 563.802 73.6C571.536 67.2 583.202 64.2 598.802 64.6V88.2C592.002 88.0667 587.269 89.2 584.602 91.6C581.936 94 580.602 98.3333 580.602 104.6V109.2H600.002V132.2ZM649.748 197H699.148V220H617.948V197.4L666.348 132.2H618.148V109.2H698.548V131.8L649.748 197ZM823.827 80.4V103H786.627V220H758.627V103H721.427V80.4H823.827ZM956.857 109.2V220H928.657V206C925.057 210.8 920.324 214.6 914.457 217.4C908.724 220.067 902.457 221.4 895.657 221.4C886.99 221.4 879.324 219.6 872.657 216C865.99 212.267 860.724 206.867 856.857 199.8C853.124 192.6 851.257 184.067 851.257 174.2V109.2H879.257V170.2C879.257 179 881.457 185.8 885.857 190.6C890.257 195.267 896.257 197.6 903.857 197.6C911.59 197.6 917.657 195.267 922.057 190.6C926.457 185.8 928.657 179 928.657 170.2V109.2H956.857ZM1025.08 132.2V185.8C1025.08 189.533 1025.95 192.267 1027.68 194C1029.55 195.6 1032.62 196.4 1036.88 196.4H1049.88V220H1032.28C1008.68 220 996.884 208.533 996.884 185.6V132.2H983.684V109.2H996.884V81.8H1025.08V109.2H1049.88V132.2H1025.08ZM1127.22 221.8C1116.56 221.8 1106.96 219.467 1098.42 214.8C1089.89 210 1083.16 203.267 1078.22 194.6C1073.42 185.933 1071.02 175.933 1071.02 164.6C1071.02 153.267 1073.49 143.267 1078.42 134.6C1083.49 125.933 1090.36 119.267 1099.02 114.6C1107.69 109.8 1117.36 107.4 1128.02 107.4C1138.69 107.4 1148.36 109.8 1157.02 114.6C1165.69 119.267 1172.49 125.933 1177.42 134.6C1182.49 143.267 1185.02 153.267 1185.02 164.6C1185.02 175.933 1182.42 185.933 1177.22 194.6C1172.16 203.267 1165.22 210 1156.42 214.8C1147.76 219.467 1138.02 221.8 1127.22 221.8ZM1127.22 197.4C1132.29 197.4 1137.02 196.2 1141.42 193.8C1145.96 191.267 1149.56 187.533 1152.22 182.6C1154.89 177.667 1156.22 171.667 1156.22 164.6C1156.22 154.067 1153.42 146 1147.82 140.4C1142.36 134.667 1135.62 131.8 1127.62 131.8C1119.62 131.8 1112.89 134.667 1107.42 140.4C1102.09 146 1099.42 154.067 1099.42 164.6C1099.42 175.133 1102.02 183.267 1107.22 189C1112.56 194.6 1119.22 197.4 1127.22 197.4ZM1241.56 126.4C1245.16 120.533 1249.83 115.933 1255.56 112.6C1261.43 109.267 1268.1 107.6 1275.56 107.6V137H1268.16C1259.36 137 1252.7 139.067 1248.16 143.2C1243.76 147.333 1241.56 154.533 1241.56 164.8V220H1213.56V109.2H1241.56V126.4Z" fill="#111629"/>
<path d="M453.979 80.4H457.979V76.4H453.979V80.4ZM453.979 220V224H457.979V220H453.979ZM425.979 220H421.979V224H425.979V220ZM425.979 160.6H429.979V156.6H425.979V160.6ZM366.179 160.6V156.6H362.179V160.6H366.179ZM366.179 220V224H370.179V220H366.179ZM338.179 220H334.179V224H338.179V220ZM338.179 80.4V76.4H334.179V80.4H338.179ZM366.179 80.4H370.179V76.4H366.179V80.4ZM366.179 137.8H362.179V141.8H366.179V137.8ZM425.979 137.8V141.8H429.979V137.8H425.979ZM425.979 80.4V76.4H421.979V80.4H425.979ZM453.979 80.4H449.979V220H453.979H457.979V80.4H453.979ZM453.979 220V216H425.979V220V224H453.979V220ZM425.979 220H429.979V160.6H425.979H421.979V220H425.979ZM425.979 160.6V156.6H366.179V160.6V164.6H425.979V160.6ZM366.179 160.6H362.179V220H366.179H370.179V160.6H366.179ZM366.179 220V216H338.179V220V224H366.179V220ZM338.179 220H342.179V80.4H338.179H334.179V220H338.179ZM338.179 80.4V84.4H366.179V80.4V76.4H338.179V80.4ZM366.179 80.4H362.179V137.8H366.179H370.179V80.4H366.179ZM366.179 137.8V141.8H425.979V137.8V133.8H366.179V137.8ZM425.979 137.8H429.979V80.4H425.979H421.979V137.8H425.979ZM425.979 80.4V84.4H453.979V80.4V76.4H425.979V80.4ZM489.338 91.4L486.51 94.2284L486.569 94.2873L486.63 94.3437L489.338 91.4ZM489.338 68L492.106 70.8879L492.108 70.8855L489.338 68ZM513.938 68L511.11 70.8284L511.169 70.8873L511.23 70.9437L513.938 68ZM513.938 91.4L516.706 94.288L516.708 94.2855L513.938 91.4ZM515.538 109.2H519.538V105.2H515.538V109.2ZM515.538 220V224H519.538V220H515.538ZM487.538 220H483.538V224H487.538V220ZM487.538 109.2V105.2H483.538V109.2H487.538ZM501.738 96V92C497.711 92 494.573 90.7805 492.047 88.4563L489.338 91.4L486.63 94.3437C490.77 98.1528 495.899 100 501.738 100V96ZM489.338 91.4L492.167 88.5716C489.743 86.1475 488.538 83.2428 488.538 79.6H484.538H480.538C480.538 85.2905 482.534 90.2525 486.51 94.2284L489.338 91.4ZM484.538 79.6H488.538C488.538 75.9591 489.739 73.1566 492.106 70.8879L489.338 68L486.571 65.112C482.538 68.9767 480.538 73.9075 480.538 79.6H484.538ZM489.338 68L492.108 70.8855C494.643 68.4522 497.761 67.2 501.738 67.2V63.2V59.2C495.849 59.2 490.7 61.1478 486.568 65.1144L489.338 68ZM501.738 63.2V67.2C505.716 67.2 508.731 68.4499 511.11 70.8284L513.938 68L516.767 65.1716C512.745 61.1501 507.627 59.2 501.738 59.2V63.2ZM513.938 68L511.23 70.9437C513.712 73.2273 514.938 76.0136 514.938 79.6H518.938H522.938C522.938 73.853 520.831 68.906 516.647 65.0563L513.938 68ZM518.938 79.6H514.938C514.938 83.1897 513.707 86.0772 511.168 88.5145L513.938 91.4L516.708 94.2855C520.836 90.3228 522.938 85.3436 522.938 79.6H518.938ZM513.938 91.4L511.171 88.512C508.802 90.7819 505.767 92 501.738 92V96V100C507.576 100 512.674 98.1515 516.706 94.288L513.938 91.4ZM515.538 109.2H511.538V220H515.538H519.538V109.2H515.538ZM515.538 220V216H487.538V220V224H515.538V220ZM487.538 220H491.538V109.2H487.538H483.538V220H487.538ZM487.538 109.2V113.2H515.538V109.2V105.2H487.538V109.2ZM600.002 132.2V136.2H604.002V132.2H600.002ZM580.602 132.2V128.2H576.602V132.2H580.602ZM580.602 220V224H584.602V220H580.602ZM552.202 220H548.202V224H552.202V220ZM552.202 132.2H556.202V128.2H552.202V132.2ZM539.602 132.2H535.602V136.2H539.602V132.2ZM539.602 109.2V105.2H535.602V109.2H539.602ZM552.202 109.2V113.2H556.202V109.2H552.202ZM563.802 73.6L561.252 70.5184L561.252 70.5184L563.802 73.6ZM598.802 64.6H602.802V60.7012L598.905 60.6013L598.802 64.6ZM598.802 88.2L598.724 92.1992L602.802 92.2792V88.2H598.802ZM584.602 91.6L581.926 88.6268L584.602 91.6ZM580.602 109.2H576.602V113.2H580.602V109.2ZM600.002 109.2H604.002V105.2H600.002V109.2ZM600.002 132.2V128.2H580.602V132.2V136.2H600.002V132.2ZM580.602 132.2H576.602V220H580.602H584.602V132.2H580.602ZM580.602 220V216H552.202V220V224H580.602V220ZM552.202 220H556.202V132.2H552.202H548.202V220H552.202ZM552.202 132.2V128.2H539.602V132.2V136.2H552.202V132.2ZM539.602 132.2H543.602V109.2H539.602H535.602V132.2H539.602ZM539.602 109.2V113.2H552.202V109.2V105.2H539.602V109.2ZM552.202 109.2H556.202V103.6H552.202H548.202V109.2H552.202ZM552.202 103.6H556.202C556.202 90.7437 559.834 82.0759 566.353 76.6816L563.802 73.6L561.252 70.5184C552.304 77.924 548.202 89.2563 548.202 103.6H552.202ZM563.802 73.6L566.353 76.6816C573.024 71.1602 583.554 68.2103 598.7 68.5987L598.802 64.6L598.905 60.6013C582.85 60.1897 570.047 63.2398 561.252 70.5184L563.802 73.6ZM598.802 64.6H594.802V88.2H598.802H602.802V64.6H598.802ZM598.802 88.2L598.881 84.2008C591.868 84.0633 585.785 85.1541 581.926 88.6268L584.602 91.6L587.278 94.5732C588.753 93.2459 592.136 92.0701 598.724 92.1992L598.802 88.2ZM584.602 91.6L581.926 88.6268C577.966 92.1913 576.602 97.9962 576.602 104.6H580.602H584.602C584.602 98.6705 585.905 95.8087 587.278 94.5732L584.602 91.6ZM580.602 104.6H576.602V109.2H580.602H584.602V104.6H580.602ZM580.602 109.2V113.2H600.002V109.2V105.2H580.602V109.2ZM600.002 109.2H596.002V132.2H600.002H604.002V109.2H600.002ZM649.748 197L646.545 194.603L641.757 201H649.748V197ZM699.148 197H703.148V193H699.148V197ZM699.148 220V224H703.148V220H699.148ZM617.948 220H613.948V224H617.948V220ZM617.948 197.4L614.736 195.016L613.948 196.078V197.4H617.948ZM666.348 132.2L669.559 134.584L674.299 128.2H666.348V132.2ZM618.148 132.2H614.148V136.2H618.148V132.2ZM618.148 109.2V105.2H614.148V109.2H618.148ZM698.548 109.2H702.548V105.2H698.548V109.2ZM698.548 131.8L701.75 134.197L702.548 133.131V131.8H698.548ZM649.748 197V201H699.148V197V193H649.748V197ZM699.148 197H695.148V220H699.148H703.148V197H699.148ZM699.148 220V216H617.948V220V224H699.148V220ZM617.948 220H621.948V197.4H617.948H613.948V220H617.948ZM617.948 197.4L621.159 199.784L669.559 134.584L666.348 132.2L663.136 129.816L614.736 195.016L617.948 197.4ZM666.348 132.2V128.2H618.148V132.2V136.2H666.348V132.2ZM618.148 132.2H622.148V109.2H618.148H614.148V132.2H618.148ZM618.148 109.2V113.2H698.548V109.2V105.2H618.148V109.2ZM698.548 109.2H694.548V131.8H698.548H702.548V109.2H698.548ZM698.548 131.8L695.345 129.403L646.545 194.603L649.748 197L652.95 199.397L701.75 134.197L698.548 131.8ZM823.827 80.4H827.827V76.4H823.827V80.4ZM823.827 103V107H827.827V103H823.827ZM786.627 103V99H782.627V103H786.627ZM786.627 220V224H790.627V220H786.627ZM758.627 220H754.627V224H758.627V220ZM758.627 103H762.627V99H758.627V103ZM721.427 103H717.427V107H721.427V103ZM721.427 80.4V76.4H717.427V80.4H721.427ZM823.827 80.4H819.827V103H823.827H827.827V80.4H823.827ZM823.827 103V99H786.627V103V107H823.827V103ZM786.627 103H782.627V220H786.627H790.627V103H786.627ZM786.627 220V216H758.627V220V224H786.627V220ZM758.627 220H762.627V103H758.627H754.627V220H758.627ZM758.627 103V99H721.427V103V107H758.627V103ZM721.427 103H725.427V80.4H721.427H717.427V103H721.427ZM721.427 80.4V84.4H823.827V80.4V76.4H721.427V80.4ZM956.857 109.2H960.857V105.2H956.857V109.2ZM956.857 220V224H960.857V220H956.857ZM928.657 220H924.657V224H928.657V220ZM928.657 206H932.657V194L925.457 203.6L928.657 206ZM914.457 217.4L916.144 221.027L916.162 221.018L916.18 221.01L914.457 217.4ZM872.657 216L870.703 219.49L870.729 219.505L870.756 219.52L872.657 216ZM856.857 199.8L853.306 201.641L853.327 201.681L853.348 201.72L856.857 199.8ZM851.257 109.2V105.2H847.257V109.2H851.257ZM879.257 109.2H883.257V105.2H879.257V109.2ZM885.857 190.6L882.908 193.303L882.927 193.324L882.947 193.344L885.857 190.6ZM922.057 190.6L924.967 193.344L924.987 193.324L925.006 193.303L922.057 190.6ZM928.657 109.2V105.2H924.657V109.2H928.657ZM956.857 109.2H952.857V220H956.857H960.857V109.2H956.857ZM956.857 220V216H928.657V220V224H956.857V220ZM928.657 220H932.657V206H928.657H924.657V220H928.657ZM928.657 206L925.457 203.6C922.276 207.841 918.068 211.244 912.734 213.79L914.457 217.4L916.18 221.01C922.58 217.956 927.838 213.759 931.857 208.4L928.657 206ZM914.457 217.4L912.77 213.773C907.604 216.176 901.919 217.4 895.657 217.4V221.4V225.4C902.995 225.4 909.843 223.958 916.144 221.027L914.457 217.4ZM895.657 221.4V217.4C887.558 217.4 880.561 215.722 874.558 212.48L872.657 216L870.756 219.52C878.086 223.478 886.423 225.4 895.657 225.4V221.4ZM872.657 216L874.611 212.51C868.636 209.164 863.893 204.325 860.366 197.88L856.857 199.8L853.348 201.72C857.555 209.408 863.344 215.369 870.703 219.49L872.657 216ZM856.857 199.8L860.408 197.959C857.027 191.438 855.257 183.563 855.257 174.2H851.257H847.257C847.257 184.57 849.22 193.762 853.306 201.641L856.857 199.8ZM851.257 174.2H855.257V109.2H851.257H847.257V174.2H851.257ZM851.257 109.2V113.2H879.257V109.2V105.2H851.257V109.2ZM879.257 109.2H875.257V170.2H879.257H883.257V109.2H879.257ZM879.257 170.2H875.257C875.257 179.644 877.624 187.539 882.908 193.303L885.857 190.6L888.806 187.897C885.29 184.061 883.257 178.356 883.257 170.2H879.257ZM885.857 190.6L882.947 193.344C888.242 198.96 895.376 201.6 903.857 201.6V197.6V193.6C897.138 193.6 892.272 191.573 888.767 187.856L885.857 190.6ZM903.857 197.6V201.6C912.448 201.6 919.659 198.974 924.967 193.344L922.057 190.6L919.147 187.856C915.655 191.559 910.733 193.6 903.857 193.6V197.6ZM922.057 190.6L925.006 193.303C930.29 187.539 932.657 179.644 932.657 170.2H928.657H924.657C924.657 178.356 922.625 184.061 919.108 187.897L922.057 190.6ZM928.657 170.2H932.657V109.2H928.657H924.657V170.2H928.657ZM928.657 109.2V113.2H956.857V109.2V105.2H928.657V109.2ZM1025.08 132.2V128.2H1021.08V132.2H1025.08ZM1027.68 194L1024.86 196.828L1024.96 196.937L1025.08 197.037L1027.68 194ZM1049.88 196.4H1053.88V192.4H1049.88V196.4ZM1049.88 220V224H1053.88V220H1049.88ZM996.884 132.2H1000.88V128.2H996.884V132.2ZM983.684 132.2H979.684V136.2H983.684V132.2ZM983.684 109.2V105.2H979.684V109.2H983.684ZM996.884 109.2V113.2H1000.88V109.2H996.884ZM996.884 81.8V77.8H992.884V81.8H996.884ZM1025.08 81.8H1029.08V77.8H1025.08V81.8ZM1025.08 109.2H1021.08V113.2H1025.08V109.2ZM1049.88 109.2H1053.88V105.2H1049.88V109.2ZM1049.88 132.2V136.2H1053.88V132.2H1049.88ZM1025.08 132.2H1021.08V185.8H1025.08H1029.08V132.2H1025.08ZM1025.08 185.8H1021.08C1021.08 190.049 1022.06 194.032 1024.86 196.828L1027.68 194L1030.51 191.172C1029.84 190.501 1029.08 189.017 1029.08 185.8H1025.08ZM1027.68 194L1025.08 197.037C1028.04 199.576 1032.3 200.4 1036.88 200.4V196.4V192.4C1032.93 192.4 1031.06 191.624 1030.29 190.963L1027.68 194ZM1036.88 196.4V200.4H1049.88V196.4V192.4H1036.88V196.4ZM1049.88 196.4H1045.88V220H1049.88H1053.88V196.4H1049.88ZM1049.88 220V216H1032.28V220V224H1049.88V220ZM1032.28 220V216C1021.07 216 1013.4 213.275 1008.52 208.531C1003.66 203.808 1000.88 196.421 1000.88 185.6H996.884H992.884C992.884 197.713 996.007 207.525 1002.95 214.269C1009.86 220.991 1019.9 224 1032.28 224V220ZM996.884 185.6H1000.88V132.2H996.884H992.884V185.6H996.884ZM996.884 132.2V128.2H983.684V132.2V136.2H996.884V132.2ZM983.684 132.2H987.684V109.2H983.684H979.684V132.2H983.684ZM983.684 109.2V113.2H996.884V109.2V105.2H983.684V109.2ZM996.884 109.2H1000.88V81.8H996.884H992.884V109.2H996.884ZM996.884 81.8V85.8H1025.08V81.8V77.8H996.884V81.8ZM1025.08 81.8H1021.08V109.2H1025.08H1029.08V81.8H1025.08ZM1025.08 109.2V113.2H1049.88V109.2V105.2H1025.08V109.2ZM1049.88 109.2H1045.88V132.2H1049.88H1053.88V109.2H1049.88ZM1049.88 132.2V128.2H1025.08V132.2V136.2H1049.88V132.2ZM1098.42 214.8L1096.46 218.286L1096.48 218.298L1096.5 218.309L1098.42 214.8ZM1078.22 194.6L1074.72 196.538L1074.73 196.558L1074.75 196.579L1078.22 194.6ZM1078.42 134.6L1074.97 132.581L1074.96 132.601L1074.95 132.621L1078.42 134.6ZM1099.02 114.6L1100.92 118.122L1100.94 118.111L1100.96 118.099L1099.02 114.6ZM1157.02 114.6L1155.08 118.099L1155.11 118.111L1155.13 118.122L1157.02 114.6ZM1177.42 134.6L1173.95 136.579L1173.96 136.599L1173.97 136.619L1177.42 134.6ZM1177.22 194.6L1173.79 192.542L1173.78 192.562L1173.77 192.581L1177.22 194.6ZM1156.42 214.8L1158.32 218.322L1158.33 218.317L1158.34 218.312L1156.42 214.8ZM1141.42 193.8L1143.34 197.312L1143.36 197.302L1143.37 197.292L1141.42 193.8ZM1152.22 182.6L1155.74 184.502L1155.74 184.502L1152.22 182.6ZM1147.82 140.4L1144.93 143.16L1144.96 143.195L1144.99 143.228L1147.82 140.4ZM1107.42 140.4L1104.53 137.64L1104.53 137.641L1107.42 140.4ZM1107.22 189L1104.26 191.687L1104.29 191.723L1104.33 191.759L1107.22 189ZM1127.22 221.8V217.8C1117.16 217.8 1108.23 215.605 1100.34 211.291L1098.42 214.8L1096.5 218.309C1105.68 223.328 1115.95 225.8 1127.22 225.8V221.8ZM1098.42 214.8L1100.38 211.314C1092.5 206.876 1086.28 200.67 1081.7 192.621L1078.22 194.6L1074.75 196.579C1080.03 205.864 1087.28 213.124 1096.46 218.286L1098.42 214.8ZM1078.22 194.6L1081.72 192.662C1077.3 184.669 1075.02 175.354 1075.02 164.6H1071.02H1067.02C1067.02 176.513 1069.55 187.197 1074.72 196.538L1078.22 194.6ZM1071.02 164.6H1075.02C1075.02 153.864 1077.35 144.564 1081.9 136.579L1078.42 134.6L1074.95 132.621C1069.63 141.969 1067.02 152.669 1067.02 164.6H1071.02ZM1078.42 134.6L1081.88 136.619C1086.58 128.573 1092.91 122.433 1100.92 118.122L1099.02 114.6L1097.13 111.078C1087.8 116.1 1080.4 123.293 1074.97 132.581L1078.42 134.6ZM1099.02 114.6L1100.96 118.099C1108.99 113.653 1117.98 111.4 1128.02 111.4V107.4V103.4C1116.73 103.4 1106.39 105.947 1097.08 111.101L1099.02 114.6ZM1128.02 107.4V111.4C1138.06 111.4 1147.06 113.653 1155.08 118.099L1157.02 114.6L1158.96 111.101C1149.66 105.947 1139.31 103.4 1128.02 103.4V107.4ZM1157.02 114.6L1155.13 118.122C1163.12 122.428 1169.38 128.555 1173.95 136.579L1177.42 134.6L1180.9 132.621C1175.6 123.311 1168.26 116.106 1158.92 111.078L1157.02 114.6ZM1177.42 134.6L1173.97 136.619C1178.63 144.597 1181.02 153.883 1181.02 164.6H1185.02H1189.02C1189.02 152.651 1186.34 141.936 1180.88 132.581L1177.42 134.6ZM1185.02 164.6H1181.02C1181.02 175.299 1178.58 184.57 1173.79 192.542L1177.22 194.6L1180.65 196.658C1186.27 187.297 1189.02 176.568 1189.02 164.6H1185.02ZM1177.22 194.6L1173.77 192.581C1169.07 200.621 1162.67 206.837 1154.51 211.288L1156.42 214.8L1158.34 218.312C1167.78 213.163 1175.24 205.913 1180.68 196.619L1177.22 194.6ZM1156.42 214.8L1154.53 211.278C1146.5 215.601 1137.43 217.8 1127.22 217.8V221.8V225.8C1138.62 225.8 1149.01 223.332 1158.32 218.322L1156.42 214.8ZM1127.22 197.4V201.4C1132.95 201.4 1138.34 200.036 1143.34 197.312L1141.42 193.8L1139.51 190.288C1135.7 192.364 1131.63 193.4 1127.22 193.4V197.4ZM1141.42 193.8L1143.37 197.292C1148.62 194.358 1152.74 190.048 1155.74 184.502L1152.22 182.6L1148.7 180.698C1146.37 185.019 1143.29 188.175 1139.47 190.308L1141.42 193.8ZM1152.22 182.6L1155.74 184.502C1158.8 178.852 1160.22 172.161 1160.22 164.6H1156.22H1152.22C1152.22 171.172 1150.98 176.482 1148.7 180.698L1152.22 182.6ZM1156.22 164.6H1160.22C1160.22 153.368 1157.22 144.144 1150.65 137.572L1147.82 140.4L1144.99 143.228C1149.62 147.856 1152.22 154.765 1152.22 164.6H1156.22ZM1147.82 140.4L1150.72 137.64C1144.49 131.106 1136.7 127.8 1127.62 127.8V131.8V135.8C1134.54 135.8 1140.22 138.227 1144.93 143.16L1147.82 140.4ZM1127.62 131.8V127.8C1118.54 127.8 1110.76 131.106 1104.53 137.64L1107.42 140.4L1110.32 143.16C1115.02 138.227 1120.7 135.8 1127.62 135.8V131.8ZM1107.42 140.4L1104.53 137.641C1098.26 144.22 1095.42 153.418 1095.42 164.6H1099.42H1103.42C1103.42 154.715 1105.92 147.78 1110.32 143.159L1107.42 140.4ZM1099.42 164.6H1095.42C1095.42 175.764 1098.18 184.988 1104.26 191.687L1107.22 189L1110.19 186.313C1105.86 181.546 1103.42 174.502 1103.42 164.6H1099.42ZM1107.22 189L1104.33 191.759C1110.44 198.182 1118.17 201.4 1127.22 201.4V197.4V193.4C1120.27 193.4 1114.67 191.018 1110.12 186.241L1107.22 189ZM1241.56 126.4H1237.56V140.566L1244.97 128.492L1241.56 126.4ZM1255.56 112.6L1253.59 109.122L1253.57 109.132L1253.55 109.142L1255.56 112.6ZM1275.56 107.6H1279.56V103.6H1275.56V107.6ZM1275.56 137V141H1279.56V137H1275.56ZM1248.16 143.2L1245.47 140.244L1245.44 140.264L1245.42 140.285L1248.16 143.2ZM1241.56 220V224H1245.56V220H1241.56ZM1213.56 220H1209.56V224H1213.56V220ZM1213.56 109.2V105.2H1209.56V109.2H1213.56ZM1241.56 109.2H1245.56V105.2H1241.56V109.2ZM1241.56 126.4L1244.97 128.492C1248.24 123.167 1252.43 119.046 1257.57 116.058L1255.56 112.6L1253.55 109.142C1247.22 112.821 1242.08 117.899 1238.15 124.308L1241.56 126.4ZM1255.56 112.6L1257.54 116.078C1262.74 113.122 1268.71 111.6 1275.56 111.6V107.6V103.6C1267.48 103.6 1260.12 105.411 1253.59 109.122L1255.56 112.6ZM1275.56 107.6H1271.56V137H1275.56H1279.56V107.6H1275.56ZM1275.56 137V133H1268.16V137V141H1275.56V137ZM1268.16 137V133C1258.79 133 1251 135.197 1245.47 140.244L1248.16 143.2L1250.86 146.156C1254.39 142.936 1259.93 141 1268.16 141V137ZM1248.16 143.2L1245.42 140.285C1239.81 145.56 1237.56 154.161 1237.56 164.8H1241.56H1245.56C1245.56 154.906 1247.72 149.106 1250.9 146.115L1248.16 143.2ZM1241.56 164.8H1237.56V220H1241.56H1245.56V164.8H1241.56ZM1241.56 220V216H1213.56V220V224H1241.56V220ZM1213.56 220H1217.56V109.2H1213.56H1209.56V220H1213.56ZM1213.56 109.2V113.2H1241.56V109.2V105.2H1213.56V109.2ZM1241.56 109.2H1237.56V126.4H1241.56H1245.56V109.2H1241.56Z" fill="#111629" mask="url(#path-2-outside-1_24_45)"/>
</svg>
