<svg width="759" height="154" viewBox="0 0 759 154" fill="none" xmlns="http://www.w3.org/2000/svg">
<mask id="path-1-outside-1_160_52" maskUnits="userSpaceOnUse" x="234.736" y="34" width="505" height="92" fill="black">
<rect fill="white" x="234.736" y="34" width="505" height="92"/>
<path d="M290.572 75.1625V86.9952H248.61V75.1625H290.572ZM252.718 42.2394V122H237.654V42.2394H252.718ZM301.747 42.2394V122H286.682V42.2394H301.747ZM335.816 62.7273V122H321.299V62.7273H335.816ZM320.313 47.2244C320.313 45.0697 321.044 43.2802 322.504 41.8559C324.002 40.4316 326.01 39.7195 328.53 39.7195C331.05 39.7195 333.041 40.4316 334.501 41.8559C335.999 43.2802 336.747 45.0697 336.747 47.2244C336.747 49.3426 335.999 51.1138 334.501 52.5381C333.041 53.9624 331.05 54.6746 328.53 54.6746C326.01 54.6746 324.002 53.9624 322.504 52.5381C321.044 51.1138 320.313 49.3426 320.313 47.2244ZM373.063 122H358.491V57.2493C358.491 52.7938 359.349 49.0504 361.066 46.0192C362.782 42.9515 365.229 40.6325 368.406 39.0621C371.584 37.4917 375.327 36.7065 379.636 36.7065C381.061 36.7065 382.412 36.7978 383.69 36.9804C385.005 37.163 386.301 37.4187 387.579 37.7474L387.306 48.7583C386.612 48.5757 385.845 48.4478 385.005 48.3748C384.201 48.3018 383.307 48.2652 382.321 48.2652C380.348 48.2652 378.669 48.6122 377.281 49.3061C375.893 50 374.834 51.0225 374.103 52.3738C373.41 53.6885 373.063 55.3137 373.063 57.2493V122ZM385.06 62.7273V73.1357H349.562V62.7273H385.06ZM444.93 110.606V122H400.339V110.606H444.93ZM443.89 71.3827L405.762 122H396.23V113.071L434.139 62.7273H443.89V71.3827ZM438.576 62.7273V74.1765H396.997V62.7273H438.576ZM495.05 42.2394V122H480.04V42.2394H495.05ZM519.811 42.2394V54.1268H455.554V42.2394H519.811ZM564.124 107.921V62.7273H578.696V122H565.001L564.124 107.921ZM565.987 95.6505L570.479 95.541C570.479 99.5217 570.041 103.192 569.164 106.552C568.288 109.912 566.918 112.833 565.056 115.317C563.23 117.764 560.911 119.681 558.099 121.069C555.286 122.42 551.963 123.096 548.128 123.096C545.207 123.096 542.541 122.694 540.13 121.89C537.72 121.05 535.638 119.754 533.886 118.001C532.169 116.212 530.836 113.929 529.887 111.153C528.937 108.341 528.462 104.963 528.462 101.019V62.7273H542.924V101.129C542.924 103.101 543.143 104.744 543.582 106.059C544.056 107.374 544.696 108.451 545.499 109.291C546.339 110.094 547.307 110.679 548.402 111.044C549.535 111.373 550.74 111.537 552.018 111.537C555.524 111.537 558.281 110.843 560.29 109.455C562.335 108.031 563.796 106.132 564.672 103.758C565.549 101.348 565.987 98.6452 565.987 95.6505ZM624.05 62.7273V73.1357H590.086V62.7273H624.05ZM599.18 48.1557H613.697V104.908C613.697 106.661 613.934 108.013 614.409 108.962C614.883 109.912 615.596 110.551 616.545 110.88C617.495 111.208 618.627 111.373 619.942 111.373C620.891 111.373 621.768 111.318 622.571 111.208C623.374 111.099 624.05 110.989 624.598 110.88L624.653 121.726C623.447 122.128 622.078 122.457 620.544 122.712C619.047 122.968 617.349 123.096 615.449 123.096C612.199 123.096 609.351 122.548 606.904 121.452C604.457 120.32 602.558 118.512 601.207 116.029C599.855 113.509 599.18 110.186 599.18 106.059V48.1557ZM634.18 92.9663V91.8159C634.18 87.4699 634.801 83.4709 636.043 79.8189C637.284 76.1303 639.092 72.9348 641.466 70.2323C643.84 67.5298 646.743 65.4299 650.176 63.9325C653.609 62.3987 657.517 61.6317 661.899 61.6317C666.355 61.6317 670.299 62.3987 673.732 63.9325C677.201 65.4299 680.123 67.5298 682.497 70.2323C684.87 72.9348 686.678 76.1303 687.92 79.8189C689.162 83.4709 689.782 87.4699 689.782 91.8159V92.9663C689.782 97.2757 689.162 101.275 687.92 104.963C686.678 108.615 684.87 111.811 682.497 114.55C680.123 117.252 677.219 119.352 673.787 120.85C670.354 122.347 666.428 123.096 662.009 123.096C657.626 123.096 653.7 122.347 650.231 120.85C646.761 119.352 643.84 117.252 641.466 114.55C639.092 111.811 637.284 108.615 636.043 104.963C634.801 101.275 634.18 97.2757 634.18 92.9663ZM648.642 91.8159V92.9663C648.642 95.5592 648.898 97.9878 649.409 100.252C649.92 102.516 650.706 104.507 651.765 106.223C652.824 107.94 654.193 109.291 655.873 110.277C657.59 111.226 659.635 111.701 662.009 111.701C664.346 111.701 666.355 111.226 668.035 110.277C669.714 109.291 671.084 107.94 672.143 106.223C673.239 104.507 674.042 102.516 674.553 100.252C675.065 97.9878 675.32 95.5592 675.32 92.9663V91.8159C675.32 89.2594 675.065 86.8674 674.553 84.6396C674.042 82.3753 673.239 80.385 672.143 78.6685C671.084 76.9155 669.696 75.546 667.98 74.56C666.3 73.5374 664.273 73.0261 661.899 73.0261C659.562 73.0261 657.553 73.5374 655.873 74.56C654.193 75.546 652.824 76.9155 651.765 78.6685C650.706 80.385 649.92 82.3753 649.409 84.6396C648.898 86.8674 648.642 89.2594 648.642 91.8159ZM719.25 74.8339V122H704.788V62.7273H718.483L719.25 74.8339ZM737.273 62.3439L737.054 75.8199C736.25 75.6738 735.337 75.5643 734.315 75.4912C733.329 75.4182 732.397 75.3817 731.521 75.3817C729.293 75.3817 727.339 75.6921 725.659 76.3129C723.979 76.8973 722.573 77.7555 721.441 78.8876C720.346 80.0198 719.506 81.4075 718.921 83.051C718.337 84.6579 718.008 86.4839 717.935 88.529L714.813 88.1456C714.813 84.384 715.196 80.8963 715.963 77.6825C716.73 74.4687 717.844 71.6566 719.305 69.2462C720.766 66.8359 722.592 64.9733 724.783 63.6586C727.011 62.3074 729.567 61.6317 732.452 61.6317C733.256 61.6317 734.114 61.7048 735.027 61.8508C735.976 61.9604 736.725 62.1248 737.273 62.3439Z"/>
</mask>
<path d="M290.572 75.1625V86.9952H248.61V75.1625H290.572ZM252.718 42.2394V122H237.654V42.2394H252.718ZM301.747 42.2394V122H286.682V42.2394H301.747ZM335.816 62.7273V122H321.299V62.7273H335.816ZM320.313 47.2244C320.313 45.0697 321.044 43.2802 322.504 41.8559C324.002 40.4316 326.01 39.7195 328.53 39.7195C331.05 39.7195 333.041 40.4316 334.501 41.8559C335.999 43.2802 336.747 45.0697 336.747 47.2244C336.747 49.3426 335.999 51.1138 334.501 52.5381C333.041 53.9624 331.05 54.6746 328.53 54.6746C326.01 54.6746 324.002 53.9624 322.504 52.5381C321.044 51.1138 320.313 49.3426 320.313 47.2244ZM373.063 122H358.491V57.2493C358.491 52.7938 359.349 49.0504 361.066 46.0192C362.782 42.9515 365.229 40.6325 368.406 39.0621C371.584 37.4917 375.327 36.7065 379.636 36.7065C381.061 36.7065 382.412 36.7978 383.69 36.9804C385.005 37.163 386.301 37.4187 387.579 37.7474L387.306 48.7583C386.612 48.5757 385.845 48.4478 385.005 48.3748C384.201 48.3018 383.307 48.2652 382.321 48.2652C380.348 48.2652 378.669 48.6122 377.281 49.3061C375.893 50 374.834 51.0225 374.103 52.3738C373.41 53.6885 373.063 55.3137 373.063 57.2493V122ZM385.06 62.7273V73.1357H349.562V62.7273H385.06ZM444.93 110.606V122H400.339V110.606H444.93ZM443.89 71.3827L405.762 122H396.23V113.071L434.139 62.7273H443.89V71.3827ZM438.576 62.7273V74.1765H396.997V62.7273H438.576ZM495.05 42.2394V122H480.04V42.2394H495.05ZM519.811 42.2394V54.1268H455.554V42.2394H519.811ZM564.124 107.921V62.7273H578.696V122H565.001L564.124 107.921ZM565.987 95.6505L570.479 95.541C570.479 99.5217 570.041 103.192 569.164 106.552C568.288 109.912 566.918 112.833 565.056 115.317C563.23 117.764 560.911 119.681 558.099 121.069C555.286 122.42 551.963 123.096 548.128 123.096C545.207 123.096 542.541 122.694 540.13 121.89C537.72 121.05 535.638 119.754 533.886 118.001C532.169 116.212 530.836 113.929 529.887 111.153C528.937 108.341 528.462 104.963 528.462 101.019V62.7273H542.924V101.129C542.924 103.101 543.143 104.744 543.582 106.059C544.056 107.374 544.696 108.451 545.499 109.291C546.339 110.094 547.307 110.679 548.402 111.044C549.535 111.373 550.74 111.537 552.018 111.537C555.524 111.537 558.281 110.843 560.29 109.455C562.335 108.031 563.796 106.132 564.672 103.758C565.549 101.348 565.987 98.6452 565.987 95.6505ZM624.05 62.7273V73.1357H590.086V62.7273H624.05ZM599.18 48.1557H613.697V104.908C613.697 106.661 613.934 108.013 614.409 108.962C614.883 109.912 615.596 110.551 616.545 110.88C617.495 111.208 618.627 111.373 619.942 111.373C620.891 111.373 621.768 111.318 622.571 111.208C623.374 111.099 624.05 110.989 624.598 110.88L624.653 121.726C623.447 122.128 622.078 122.457 620.544 122.712C619.047 122.968 617.349 123.096 615.449 123.096C612.199 123.096 609.351 122.548 606.904 121.452C604.457 120.32 602.558 118.512 601.207 116.029C599.855 113.509 599.18 110.186 599.18 106.059V48.1557ZM634.18 92.9663V91.8159C634.18 87.4699 634.801 83.4709 636.043 79.8189C637.284 76.1303 639.092 72.9348 641.466 70.2323C643.84 67.5298 646.743 65.4299 650.176 63.9325C653.609 62.3987 657.517 61.6317 661.899 61.6317C666.355 61.6317 670.299 62.3987 673.732 63.9325C677.201 65.4299 680.123 67.5298 682.497 70.2323C684.87 72.9348 686.678 76.1303 687.92 79.8189C689.162 83.4709 689.782 87.4699 689.782 91.8159V92.9663C689.782 97.2757 689.162 101.275 687.92 104.963C686.678 108.615 684.87 111.811 682.497 114.55C680.123 117.252 677.219 119.352 673.787 120.85C670.354 122.347 666.428 123.096 662.009 123.096C657.626 123.096 653.7 122.347 650.231 120.85C646.761 119.352 643.84 117.252 641.466 114.55C639.092 111.811 637.284 108.615 636.043 104.963C634.801 101.275 634.18 97.2757 634.18 92.9663ZM648.642 91.8159V92.9663C648.642 95.5592 648.898 97.9878 649.409 100.252C649.92 102.516 650.706 104.507 651.765 106.223C652.824 107.94 654.193 109.291 655.873 110.277C657.59 111.226 659.635 111.701 662.009 111.701C664.346 111.701 666.355 111.226 668.035 110.277C669.714 109.291 671.084 107.94 672.143 106.223C673.239 104.507 674.042 102.516 674.553 100.252C675.065 97.9878 675.32 95.5592 675.32 92.9663V91.8159C675.32 89.2594 675.065 86.8674 674.553 84.6396C674.042 82.3753 673.239 80.385 672.143 78.6685C671.084 76.9155 669.696 75.546 667.98 74.56C666.3 73.5374 664.273 73.0261 661.899 73.0261C659.562 73.0261 657.553 73.5374 655.873 74.56C654.193 75.546 652.824 76.9155 651.765 78.6685C650.706 80.385 649.92 82.3753 649.409 84.6396C648.898 86.8674 648.642 89.2594 648.642 91.8159ZM719.25 74.8339V122H704.788V62.7273H718.483L719.25 74.8339ZM737.273 62.3439L737.054 75.8199C736.25 75.6738 735.337 75.5643 734.315 75.4912C733.329 75.4182 732.397 75.3817 731.521 75.3817C729.293 75.3817 727.339 75.6921 725.659 76.3129C723.979 76.8973 722.573 77.7555 721.441 78.8876C720.346 80.0198 719.506 81.4075 718.921 83.051C718.337 84.6579 718.008 86.4839 717.935 88.529L714.813 88.1456C714.813 84.384 715.196 80.8963 715.963 77.6825C716.73 74.4687 717.844 71.6566 719.305 69.2462C720.766 66.8359 722.592 64.9733 724.783 63.6586C727.011 62.3074 729.567 61.6317 732.452 61.6317C733.256 61.6317 734.114 61.7048 735.027 61.8508C735.976 61.9604 736.725 62.1248 737.273 62.3439Z" fill="black"/>
<path d="M290.572 75.1625H292.816V72.9187H290.572V75.1625ZM290.572 86.9952V89.239H292.816V86.9952H290.572ZM248.61 86.9952H246.366V89.239H248.61V86.9952ZM248.61 75.1625V72.9187H246.366V75.1625H248.61ZM252.718 42.2394H254.962V39.9956H252.718V42.2394ZM252.718 122V124.244H254.962V122H252.718ZM237.654 122H235.41V124.244H237.654V122ZM237.654 42.2394V39.9956H235.41V42.2394H237.654ZM301.747 42.2394H303.991V39.9956H301.747V42.2394ZM301.747 122V124.244H303.991V122H301.747ZM286.682 122H284.438V124.244H286.682V122ZM286.682 42.2394V39.9956H284.438V42.2394H286.682ZM290.572 75.1625H288.328V86.9952H290.572H292.816V75.1625H290.572ZM290.572 86.9952V84.7514H248.61V86.9952V89.239H290.572V86.9952ZM248.61 86.9952H250.854V75.1625H248.61H246.366V86.9952H248.61ZM248.61 75.1625V77.4064H290.572V75.1625V72.9187H248.61V75.1625ZM252.718 42.2394H250.474V122H252.718H254.962V42.2394H252.718ZM252.718 122V119.756H237.654V122V124.244H252.718V122ZM237.654 122H239.897V42.2394H237.654H235.41V122H237.654ZM237.654 42.2394V44.4832H252.718V42.2394V39.9956H237.654V42.2394ZM301.747 42.2394H299.503V122H301.747H303.991V42.2394H301.747ZM301.747 122V119.756H286.682V122V124.244H301.747V122ZM286.682 122H288.926V42.2394H286.682H284.438V122H286.682ZM286.682 42.2394V44.4832H301.747V42.2394V39.9956H286.682V42.2394ZM335.816 62.7273H338.06V60.4835H335.816V62.7273ZM335.816 122V124.244H338.06V122H335.816ZM321.299 122H319.055V124.244H321.299V122ZM321.299 62.7273V60.4835H319.055V62.7273H321.299ZM322.504 41.8559L320.958 40.2301L320.948 40.2397L320.938 40.2493L322.504 41.8559ZM334.501 41.8559L332.935 43.4625L332.945 43.4721L332.955 43.4817L334.501 41.8559ZM334.501 52.5381L332.955 50.9124L332.945 50.9219L332.935 50.9316L334.501 52.5381ZM322.504 52.5381L320.938 54.1447L320.948 54.1544L320.958 54.1639L322.504 52.5381ZM335.816 62.7273H333.572V122H335.816H338.06V62.7273H335.816ZM335.816 122V119.756H321.299V122V124.244H335.816V122ZM321.299 122H323.543V62.7273H321.299H319.055V122H321.299ZM321.299 62.7273V64.9712H335.816V62.7273V60.4835H321.299V62.7273ZM320.313 47.2244H322.557C322.557 45.6368 323.07 44.4387 324.071 43.4625L322.504 41.8559L320.938 40.2493C319.018 42.1217 318.069 44.5026 318.069 47.2244H320.313ZM322.504 41.8559L324.051 43.4817C325.044 42.5375 326.453 41.9633 328.53 41.9633V39.7195V37.4756C325.568 37.4756 322.96 38.3257 320.958 40.2301L322.504 41.8559ZM328.53 39.7195V41.9633C330.61 41.9633 331.987 42.5381 332.935 43.4625L334.501 41.8559L336.068 40.2493C334.094 38.3251 331.49 37.4756 328.53 37.4756V39.7195ZM334.501 41.8559L332.955 43.4817C333.986 44.4625 334.504 45.6548 334.504 47.2244H336.747H338.991C338.991 44.4846 338.011 42.0979 336.048 40.2301L334.501 41.8559ZM336.747 47.2244H334.504C334.504 48.7454 333.995 49.9234 332.955 50.9124L334.501 52.5381L336.048 54.1639C338.003 52.3043 338.991 49.9398 338.991 47.2244H336.747ZM334.501 52.5381L332.935 50.9316C331.987 51.856 330.61 52.4308 328.53 52.4308V54.6746V56.9184C331.49 56.9184 334.094 56.0689 336.068 54.1447L334.501 52.5381ZM328.53 54.6746V52.4308C326.453 52.4308 325.044 51.8566 324.051 50.9124L322.504 52.5381L320.958 54.1639C322.96 56.0683 325.568 56.9184 328.53 56.9184V54.6746ZM322.504 52.5381L324.071 50.9316C323.061 49.9473 322.557 48.7636 322.557 47.2244H320.313H318.069C318.069 49.9216 319.026 52.2804 320.938 54.1447L322.504 52.5381ZM373.063 122V124.244H375.306V122H373.063ZM358.491 122H356.247V124.244H358.491V122ZM361.066 46.0192L363.018 47.1249L363.024 47.1149L361.066 46.0192ZM383.69 36.9804L383.373 39.2017L383.381 39.2029L383.69 36.9804ZM387.579 37.7474L389.823 37.8032L389.867 36.0188L388.138 35.5742L387.579 37.7474ZM387.306 48.7583L386.735 50.9282L389.478 51.6502L389.549 48.8141L387.306 48.7583ZM385.005 48.3748L384.802 50.6094L384.81 50.6102L385.005 48.3748ZM374.103 52.3738L372.13 51.3068L372.124 51.3166L372.119 51.3265L374.103 52.3738ZM385.06 62.7273H387.303V60.4835H385.06V62.7273ZM385.06 73.1357V75.3795H387.303V73.1357H385.06ZM349.562 73.1357H347.318V75.3795H349.562V73.1357ZM349.562 62.7273V60.4835H347.318V62.7273H349.562ZM373.063 122V119.756H358.491V122V124.244H373.063V122ZM358.491 122H360.735V57.2493H358.491H356.247V122H358.491ZM358.491 57.2493H360.735C360.735 53.0754 361.539 49.7374 363.018 47.1249L361.066 46.0192L359.113 44.9136C357.16 48.3635 356.247 52.5121 356.247 57.2493H358.491ZM361.066 46.0192L363.024 47.1149C364.517 44.4463 366.626 42.4449 369.4 41.0736L368.406 39.0621L367.412 37.0506C363.832 38.8201 361.047 41.4567 359.108 44.9236L361.066 46.0192ZM368.406 39.0621L369.4 41.0736C372.209 39.6855 375.598 38.9503 379.636 38.9503V36.7065V34.4627C375.055 34.4627 370.958 35.2979 367.412 37.0506L368.406 39.0621ZM379.636 36.7065V38.9503C380.965 38.9503 382.21 39.0355 383.373 39.2017L383.69 36.9804L384.007 34.7592C382.614 34.5601 381.156 34.4627 379.636 34.4627V36.7065ZM383.69 36.9804L383.381 39.2029C384.612 39.3739 385.825 39.6131 387.021 39.9205L387.579 37.7474L388.138 35.5742C386.777 35.2243 385.397 34.9522 383.999 34.7579L383.69 36.9804ZM387.579 37.7474L385.336 37.6916L385.062 48.7025L387.306 48.7583L389.549 48.8141L389.823 37.8032L387.579 37.7474ZM387.306 48.7583L387.877 46.5883C387.04 46.3682 386.145 46.2217 385.199 46.1394L385.005 48.3748L384.81 50.6102C385.545 50.674 386.183 50.7831 386.735 50.9282L387.306 48.7583ZM385.005 48.3748L385.208 46.1402C384.324 46.0599 383.36 46.0214 382.321 46.0214V48.2652V50.5091C383.253 50.5091 384.079 50.5437 384.802 50.6094L385.005 48.3748ZM382.321 48.2652V46.0214C380.092 46.0214 378.049 46.4131 376.277 47.2991L377.281 49.3061L378.284 51.313C379.288 50.8113 380.605 50.5091 382.321 50.5091V48.2652ZM377.281 49.3061L376.277 47.2991C374.482 48.197 373.082 49.5456 372.13 51.3068L374.103 52.3738L376.077 53.4408C376.586 52.4995 377.304 51.803 378.284 51.313L377.281 49.3061ZM374.103 52.3738L372.119 51.3265C371.211 53.0467 370.819 55.0554 370.819 57.2493H373.063H375.306C375.306 55.572 375.608 54.3303 376.088 53.4211L374.103 52.3738ZM373.063 57.2493H370.819V122H373.063H375.306V57.2493H373.063ZM385.06 62.7273H382.816V73.1357H385.06H387.303V62.7273H385.06ZM385.06 73.1357V70.8918H349.562V73.1357V75.3795H385.06V73.1357ZM349.562 73.1357H351.806V62.7273H349.562H347.318V73.1357H349.562ZM349.562 62.7273V64.9712H385.06V62.7273V60.4835H349.562V62.7273ZM444.93 110.606H447.174V108.362H444.93V110.606ZM444.93 122V124.244H447.174V122H444.93ZM400.339 122H398.095V124.244H400.339V122ZM400.339 110.606V108.362H398.095V110.606H400.339ZM443.89 71.3827L445.682 72.7327L446.133 72.1332V71.3827H443.89ZM405.762 122V124.244H406.881L407.555 123.35L405.762 122ZM396.23 122H393.987V124.244H396.23V122ZM396.23 113.071L394.438 111.721L393.987 112.32V113.071H396.23ZM434.139 62.7273V60.4835H433.019L432.346 61.3776L434.139 62.7273ZM443.89 62.7273H446.133V60.4835H443.89V62.7273ZM438.576 62.7273H440.82V60.4835H438.576V62.7273ZM438.576 74.1765V76.4203H440.82V74.1765H438.576ZM396.997 74.1765H394.754V76.4203H396.997V74.1765ZM396.997 62.7273V60.4835H394.754V62.7273H396.997ZM444.93 110.606H442.687V122H444.93H447.174V110.606H444.93ZM444.93 122V119.756H400.339V122V124.244H444.93V122ZM400.339 122H402.583V110.606H400.339H398.095V122H400.339ZM400.339 110.606V112.849H444.93V110.606V108.362H400.339V110.606ZM443.89 71.3827L442.097 70.0327L403.97 120.65L405.762 122L407.555 123.35L445.682 72.7327L443.89 71.3827ZM405.762 122V119.756H396.23V122V124.244H405.762V122ZM396.23 122H398.474V113.071H396.23H393.987V122H396.23ZM396.23 113.071L398.023 114.42L435.931 64.0771L434.139 62.7273L432.346 61.3776L394.438 111.721L396.23 113.071ZM434.139 62.7273V64.9712H443.89V62.7273V60.4835H434.139V62.7273ZM443.89 62.7273H441.646V71.3827H443.89H446.133V62.7273H443.89ZM438.576 62.7273H436.332V74.1765H438.576H440.82V62.7273H438.576ZM438.576 74.1765V71.9327H396.997V74.1765V76.4203H438.576V74.1765ZM396.997 74.1765H399.241V62.7273H396.997H394.754V74.1765H396.997ZM396.997 62.7273V64.9712H438.576V62.7273V60.4835H396.997V62.7273ZM495.05 42.2394H497.294V39.9956H495.05V42.2394ZM495.05 122V124.244H497.294V122H495.05ZM480.04 122H477.797V124.244H480.04V122ZM480.04 42.2394V39.9956H477.797V42.2394H480.04ZM519.811 42.2394H522.055V39.9956H519.811V42.2394ZM519.811 54.1268V56.3706H522.055V54.1268H519.811ZM455.554 54.1268H453.31V56.3706H455.554V54.1268ZM455.554 42.2394V39.9956H453.31V42.2394H455.554ZM495.05 42.2394H492.807V122H495.05H497.294V42.2394H495.05ZM495.05 122V119.756H480.04V122V124.244H495.05V122ZM480.04 122H482.284V42.2394H480.04H477.797V122H480.04ZM480.04 42.2394V44.4832H495.05V42.2394V39.9956H480.04V42.2394ZM519.811 42.2394H517.567V54.1268H519.811H522.055V42.2394H519.811ZM519.811 54.1268V51.883H455.554V54.1268V56.3706H519.811V54.1268ZM455.554 54.1268H457.797V42.2394H455.554H453.31V54.1268H455.554ZM455.554 42.2394V44.4832H519.811V42.2394V39.9956H455.554V42.2394ZM564.124 107.921H561.881V107.991L561.885 108.061L564.124 107.921ZM564.124 62.7273V60.4835H561.881V62.7273H564.124ZM578.696 62.7273H580.94V60.4835H578.696V62.7273ZM578.696 122V124.244H580.94V122H578.696ZM565.001 122L562.761 122.139L562.892 124.244H565.001V122ZM565.987 95.6505L565.932 93.4074L563.743 93.4608V95.6505H565.987ZM570.479 95.541H572.723V93.2417L570.424 93.2978L570.479 95.541ZM569.164 106.552L566.993 105.985L569.164 106.552ZM565.056 115.317L563.261 113.97L563.257 113.975L565.056 115.317ZM558.099 121.069L559.07 123.091L559.081 123.086L559.092 123.081L558.099 121.069ZM540.13 121.89L539.392 124.009L539.406 124.014L539.421 124.019L540.13 121.89ZM533.886 118.001L532.266 119.554L532.282 119.571L532.299 119.588L533.886 118.001ZM529.887 111.153L527.761 111.871L527.763 111.88L529.887 111.153ZM528.462 62.7273V60.4835H526.218V62.7273H528.462ZM542.924 62.7273H545.168V60.4835H542.924V62.7273ZM543.582 106.059L541.453 106.768L541.462 106.795L541.471 106.821L543.582 106.059ZM545.499 109.291L543.878 110.842L543.912 110.878L543.948 110.912L545.499 109.291ZM548.402 111.044L547.693 113.173L547.735 113.186L547.777 113.199L548.402 111.044ZM560.29 109.455L561.565 111.301L561.572 111.297L560.29 109.455ZM564.672 103.758L566.777 104.535L566.781 104.525L564.672 103.758ZM564.124 107.921H566.368V62.7273H564.124H561.881V107.921H564.124ZM564.124 62.7273V64.9712H578.696V62.7273V60.4835H564.124V62.7273ZM578.696 62.7273H576.452V122H578.696H580.94V62.7273H578.696ZM578.696 122V119.756H565.001V122V124.244H578.696V122ZM565.001 122L567.24 121.861L566.364 107.782L564.124 107.921L561.885 108.061L562.761 122.139L565.001 122ZM565.987 95.6505L566.042 97.8937L570.534 97.7841L570.479 95.541L570.424 93.2978L565.932 93.4074L565.987 95.6505ZM570.479 95.541H568.235C568.235 99.3579 567.815 102.835 566.993 105.985L569.164 106.552L571.335 107.118C572.267 103.549 572.723 99.6855 572.723 95.541H570.479ZM569.164 106.552L566.993 105.985C566.181 109.097 564.929 111.746 563.261 113.97L565.056 115.317L566.851 116.663C568.908 113.92 570.394 110.727 571.335 107.118L569.164 106.552ZM565.056 115.317L563.257 113.975C561.649 116.13 559.609 117.821 557.106 119.057L558.099 121.069L559.092 123.081C562.212 121.541 564.81 119.397 566.854 116.659L565.056 115.317ZM558.099 121.069L557.127 119.046C554.679 120.222 551.702 120.852 548.128 120.852V123.096V125.339C552.224 125.339 555.894 124.618 559.07 123.091L558.099 121.069ZM548.128 123.096V120.852C545.413 120.852 542.99 120.479 540.84 119.762L540.13 121.89L539.421 124.019C542.091 124.909 545.001 125.339 548.128 125.339V123.096ZM540.13 121.89L540.869 119.772C538.768 119.039 536.979 117.921 535.472 116.414L533.886 118.001L532.299 119.588C534.298 121.587 536.672 123.061 539.392 124.009L540.13 121.89ZM533.886 118.001L535.505 116.448C534.052 114.933 532.872 112.95 532.01 110.427L529.887 111.153L527.763 111.88C528.8 114.908 530.286 117.49 532.266 119.554L533.886 118.001ZM529.887 111.153L532.012 110.436C531.162 107.917 530.706 104.794 530.706 101.019H528.462H526.218C526.218 105.132 526.712 108.766 527.761 111.871L529.887 111.153ZM528.462 101.019H530.706V62.7273H528.462H526.218V101.019H528.462ZM528.462 62.7273V64.9712H542.924V62.7273V60.4835H528.462V62.7273ZM542.924 62.7273H540.68V101.129H542.924H545.168V62.7273H542.924ZM542.924 101.129H540.68C540.68 103.249 540.914 105.151 541.453 106.768L543.582 106.059L545.71 105.349C545.373 104.338 545.168 102.953 545.168 101.129H542.924ZM543.582 106.059L541.471 106.821C542.031 108.371 542.819 109.735 543.878 110.842L545.499 109.291L547.12 107.74C546.572 107.167 546.082 106.376 545.692 105.297L543.582 106.059ZM545.499 109.291L543.948 110.912C545.026 111.943 546.281 112.702 547.693 113.173L548.402 111.044L549.112 108.915C548.333 108.656 547.652 108.245 547.05 107.669L545.499 109.291ZM548.402 111.044L547.777 113.199C549.129 113.591 550.546 113.781 552.018 113.781V111.537V109.293C550.934 109.293 549.94 109.154 549.028 108.889L548.402 111.044ZM552.018 111.537V113.781C555.789 113.781 559.051 113.039 561.565 111.301L560.29 109.455L559.014 107.609C557.511 108.648 555.258 109.293 552.018 109.293V111.537ZM560.29 109.455L561.572 111.297C564 109.606 565.744 107.332 566.777 104.535L564.672 103.758L562.567 102.981C561.847 104.931 560.67 106.456 559.007 107.614L560.29 109.455ZM564.672 103.758L566.781 104.525C567.76 101.831 568.231 98.8637 568.231 95.6505H565.987H563.743C563.743 98.4267 563.337 100.864 562.564 102.991L564.672 103.758ZM624.05 62.7273H626.294V60.4835H624.05V62.7273ZM624.05 73.1357V75.3795H626.294V73.1357H624.05ZM590.086 73.1357H587.842V75.3795H590.086V73.1357ZM590.086 62.7273V60.4835H587.842V62.7273H590.086ZM599.18 48.1557V45.9119H596.936V48.1557H599.18ZM613.697 48.1557H615.94V45.9119H613.697V48.1557ZM624.598 110.88L626.842 110.868L626.828 108.145L624.158 108.679L624.598 110.88ZM624.653 121.726L625.362 123.855L626.905 123.341L626.896 121.715L624.653 121.726ZM620.544 122.712L620.175 120.499L620.166 120.5L620.544 122.712ZM606.904 121.452L605.961 123.489L605.974 123.494L605.987 123.5L606.904 121.452ZM601.207 116.029L599.229 117.089L599.236 117.101L601.207 116.029ZM624.05 62.7273H621.806V73.1357H624.05H626.294V62.7273H624.05ZM624.05 73.1357V70.8918H590.086V73.1357V75.3795H624.05V73.1357ZM590.086 73.1357H592.33V62.7273H590.086H587.842V73.1357H590.086ZM590.086 62.7273V64.9712H624.05V62.7273V60.4835H590.086V62.7273ZM599.18 48.1557V50.3995H613.697V48.1557V45.9119H599.18V48.1557ZM613.697 48.1557H611.453V104.908H613.697H615.94V48.1557H613.697ZM613.697 104.908H611.453C611.453 106.81 611.701 108.565 612.402 109.966L614.409 108.962L616.416 107.959C616.166 107.46 615.94 106.513 615.94 104.908H613.697ZM614.409 108.962L612.402 109.966C613.122 111.407 614.274 112.468 615.811 113L616.545 110.88L617.279 108.759C616.917 108.634 616.645 108.417 616.416 107.959L614.409 108.962ZM616.545 110.88L615.811 113C617.057 113.431 618.45 113.616 619.942 113.616V111.373V109.129C618.804 109.129 617.932 108.985 617.279 108.759L616.545 110.88ZM619.942 111.373V113.616C620.976 113.616 621.955 113.557 622.874 113.431L622.571 111.208L622.268 108.985C621.58 109.079 620.806 109.129 619.942 109.129V111.373ZM622.571 111.208L622.874 113.431C623.705 113.318 624.43 113.201 625.038 113.08L624.598 110.88L624.158 108.679C623.671 108.777 623.044 108.879 622.268 108.985L622.571 111.208ZM624.598 110.88L622.354 110.891L622.409 121.737L624.653 121.726L626.896 121.715L626.842 110.868L624.598 110.88ZM624.653 121.726L623.943 119.597C622.87 119.955 621.618 120.258 620.175 120.499L620.544 122.712L620.913 124.925C622.538 124.655 624.024 124.301 625.362 123.855L624.653 121.726ZM620.544 122.712L620.166 120.5C618.82 120.73 617.252 120.852 615.449 120.852V123.096V125.339C617.445 125.339 619.273 125.205 620.922 124.924L620.544 122.712ZM615.449 123.096V120.852C612.449 120.852 609.925 120.346 607.821 119.404L606.904 121.452L605.987 123.5C608.777 124.749 611.949 125.339 615.449 125.339V123.096ZM606.904 121.452L607.846 119.416C605.859 118.496 604.31 117.038 603.177 114.956L601.207 116.029L599.236 117.101C600.805 119.986 603.055 122.144 605.961 123.489L606.904 121.452ZM601.207 116.029L603.184 114.969C602.068 112.887 601.423 109.969 601.423 106.059H599.18H596.936C596.936 110.402 597.643 114.131 599.229 117.089L601.207 116.029ZM599.18 106.059H601.423V48.1557H599.18H596.936V106.059H599.18ZM636.043 79.8189L638.167 80.5412L638.169 80.5348L636.043 79.8189ZM650.176 63.9325L651.073 65.9892L651.082 65.9852L651.091 65.9811L650.176 63.9325ZM673.732 63.9325L672.816 65.9811L672.829 65.987L672.843 65.9927L673.732 63.9325ZM687.92 79.8189L685.793 80.5348L685.796 80.5412L687.92 79.8189ZM687.92 104.963L690.044 105.686L690.046 105.679L687.92 104.963ZM682.497 114.55L684.182 116.031L684.187 116.025L684.192 116.019L682.497 114.55ZM650.231 120.85L649.342 122.91L650.231 120.85ZM641.466 114.55L639.77 116.019L639.775 116.025L639.78 116.031L641.466 114.55ZM636.043 104.963L633.916 105.679L633.918 105.686L636.043 104.963ZM655.873 110.277L654.737 112.212L654.762 112.227L654.787 112.24L655.873 110.277ZM668.035 110.277L669.139 112.23L669.155 112.221L669.17 112.212L668.035 110.277ZM672.143 106.223L670.252 105.016L670.243 105.03L670.234 105.045L672.143 106.223ZM674.553 84.6396L672.365 85.1338L672.366 85.1415L674.553 84.6396ZM672.143 78.6685L670.223 79.8288L670.237 79.8525L670.252 79.8758L672.143 78.6685ZM667.98 74.56L666.813 76.4766L666.837 76.4914L666.862 76.5056L667.98 74.56ZM655.873 74.56L657.009 76.4951L657.025 76.486L657.04 76.4766L655.873 74.56ZM651.765 78.6685L653.674 79.8468L653.68 79.8378L653.685 79.8288L651.765 78.6685ZM649.409 84.6396L651.596 85.1415L651.598 85.1338L649.409 84.6396ZM634.18 92.9663H636.424V91.8159H634.18H631.936V92.9663H634.18ZM634.18 91.8159H636.424C636.424 87.6849 637.014 83.9332 638.167 80.5412L636.043 79.8189L633.918 79.0966C632.588 83.0087 631.936 87.255 631.936 91.8159H634.18ZM636.043 79.8189L638.169 80.5348C639.324 77.1046 640.99 74.1746 643.152 71.7131L641.466 70.2323L639.78 68.7515C637.195 71.695 635.245 75.1561 633.916 79.103L636.043 79.8189ZM641.466 70.2323L643.152 71.7131C645.299 69.2684 647.929 67.3604 651.073 65.9892L650.176 63.9325L649.279 61.8758C645.557 63.4993 642.38 65.7912 639.78 68.7515L641.466 70.2323ZM650.176 63.9325L651.091 65.9811C654.193 64.5955 657.78 63.8755 661.899 63.8755V61.6317V59.3879C657.253 59.3879 653.025 60.2018 649.261 61.8839L650.176 63.9325ZM661.899 61.6317V63.8755C666.097 63.8755 669.72 64.5975 672.816 65.9811L673.732 63.9325L674.647 61.8839C670.878 60.1998 666.613 59.3879 661.899 59.3879V61.6317ZM673.732 63.9325L672.843 65.9927C676.023 67.3651 678.667 69.2729 680.811 71.7131L682.497 70.2323L684.182 68.7515C681.578 65.7866 678.38 63.4946 674.621 61.8724L673.732 63.9325ZM682.497 70.2323L680.811 71.7131C682.973 74.1746 684.639 77.1046 685.793 80.5348L687.92 79.8189L690.046 79.103C688.718 75.1561 686.768 71.695 684.182 68.7515L682.497 70.2323ZM687.92 79.8189L685.796 80.5412C686.949 83.9332 687.539 87.6849 687.539 91.8159H689.782H692.026C692.026 87.255 691.374 83.0087 690.044 79.0966L687.92 79.8189ZM689.782 91.8159H687.539V92.9663H689.782H692.026V91.8159H689.782ZM689.782 92.9663H687.539C687.539 97.0582 686.95 100.813 685.793 104.247L687.92 104.963L690.046 105.679C691.374 101.737 692.026 97.4932 692.026 92.9663H689.782ZM687.92 104.963L685.796 104.241C684.641 107.636 682.973 110.574 680.801 113.08L682.497 114.55L684.192 116.019C686.768 113.048 688.715 109.594 690.044 105.686L687.92 104.963ZM682.497 114.55L680.811 113.069C678.663 115.514 676.033 117.422 672.889 118.793L673.787 120.85L674.684 122.906C678.406 121.283 681.582 118.991 684.182 116.031L682.497 114.55ZM673.787 120.85L672.889 118.793C669.786 120.147 666.174 120.852 662.009 120.852V123.096V125.339C666.682 125.339 670.921 124.547 674.684 122.906L673.787 120.85ZM662.009 123.096V120.852C657.884 120.852 654.267 120.148 651.12 118.789L650.231 120.85L649.342 122.91C653.133 124.546 657.369 125.339 662.009 125.339V123.096ZM650.231 120.85L651.12 118.789C647.94 117.417 645.295 115.509 643.152 113.069L641.466 114.55L639.78 116.031C642.384 118.996 645.583 121.288 649.342 122.91L650.231 120.85ZM641.466 114.55L643.162 113.08C640.99 110.574 639.321 107.636 638.167 104.241L636.043 104.963L633.918 105.686C635.247 109.594 637.195 113.048 639.77 116.019L641.466 114.55ZM636.043 104.963L638.169 104.247C637.013 100.813 636.424 97.0582 636.424 92.9663H634.18H631.936C631.936 97.4932 632.589 101.737 633.916 105.679L636.043 104.963ZM648.642 91.8159H646.398V92.9663H648.642H650.886V91.8159H648.642ZM648.642 92.9663H646.398C646.398 95.7064 646.669 98.3023 647.22 100.746L649.409 100.252L651.598 99.7579C651.127 97.6734 650.886 95.412 650.886 92.9663H648.642ZM649.409 100.252L647.22 100.746C647.778 103.217 648.648 105.445 649.855 107.401L651.765 106.223L653.674 105.045C652.763 103.569 652.063 101.816 651.598 99.7579L649.409 100.252ZM651.765 106.223L649.855 107.401C651.099 109.418 652.73 111.034 654.737 112.212L655.873 110.277L657.009 108.342C655.656 107.548 654.548 106.461 653.674 105.045L651.765 106.223ZM655.873 110.277L654.787 112.24C656.899 113.409 659.334 113.945 662.009 113.945V111.701V109.457C659.935 109.457 658.28 109.044 656.959 108.314L655.873 110.277ZM662.009 111.701V113.945C664.651 113.945 667.057 113.407 669.139 112.23L668.035 110.277L666.93 108.324C665.652 109.046 664.04 109.457 662.009 109.457V111.701ZM668.035 110.277L669.17 112.212C671.178 111.034 672.808 109.418 674.053 107.401L672.143 106.223L670.234 105.045C669.36 106.461 668.251 107.548 666.899 108.342L668.035 110.277ZM672.143 106.223L674.034 107.43C675.288 105.467 676.182 103.229 676.742 100.746L674.553 100.252L672.365 99.7579C671.903 101.804 671.19 103.546 670.252 105.016L672.143 106.223ZM674.553 100.252L676.742 100.746C677.294 98.3023 677.564 95.7064 677.564 92.9663H675.32H673.077C673.077 95.412 672.835 97.6734 672.365 99.7579L674.553 100.252ZM675.32 92.9663H677.564V91.8159H675.32H673.077V92.9663H675.32ZM675.32 91.8159H677.564C677.564 89.1101 677.294 86.5481 676.74 84.1377L674.553 84.6396L672.366 85.1415C672.836 87.1866 673.077 89.4087 673.077 91.8159H675.32ZM674.553 84.6396L676.742 84.1454C676.182 81.663 675.288 79.4247 674.034 77.4613L672.143 78.6685L670.252 79.8758C671.19 81.3452 671.903 83.0877 672.365 85.1338L674.553 84.6396ZM672.143 78.6685L674.064 77.5082C672.815 75.4414 671.155 73.7966 669.097 72.6143L667.98 74.56L666.862 76.5056C668.237 77.2954 669.353 78.3897 670.223 79.8288L672.143 78.6685ZM667.98 74.56L669.146 72.6433C667.048 71.3663 664.599 70.7823 661.899 70.7823V73.0261V75.2699C663.947 75.2699 665.551 75.7085 666.813 76.4766L667.98 74.56ZM661.899 73.0261V70.7823C659.229 70.7823 656.799 71.3694 654.707 72.6433L655.873 74.56L657.04 76.4766C658.307 75.7053 659.895 75.2699 661.899 75.2699V73.0261ZM655.873 74.56L654.737 72.6249C652.719 73.8097 651.086 75.4527 649.844 77.5082L651.765 78.6685L653.685 79.8288C654.562 78.3784 655.668 77.2823 657.009 76.4951L655.873 74.56ZM651.765 78.6685L649.855 77.4903C648.648 79.4469 647.778 81.6751 647.22 84.1454L649.409 84.6396L651.598 85.1338C652.063 83.0756 652.763 81.323 653.674 79.8468L651.765 78.6685ZM649.409 84.6396L647.222 84.1377C646.669 86.5481 646.398 89.1101 646.398 91.8159H648.642H650.886C650.886 89.4087 651.127 87.1866 651.596 85.1415L649.409 84.6396ZM719.25 74.8339H721.494V74.7629L721.489 74.692L719.25 74.8339ZM719.25 122V124.244H721.494V122H719.25ZM704.788 122H702.544V124.244H704.788V122ZM704.788 62.7273V60.4835H702.544V62.7273H704.788ZM718.483 62.7273L720.722 62.5855L720.589 60.4835H718.483V62.7273ZM737.273 62.3439L739.516 62.3804L739.542 60.8347L738.106 60.2605L737.273 62.3439ZM737.054 75.8199L736.652 78.0275L739.254 78.5006L739.297 75.8564L737.054 75.8199ZM734.315 75.4912L734.149 77.7289L734.155 77.7293L734.315 75.4912ZM725.659 76.3129L726.397 78.4322L726.417 78.4251L726.437 78.4176L725.659 76.3129ZM721.441 78.8876L719.855 77.301L719.842 77.314L719.829 77.3272L721.441 78.8876ZM718.921 83.051L721.03 83.8178L721.033 83.8102L721.036 83.8027L718.921 83.051ZM717.935 88.529L717.662 90.7561L720.09 91.0544L720.178 88.6091L717.935 88.529ZM714.813 88.1456H712.569V90.1307L714.539 90.3727L714.813 88.1456ZM724.783 63.6586L725.937 65.5827L725.947 65.5771L724.783 63.6586ZM735.027 61.8508L734.672 64.0665L734.721 64.0742L734.77 64.0799L735.027 61.8508ZM719.25 74.8339H717.006V122H719.25H721.494V74.8339H719.25ZM719.25 122V119.756H704.788V122V124.244H719.25V122ZM704.788 122H707.032V62.7273H704.788H702.544V122H704.788ZM704.788 62.7273V64.9712H718.483V62.7273V60.4835H704.788V62.7273ZM718.483 62.7273L716.244 62.8692L717.011 74.9757L719.25 74.8339L721.489 74.692L720.722 62.5855L718.483 62.7273ZM737.273 62.3439L735.029 62.3074L734.81 75.7834L737.054 75.8199L739.297 75.8564L739.516 62.3804L737.273 62.3439ZM737.054 75.8199L737.455 73.6123C736.555 73.4486 735.559 73.3306 734.475 73.2531L734.315 75.4912L734.155 77.7293C735.116 77.798 735.946 77.8991 736.652 78.0275L737.054 75.8199ZM734.315 75.4912L734.481 73.2535C733.446 73.1769 732.459 73.1379 731.521 73.1379V75.3817V77.6255C732.336 77.6255 733.211 77.6595 734.149 77.7289L734.315 75.4912ZM731.521 75.3817V73.1379C729.09 73.1379 726.863 73.476 724.882 74.2083L725.659 76.3129L726.437 78.4176C727.816 77.9082 729.496 77.6255 731.521 77.6255V75.3817ZM725.659 76.3129L724.922 74.1937C722.958 74.8767 721.252 75.9041 719.855 77.301L721.441 78.8876L723.028 80.4743C723.895 79.6069 725.001 78.9178 726.397 78.4322L725.659 76.3129ZM721.441 78.8876L719.829 77.3272C718.487 78.7136 717.487 80.3861 716.807 82.2993L718.921 83.051L721.036 83.8027C721.524 82.429 722.204 81.3259 723.054 80.448L721.441 78.8876ZM718.921 83.051L716.813 82.2842C716.134 84.15 715.773 86.214 715.693 88.4489L717.935 88.529L720.178 88.6091C720.244 86.7537 720.54 85.1657 721.03 83.8178L718.921 83.051ZM717.935 88.529L718.209 86.3019L715.086 85.9185L714.813 88.1456L714.539 90.3727L717.662 90.7561L717.935 88.529ZM714.813 88.1456H717.057C717.057 84.5357 717.425 81.2249 718.146 78.2033L715.963 77.6825L713.781 77.1616C712.968 80.5676 712.569 84.2322 712.569 88.1456H714.813ZM715.963 77.6825L718.146 78.2033C718.868 75.1779 719.902 72.5896 721.224 70.4092L719.305 69.2462L717.386 68.0833C715.786 70.7236 714.593 73.7594 713.781 77.1616L715.963 77.6825ZM719.305 69.2462L721.224 70.4092C722.515 68.2782 724.09 66.6909 725.937 65.5827L724.783 63.6586L723.629 61.7346C721.093 63.2558 719.016 65.3936 717.386 68.0833L719.305 69.2462ZM724.783 63.6586L725.947 65.5771C727.787 64.461 729.932 63.8755 732.452 63.8755V61.6317V59.3879C729.202 59.3879 726.235 60.1537 723.619 61.7401L724.783 63.6586ZM732.452 61.6317V63.8755C733.121 63.8755 733.86 63.9364 734.672 64.0665L735.027 61.8508L735.381 59.6352C734.368 59.4731 733.391 59.3879 732.452 59.3879V61.6317ZM735.027 61.8508L734.77 64.0799C735.628 64.1789 736.155 64.3132 736.44 64.4272L737.273 62.3439L738.106 60.2605C737.296 59.9363 736.325 59.742 735.284 59.6218L735.027 61.8508Z" fill="black" mask="url(#path-1-outside-1_160_52)"/>
<path d="M65.9873 31.4309C84.0603 32.4798 93.9836 41.429 95.3232 48.925C95.496 49.8916 95.6822 52.2153 95.8252 55.9514C95.9628 59.5473 96.0506 64.1082 96.0986 69.3088C96.1946 79.7039 96.1305 92.516 96.002 104.999C95.8734 117.476 95.6803 129.597 95.5195 138.601C95.5042 139.462 95.4864 140.294 95.4717 141.096C87.7344 135.219 80.319 130.976 71.4707 128C60.3644 124.265 47.3474 122.646 29.166 121.744L28.9912 31.4309H65.9873ZM145.206 31.2473C153.341 30.4401 163.784 30.4308 172.349 30.6409C175.905 30.7281 179.095 30.8536 181.602 30.968V117.421C166.624 117.789 154.48 119.291 143.202 123.084C133.762 126.259 125.168 130.957 116.144 137.581V49.3137C117.073 45.5418 120.069 41.53 125.214 38.094C130.52 34.5502 137.586 32.0035 145.206 31.2473ZM9.84766 52.1789V136.851H6V52.1789H9.84766Z" fill="#D3F501" stroke="black" stroke-width="12"/>
</svg>
