<svg width="345" height="287" viewBox="0 0 345 287" fill="none" xmlns="http://www.w3.org/2000/svg">
<path d="M90.4202 12.8403C128.343 15.1493 150.951 35.1474 154.162 54.187C155.073 59.5852 155.633 76.4219 155.838 99.9575C156.039 123.011 155.906 151.409 155.637 179.058C155.368 206.697 154.965 233.545 154.629 253.487C154.56 257.567 154.493 261.358 154.432 264.807C137.029 250.301 120.82 240.111 101.201 233.119C77.7795 224.771 50.1471 221.217 10.9133 219.249L10.5354 12.8403H90.4202ZM255.721 12.4448C272.843 10.6443 294.763 10.6278 312.677 11.0933C321.337 11.3183 328.96 11.6538 334.5 11.938V209.747C302.142 210.447 276.276 213.714 252.365 222.235C231.582 229.641 212.762 240.842 192.65 256.992V55.2642C194.747 45.5748 201.747 35.9252 212.952 27.9946C224.402 19.8912 239.516 14.1489 255.721 12.4448Z" fill="#D3F501" stroke="black" stroke-width="20"/>
</svg>
