<svg width="398" height="399" viewBox="0 0 398 399" fill="none" xmlns="http://www.w3.org/2000/svg">
<path d="M324.757 222.576L203.406 367.625C203.406 367.625 154.52 323.237 122.911 287.189C89.197 248.74 39.9608 187.481 39.9608 187.481C39.9608 187.481 16.6211 138.214 23.1538 106.635C29.7306 74.8425 47.0199 54.4975 71.1784 38.7765C96.1266 22.5415 118 17.4124 146.383 26.3801C177.973 36.3611 203.406 89.1884 203.406 89.1884C203.406 89.1884 215.954 56.9436 232.331 43.735C253.596 26.5848 273.062 22.4576 300.098 26.3801C325.848 30.1161 341.905 38.9509 357.948 59.4371C374.074 80.0301 375.423 92.2063 375.987 118.356C376.937 162.421 324.757 222.576 324.757 222.576Z" stroke="black" stroke-width="43"/>
</svg>
