<svg width="495" height="463" viewBox="0 0 495 463" fill="none" xmlns="http://www.w3.org/2000/svg">
<path d="M224 231.5L466.5 227M466.5 227L401 283M466.5 227L401 176" stroke="black" stroke-width="35"/>
<path d="M20.5 368C14.5 340.5 21.9999 93.5 24 83.5C26.0001 73.5 28.1661 67.0197 33.5 60.5C38.834 53.9803 95.7231 11.621 137 18.5001C155 21.5 155 55.5 155 55.5V405.5V419.5C155 433.5 155 445.5 137 445.5C98.5275 445.5 39.5 405.5 39.5 405.5C39.5 405.5 26.5 395.5 20.5 368Z" fill="white"/>
<path d="M155 55.5C155 55.5 155 21.5 137 18.5001C95.7231 11.621 38.834 53.9803 33.5 60.5C28.1661 67.0197 26.0001 73.5 24 83.5C21.9999 93.5 14.5 340.5 20.5 368C26.5 395.5 39.5 405.5 39.5 405.5C39.5 405.5 98.5275 445.5 137 445.5C155 445.5 155 433.5 155 419.5C155 405.5 155 405.5 155 405.5M155 55.5C155 55.5 267.5 51.5 291 55.5C314.5 59.5 322.5 67.0001 322.5 91C322.5 115 322.5 152.5 322.5 152.5M155 55.5V405.5M322.5 306C322.5 306 322.5 347.5 322.5 368C322.5 388.5 309 397 309 397C277.5 411.5 211.133 407.836 155 405.5" stroke="black" stroke-width="35"/>
</svg>
