<svg width="551" height="434" viewBox="0 0 551 434" fill="none" xmlns="http://www.w3.org/2000/svg">
<path d="M82.1371 66.0185C81.4749 66.0559 80.912 66.0412 80.5 66C81.0429 66.0061 81.5886 66.0123 82.1371 66.0185C84.1534 65.9044 87.0911 65.3066 89.5 63.5C92.7 61.1 97.1667 57.5 99 56L104.5 51L112 42L121.5 22.5C123.667 19 130.1 11.1 138.5 7.5C146.9 3.9 153.667 1.66667 156 1H293.5C297.833 1.83333 307.5 4.1 311.5 6.5C315.5 8.9 320.5 11.8333 322.5 13C325.667 15.5 332.5 22.1 334.5 28.5C337 36.5 342.5 44 347.5 51C352.5 58 360 63.5 375 66.5C386.937 68.8874 185.801 67.1848 82.1371 66.0185Z" fill="black"/>
<path d="M80.5 66C82.1667 66.1667 86.3 65.9 89.5 63.5C92.7 61.1 97.1667 57.5 99 56L104.5 51L112 42L121.5 22.5C123.667 19 130.1 11.1 138.5 7.5C146.9 3.9 153.667 1.66667 156 1H293.5C297.833 1.83333 307.5 4.1 311.5 6.5C315.5 8.9 320.5 11.8333 322.5 13C325.667 15.5 332.5 22.1 334.5 28.5C337 36.5 342.5 44 347.5 51C352.5 58 360 63.5 375 66.5C387 68.9 183.667 67.1667 80.5 66Z" stroke="black"/>
<rect y="66.5" width="455" height="269" rx="58" fill="black"/>
<path d="M438 220.914C494.214 220.914 539.586 265.994 539.586 321.358C539.586 376.723 494.214 421.803 438 421.803C381.786 421.803 336.414 376.723 336.414 321.358C336.414 265.994 381.786 220.914 438 220.914Z" fill="black" stroke="white" stroke-width="22.8283"/>
<path d="M227.5 113.661C276.184 113.661 315.839 152.757 315.839 201.217C315.839 249.676 276.184 288.773 227.5 288.773C178.816 288.773 139.161 249.676 139.161 201.217C139.161 152.757 178.816 113.661 227.5 113.661Z" fill="black" stroke="white" stroke-width="21.6783"/>
<path d="M438.5 376.5L438 277.5M438 277.5L478.5 319M438 277.5L398 319.5" stroke="white" stroke-width="22.8571" stroke-linecap="round"/>
</svg>
